IBM Plex Devanagari-Thin.ufo
<glyph name="ampersand" format="1">
  <advance width="677"/>
  <unicode hex="0026"/>
  <outline>
    <contour>
      <point x="612" y="0" type="line"/>
      <point x="640" y="0" type="line"/>
      <point x="507" y="135" type="line"/>
      <point x="532" y="191"/>
      <point x="542" y="257"/>
      <point x="544" y="331" type="curve"/>
      <point x="634" y="331" type="line"/>
      <point x="634" y="351" type="line"/>
      <point x="525" y="351" type="line"/>
      <point x="525" y="275"/>
      <point x="516" y="203"/>
      <point x="493" y="149" type="curve"/>
      <point x="273" y="367" type="line"/>
      <point x="391" y="422"/>
      <point x="469" y="473"/>
      <point x="469" y="570" type="curve" smooth="yes"/>
      <point x="469" y="648"/>
      <point x="408" y="710"/>
      <point x="309" y="710" type="curve" smooth="yes"/>
      <point x="205" y="710"/>
      <point x="140" y="647"/>
      <point x="140" y="554" type="curve" smooth="yes"/>
      <point x="140" y="488"/>
      <point x="176" y="440"/>
      <point x="239" y="371" type="curve"/>
      <point x="147" y="327"/>
      <point x="70" y="277"/>
      <point x="70" y="166" type="curve" smooth="yes"/>
      <point x="70" y="59"/>
      <point x="149" y="-12"/>
      <point x="271" y="-12" type="curve" smooth="yes" name="hr01"/>
      <point x="376" y="-12"/>
      <point x="454" y="39"/>
      <point x="497" y="116" type="curve"/>
    </contour>
    <contour>
      <point x="309" y="691" type="curve" smooth="yes"/>
      <point x="382" y="691"/>
      <point x="446" y="648"/>
      <point x="446" y="574" type="curve" smooth="yes"/>
      <point x="446" y="560" type="line" smooth="yes"/>
      <point x="446" y="484"/>
      <point x="368" y="430"/>
      <point x="259" y="380" type="curve"/>
      <point x="206" y="437"/>
      <point x="163" y="489"/>
      <point x="163" y="546" type="curve" smooth="yes"/>
      <point x="163" y="564" type="line" smooth="yes"/>
      <point x="163" y="635"/>
      <point x="217" y="691"/>
    </contour>
    <contour>
      <point x="93" y="156" type="curve" smooth="yes"/>
      <point x="93" y="176" type="line" smooth="yes"/>
      <point x="93" y="273"/>
      <point x="166" y="315"/>
      <point x="253" y="358" type="curve"/>
      <point x="483" y="129" type="line"/>
      <point x="442" y="52"/>
      <point x="372" y="8"/>
      <point x="271" y="8" type="curve" smooth="yes" name="hr03"/>
      <point x="168" y="8"/>
      <point x="93" y="66"/>
    </contour>
  </outline>
</glyph>
<glyph name="asterisk" format="1">
  <advance width="362"/>
  <unicode hex="002A"/>
  <outline>
    <contour>
      <point x="181" y="565" type="line" name="hr00"/>
      <point x="274" y="436" type="line"/>
      <point x="289" y="447" type="line"/>
      <point x="194" y="575" type="line"/>
      <point x="345" y="621" type="line"/>
      <point x="339" y="640" type="line"/>
      <point x="189" y="590" type="line"/>
      <point x="191" y="747" type="line"/>
      <point x="171" y="747" type="line"/>
      <point x="173" y="590" type="line"/>
      <point x="23" y="640" type="line"/>
      <point x="17" y="621" type="line"/>
      <point x="168" y="575" type="line"/>
      <point x="73" y="447" type="line"/>
      <point x="88" y="436" type="line"/>
    </contour>
  </outline>
</glyph>
<glyph name="brokenbar" format="1">
  <advance width="236"/>
  <unicode hex="00A6"/>
  <outline>
    <contour>
      <point x="128" y="401" type="line" name="hr00"/>
      <point x="128" y="760" type="line"/>
      <point x="108" y="760" type="line"/>
      <point x="108" y="401" type="line"/>
    </contour>
    <contour>
      <point x="128" y="-138" type="line"/>
      <point x="128" y="221" type="line"/>
      <point x="108" y="221" type="line"/>
      <point x="108" y="-138" type="line"/>
    </contour>
  </outline>
</glyph>
<glyph name="OE" format="1">
  <advance width="967"/>
  <unicode hex="0152"/>
  <outline>
    <contour>
      <point x="895" y="0" type="line"/>
      <point x="895" y="20" type="line"/>
      <point x="536" y="20" type="line"/>
      <point x="536" y="344" type="line"/>
      <point x="883" y="344" type="line"/>
      <point x="883" y="364" type="line"/>
      <point x="536" y="364" type="line"/>
      <point x="536" y="678" type="line"/>
      <point x="895" y="678" type="line"/>
      <point x="895" y="698" type="line"/>
      <point x="514" y="698" type="line"/>
      <point x="482" y="703"/>
      <point x="430" y="710"/>
      <point x="370" y="710" type="curve" smooth="yes" name="hr01"/>
      <point x="177" y="710"/>
      <point x="70" y="589"/>
      <point x="70" y="349" type="curve" smooth="yes"/>
      <point x="70" y="109"/>
      <point x="177" y="-12"/>
      <point x="370" y="-12" type="curve" smooth="yes"/>
      <point x="430" y="-12"/>
      <point x="482" y="-5"/>
      <point x="514" y="0" type="curve" name="hr02"/>
    </contour>
    <contour>
      <point x="370" y="8" type="curve" smooth="yes" name="hr03"/>
      <point x="198" y="8"/>
      <point x="94" y="117"/>
      <point x="94" y="328" type="curve" smooth="yes"/>
      <point x="94" y="370" type="line" smooth="yes"/>
      <point x="94" y="581"/>
      <point x="198" y="690"/>
      <point x="370" y="690" type="curve" smooth="yes"/>
      <point x="430" y="690"/>
      <point x="480" y="683"/>
      <point x="514" y="676" type="curve"/>
      <point x="514" y="22" type="line"/>
      <point x="480" y="15"/>
      <point x="430" y="8"/>
    </contour>
  </outline>
</glyph>
<glyph name="florin" format="1">
  <advance width="488"/>
  <unicode hex="0192"/>
  <outline>
    <contour>
      <point x="-3" y="-134" type="line" name="hr00"/>
      <point x="165" y="-134" type="line" smooth="yes"/>
      <point x="185" y="-134"/>
      <point x="197" y="-125"/>
      <point x="199" y="-105" type="curve" smooth="yes"/>
      <point x="240" y="311" type="line"/>
      <point x="450" y="311" type="line"/>
      <point x="452" y="330" type="line"/>
      <point x="242" y="330" type="line"/>
      <point x="277" y="679" type="line"/>
      <point x="462" y="679" type="line"/>
      <point x="464" y="698" type="line"/>
      <point x="288" y="698" type="line" smooth="yes"/>
      <point x="268" y="698"/>
      <point x="257" y="689"/>
      <point x="255" y="669" type="curve" smooth="yes"/>
      <point x="221" y="330" type="line"/>
      <point x="48" y="330" type="line"/>
      <point x="46" y="311" type="line"/>
      <point x="219" y="311" type="line"/>
      <point x="177" y="-115" type="line"/>
      <point x="-1" y="-115" type="line"/>
    </contour>
  </outline>
</glyph>
<glyph name="dvvL" format="1">
  <advance width="820"/>
  <unicode hex="090C"/>
  <outline>
    <contour>
      <point x="665" y="-44" type="curve" smooth="yes" name="hr00"/>
      <point x="716" y="-44" type="line"/>
      <point x="716" y="-26" type="line"/>
      <point x="668" y="-26" type="line" smooth="yes"/>
      <point x="594" y="-26"/>
      <point x="557" y="5"/>
      <point x="557" y="54" type="curve" smooth="yes"/>
      <point x="557" y="96"/>
      <point x="573" y="123"/>
      <point x="608" y="153" type="curve" smooth="yes"/>
      <point x="667" y="204"/>
      <point x="711" y="256"/>
      <point x="711" y="328" type="curve" smooth="yes"/>
      <point x="711" y="426"/>
      <point x="651" y="479"/>
      <point x="583" y="485" type="curve"/>
      <point x="583" y="679" type="line"/>
      <point x="840" y="679" type="line"/>
      <point x="840" y="698" type="line"/>
      <point x="-20" y="698" type="line"/>
      <point x="-20" y="679" type="line"/>
      <point x="564" y="679" type="line"/>
      <point x="564" y="486" type="line"/>
      <point x="476" y="486"/>
      <point x="426" y="427"/>
      <point x="413" y="350" type="curve"/>
      <point x="410" y="350" type="line"/>
      <point x="395" y="430"/>
      <point x="345" y="484"/>
      <point x="255" y="484" type="curve" smooth="yes"/>
      <point x="173" y="484"/>
      <point x="106" y="423"/>
      <point x="106" y="288" type="curve" smooth="yes"/>
      <point x="106" y="140"/>
      <point x="188" y="76"/>
      <point x="316" y="45" type="curve"/>
      <point x="320" y="64" type="line"/>
      <point x="199" y="90"/>
      <point x="128" y="162"/>
      <point x="128" y="266" type="curve" smooth="yes"/>
      <point x="128" y="289" type="line" smooth="yes"/>
      <point x="128" y="412"/>
      <point x="185" y="464"/>
      <point x="259" y="464" type="curve" smooth="yes"/>
      <point x="338" y="464"/>
      <point x="401" y="404"/>
      <point x="401" y="285" type="curve" smooth="yes"/>
      <point x="401" y="216" type="line"/>
      <point x="422" y="216" type="line"/>
      <point x="422" y="288" type="line" smooth="yes"/>
      <point x="422" y="406"/>
      <point x="489" y="466"/>
      <point x="566" y="466" type="curve" smooth="yes"/>
      <point x="630" y="466"/>
      <point x="690" y="424"/>
      <point x="690" y="329" type="curve" smooth="yes"/>
      <point x="690" y="273"/>
      <point x="660" y="224"/>
      <point x="611" y="182" type="curve" smooth="yes"/>
      <point x="562" y="140"/>
      <point x="536" y="106"/>
      <point x="536" y="54" type="curve" smooth="yes"/>
      <point x="536" y="-4"/>
      <point x="581" y="-44"/>
    </contour>
    <contour>
      <point x="413.0" y="696.0" type="move" name="center_deva"/>
    </contour>
    <contour>
      <point x="583.0" y="696.0" type="move" name="top_deva"/>
    </contour>
  </outline>
</glyph>
<glyph name="dvEcandra" format="1">
  <advance width="615"/>
  <unicode hex="090D"/>
  <outline>
    <component base="dvE"/>
    <component base="dvmEcandra" xOffset="612"/>
    <contour>
      <point x="320.0" y="696.0" type="move" name="center_deva"/>
    </contour>
    <contour>
      <point x="335.0" y="757.0" type="move" name="top_deva"/>
    </contour>
  </outline>
</glyph>
<glyph name="dvJHA" format="1">
  <advance width="834"/>
  <unicode hex="091D"/>
  <outline>
    <contour>
      <point x="209" y="-105" type="line" name="hr00"/>
      <point x="226" y="-99" type="line"/>
      <point x="181" y="32" type="line"/>
      <point x="175" y="50" type="line"/>
      <point x="176" y="51" type="line"/>
      <point x="199" y="46"/>
      <point x="227" y="42"/>
      <point x="258" y="42" type="curve" smooth="yes"/>
      <point x="374" y="42"/>
      <point x="428" y="90"/>
      <point x="428" y="178" type="curve" smooth="yes"/>
      <point x="428" y="205"/>
      <point x="421" y="225"/>
      <point x="411" y="242" type="curve"/>
      <point x="412" y="243" type="line"/>
      <point x="669" y="243" type="line"/>
      <point x="669" y="0" type="line"/>
      <point x="690" y="0" type="line"/>
      <point x="690" y="679" type="line"/>
      <point x="854" y="679" type="line"/>
      <point x="854" y="698" type="line"/>
      <point x="-20" y="698" type="line"/>
      <point x="-20" y="679" type="line"/>
      <point x="356" y="679" type="line"/>
      <point x="356" y="502" type="line"/>
      <point x="218" y="502" type="line" smooth="yes"/>
      <point x="138" y="502"/>
      <point x="92" y="458"/>
      <point x="92" y="394" type="curve" smooth="yes"/>
      <point x="92" y="328"/>
      <point x="137" y="282"/>
      <point x="232" y="282" type="curve" smooth="yes"/>
      <point x="286" y="282" type="line" smooth="yes"/>
      <point x="368" y="282"/>
      <point x="406" y="238"/>
      <point x="406" y="185" type="curve" smooth="yes"/>
      <point x="406" y="168" type="line" smooth="yes"/>
      <point x="406" y="102"/>
      <point x="359" y="60"/>
      <point x="259" y="60" type="curve" smooth="yes"/>
      <point x="223" y="60"/>
      <point x="194" y="64"/>
      <point x="168" y="72" type="curve"/>
      <point x="148" y="124" type="line"/>
      <point x="143" y="125"/>
      <point x="140" y="125"/>
      <point x="136" y="125" type="curve" smooth="yes"/>
      <point x="120" y="125"/>
      <point x="109" y="116"/>
      <point x="109" y="98" type="curve" smooth="yes"/>
      <point x="109" y="75"/>
      <point x="126" y="61"/>
      <point x="155" y="54" type="curve"/>
      <point x="164" y="27" type="line"/>
    </contour>
    <contour>
      <point x="377" y="679" type="line"/>
      <point x="669" y="679" type="line"/>
      <point x="669" y="261" type="line"/>
      <point x="399" y="261" type="line"/>
      <point x="375" y="286"/>
      <point x="339" y="301"/>
      <point x="288" y="301" type="curve" smooth="yes"/>
      <point x="227" y="301" type="line" smooth="yes"/>
      <point x="151" y="301"/>
      <point x="114" y="337"/>
      <point x="114" y="387" type="curve" smooth="yes"/>
      <point x="114" y="400" type="line" smooth="yes"/>
      <point x="114" y="448"/>
      <point x="151" y="482"/>
      <point x="222" y="482" type="curve" smooth="yes"/>
      <point x="377" y="482" type="line"/>
    </contour>
    <contour>
      <point x="690.0" y="0.0" type="move" name="bottom_deva"/>
    </contour>
    <contour>
      <point x="523.0" y="696.0" type="move" name="center_deva"/>
    </contour>
    <contour>
      <point x="690.0" y="696.0" type="move" name="top_deva"/>
    </contour>
  </outline>
</glyph>
<glyph name="dvNYA" format="1">
  <advance width="830"/>
  <unicode hex="091E"/>
  <outline>
    <contour>
      <point x="277" y="120" type="curve" smooth="yes" name="hr00"/>
      <point x="390" y="120"/>
      <point x="450" y="199"/>
      <point x="450" y="303" type="curve" smooth="yes"/>
      <point x="450" y="313" type="line"/>
      <point x="665" y="313" type="line"/>
      <point x="665" y="0" type="line"/>
      <point x="686" y="0" type="line"/>
      <point x="686" y="679" type="line"/>
      <point x="850" y="679" type="line"/>
      <point x="850" y="698" type="line"/>
      <point x="-20" y="698" type="line"/>
      <point x="-20" y="679" type="line"/>
      <point x="665" y="679" type="line"/>
      <point x="665" y="332" type="line"/>
      <point x="448" y="332" type="line"/>
      <point x="437" y="422"/>
      <point x="372" y="473"/>
      <point x="280" y="473" type="curve" smooth="yes"/>
      <point x="238" y="473"/>
      <point x="201" y="463"/>
      <point x="175" y="450" type="curve"/>
      <point x="182" y="432" type="line"/>
      <point x="210" y="446"/>
      <point x="242" y="454"/>
      <point x="282" y="454" type="curve" smooth="yes"/>
      <point x="381" y="454"/>
      <point x="429" y="384"/>
      <point x="429" y="312" type="curve" smooth="yes"/>
      <point x="429" y="293" type="line" smooth="yes"/>
      <point x="429" y="212"/>
      <point x="376" y="139"/>
      <point x="278" y="139" type="curve" smooth="yes"/>
      <point x="190" y="139"/>
      <point x="108" y="182"/>
      <point x="73" y="339" type="curve"/>
      <point x="54" y="333" type="line"/>
      <point x="91" y="172"/>
      <point x="177" y="120"/>
    </contour>
    <contour>
      <point x="686.0" y="0.0" type="move" name="bottom_deva"/>
    </contour>
    <contour>
      <point x="473.0" y="696.0" type="move" name="center_deva"/>
    </contour>
    <contour>
      <point x="686.0" y="696.0" type="move" name="top_deva"/>
    </contour>
  </outline>
</glyph>
<glyph name="dvTHA" format="1">
  <advance width="689"/>
  <unicode hex="0925"/>
  <outline>
    <contour>
      <point x="524" y="0" type="line"/>
      <point x="545" y="0" type="line"/>
      <point x="545" y="679" type="line"/>
      <point x="709" y="679" type="line"/>
      <point x="709" y="698" type="line"/>
      <point x="524" y="698" type="line"/>
      <point x="524" y="339" type="line" smooth="yes"/>
      <point x="524" y="245"/>
      <point x="427" y="175"/>
      <point x="298" y="175" type="curve" smooth="yes"/>
      <point x="172" y="175"/>
      <point x="109" y="241"/>
      <point x="109" y="354" type="curve" smooth="yes"/>
      <point x="109" y="420" type="line"/>
      <point x="196" y="420" type="line" smooth="yes"/>
      <point x="294" y="420"/>
      <point x="344" y="471"/>
      <point x="344" y="567" type="curve" smooth="yes"/>
      <point x="344" y="655"/>
      <point x="292" y="699"/>
      <point x="224" y="699" type="curve" smooth="yes" name="hr01"/>
      <point x="165" y="699"/>
      <point x="123" y="665"/>
      <point x="104" y="602" type="curve"/>
      <point x="124" y="596" type="line"/>
      <point x="140" y="654"/>
      <point x="177" y="680"/>
      <point x="225" y="680" type="curve" smooth="yes"/>
      <point x="279" y="680"/>
      <point x="322" y="642"/>
      <point x="322" y="572" type="curve" smooth="yes"/>
      <point x="322" y="559" type="line" smooth="yes"/>
      <point x="322" y="487"/>
      <point x="287" y="439"/>
      <point x="191" y="439" type="curve" smooth="yes"/>
      <point x="88" y="439" type="line"/>
      <point x="88" y="358" type="line" smooth="yes"/>
      <point x="88" y="226"/>
      <point x="165" y="156"/>
      <point x="296" y="156" type="curve" smooth="yes"/>
      <point x="411" y="156"/>
      <point x="483" y="202"/>
      <point x="521" y="260" type="curve"/>
      <point x="524" y="260" type="line"/>
    </contour>
    <contour>
      <point x="545.0" y="0.0" type="move" name="bottom_deva"/>
    </contour>
    <contour>
      <point x="419.0" y="696.0" type="move" name="center_deva"/>
    </contour>
    <contour>
      <point x="545.0" y="696.0" type="move" name="top_deva"/>
    </contour>
  </outline>
</glyph>
<glyph name="dvRA" format="1">
  <advance width="437"/>
  <unicode hex="0930"/>
  <outline>
    <contour>
      <point x="316" y="13" type="line" name="hr00"/>
      <point x="332" y="25" type="line"/>
      <point x="110" y="325" type="line"/>
      <point x="110" y="328" type="line"/>
      <point x="129" y="328" type="line" smooth="yes"/>
      <point x="279" y="328"/>
      <point x="314" y="389"/>
      <point x="314" y="519" type="curve" smooth="yes"/>
      <point x="314" y="679" type="line"/>
      <point x="457" y="679" type="line"/>
      <point x="457" y="698" type="line"/>
      <point x="-20" y="698" type="line"/>
      <point x="-20" y="679" type="line"/>
      <point x="293" y="679" type="line"/>
      <point x="293" y="508" type="line" smooth="yes"/>
      <point x="293" y="396"/>
      <point x="259" y="347"/>
      <point x="132" y="347" type="curve" smooth="yes"/>
      <point x="82" y="347" type="line"/>
      <point x="82" y="330" type="line"/>
    </contour>
    <contour>
      <point x="233.0" y="0.0" type="move" name="bottom_deva"/>
    </contour>
    <contour>
      <point x="273.0" y="696.0" type="move" name="center_deva"/>
    </contour>
    <contour>
      <point x="314.0" y="696.0" type="move" name="top_deva"/>
    </contour>
  </outline>
</glyph>
<glyph name="dvLA" format="1">
  <advance width="830"/>
  <unicode hex="0932"/>
  <outline>
    <contour>
      <point x="665" y="0" type="line" name="hr00"/>
      <point x="686" y="0" type="line"/>
      <point x="686" y="679" type="line"/>
      <point x="850" y="679" type="line"/>
      <point x="850" y="698" type="line"/>
      <point x="-20" y="698" type="line"/>
      <point x="-20" y="679" type="line"/>
      <point x="665" y="679" type="line"/>
      <point x="665" y="450" type="line"/>
      <point x="666" y="385" type="line"/>
      <point x="664" y="385" type="line"/>
      <point x="645" y="422"/>
      <point x="604" y="465"/>
      <point x="533" y="465" type="curve" smooth="yes"/>
      <point x="456" y="465"/>
      <point x="409" y="408"/>
      <point x="393" y="333" type="curve"/>
      <point x="391" y="333" type="line"/>
      <point x="376" y="409"/>
      <point x="323" y="465"/>
      <point x="238" y="465" type="curve" smooth="yes"/>
      <point x="150" y="465"/>
      <point x="88" y="395"/>
      <point x="88" y="271" type="curve" smooth="yes"/>
      <point x="88" y="112"/>
      <point x="150" y="29"/>
      <point x="302" y="14" type="curve"/>
      <point x="305" y="33" type="line"/>
      <point x="156" y="46"/>
      <point x="110" y="131"/>
      <point x="110" y="256" type="curve" smooth="yes"/>
      <point x="110" y="283" type="line" smooth="yes"/>
      <point x="110" y="381"/>
      <point x="164" y="445"/>
      <point x="239" y="445" type="curve" smooth="yes"/>
      <point x="323" y="445"/>
      <point x="382" y="379"/>
      <point x="382" y="273" type="curve" smooth="yes"/>
      <point x="382" y="186" type="line"/>
      <point x="403" y="186" type="line"/>
      <point x="403" y="271" type="line" smooth="yes"/>
      <point x="403" y="377"/>
      <point x="459" y="445"/>
      <point x="533" y="445" type="curve" smooth="yes"/>
      <point x="622" y="445"/>
      <point x="665" y="371"/>
      <point x="665" y="321" type="curve" smooth="yes"/>
    </contour>
    <contour>
      <point x="686.0" y="0.0" type="move" name="bottom_deva"/>
    </contour>
    <contour>
      <point x="393.0" y="696.0" type="move" name="center_deva"/>
    </contour>
    <contour>
      <point x="686.0" y="696.0" type="move" name="top_deva"/>
    </contour>
  </outline>
</glyph>
<glyph name="dvLLxA" format="1">
  <advance width="839"/>
  <unicode hex="0934"/>
  <outline>
    <component base="dvLLA"/>
    <component base="dvNukta" xOffset="302" yOffset="-30"/>
    <contour>
      <point x="608.0" y="65.0" type="move" name="bottom_deva"/>
    </contour>
    <contour>
      <point x="432.0" y="696.0" type="move" name="center_deva"/>
    </contour>
    <contour>
      <point x="606.0" y="696.0" type="move" name="top_deva"/>
    </contour>
  </outline>
</glyph>
<glyph name="dvVA" format="1">
  <advance width="617"/>
  <unicode hex="0935"/>
  <outline>
    <contour>
      <point x="452" y="0" type="line" name="hr00"/>
      <point x="473" y="0" type="line"/>
      <point x="473" y="679" type="line"/>
      <point x="637" y="679" type="line"/>
      <point x="637" y="698" type="line"/>
      <point x="-20" y="698" type="line"/>
      <point x="-20" y="679" type="line"/>
      <point x="452" y="679" type="line"/>
      <point x="452" y="402" type="line"/>
      <point x="449" y="402" type="line"/>
      <point x="419" y="442"/>
      <point x="360" y="490"/>
      <point x="260" y="490" type="curve" smooth="yes"/>
      <point x="150" y="490"/>
      <point x="77" y="420"/>
      <point x="77" y="313" type="curve" smooth="yes"/>
      <point x="77" y="200"/>
      <point x="164" y="136"/>
      <point x="266" y="136" type="curve" smooth="yes"/>
      <point x="366" y="136"/>
      <point x="424" y="184"/>
      <point x="449" y="223" type="curve"/>
      <point x="452" y="223" type="line"/>
    </contour>
    <contour>
      <point x="267" y="155" type="curve" smooth="yes"/>
      <point x="168" y="155"/>
      <point x="100" y="218"/>
      <point x="100" y="301" type="curve" smooth="yes"/>
      <point x="100" y="325" type="line" smooth="yes"/>
      <point x="100" y="405"/>
      <point x="162" y="471"/>
      <point x="261" y="471" type="curve" smooth="yes"/>
      <point x="368" y="471"/>
      <point x="453" y="400"/>
      <point x="453" y="340" type="curve" smooth="yes"/>
      <point x="453" y="289" type="line" smooth="yes"/>
      <point x="453" y="222"/>
      <point x="373" y="155"/>
    </contour>
    <contour>
      <point x="473.0" y="0.0" type="move" name="bottom_deva"/>
    </contour>
    <contour>
      <point x="286.0" y="696.0" type="move" name="center_deva"/>
    </contour>
    <contour>
      <point x="473.0" y="696.0" type="move" name="top_deva"/>
    </contour>
  </outline>
</glyph>
<glyph name="dvSA" format="1">
  <advance width="687"/>
  <unicode hex="0938"/>
  <outline>
    <contour>
      <point x="285" y="-2" type="line" name="hr00"/>
      <point x="301" y="10" type="line"/>
      <point x="154" y="239" type="line"/>
      <point x="91" y="335" type="line"/>
      <point x="91" y="337" type="line"/>
      <point x="522" y="337" type="line"/>
      <point x="522" y="0" type="line"/>
      <point x="543" y="0" type="line"/>
      <point x="543" y="679" type="line"/>
      <point x="707" y="679" type="line"/>
      <point x="707" y="698" type="line"/>
      <point x="-20" y="698" type="line"/>
      <point x="-20" y="679" type="line"/>
      <point x="239" y="679" type="line"/>
      <point x="239" y="511" type="line" smooth="yes"/>
      <point x="239" y="405"/>
      <point x="175" y="357"/>
      <point x="67" y="357" type="curve" smooth="yes"/>
      <point x="65" y="357" type="line"/>
      <point x="65" y="339" type="line"/>
    </contour>
    <contour>
      <point x="160" y="356" type="line"/>
      <point x="217" y="375"/>
      <point x="260" y="420"/>
      <point x="260" y="516" type="curve" smooth="yes"/>
      <point x="260" y="679" type="line"/>
      <point x="522" y="679" type="line"/>
      <point x="522" y="356" type="line"/>
      <point x="282" y="356" type="line"/>
      <point x="160" y="355" type="line"/>
    </contour>
    <contour>
      <point x="543.0" y="0.0" type="move" name="bottom_deva"/>
    </contour>
    <contour>
      <point x="396.0" y="696.0" type="move" name="center_deva"/>
    </contour>
    <contour>
      <point x="543.0" y="696.0" type="move" name="top_deva"/>
    </contour>
  </outline>
</glyph>
<glyph name="dvHA" format="1">
  <advance width="567"/>
  <unicode hex="0939"/>
  <outline>
    <contour>
      <point x="371" y="-81" type="curve" smooth="yes"/>
      <point x="445" y="-81" type="line"/>
      <point x="445" y="-63" type="line"/>
      <point x="372" y="-63" type="line" smooth="yes"/>
      <point x="220" y="-63"/>
      <point x="143" y="9"/>
      <point x="143" y="109" type="curve" smooth="yes"/>
      <point x="143" y="135" type="line" smooth="yes"/>
      <point x="143" y="216"/>
      <point x="192" y="294"/>
      <point x="311" y="294" type="curve" smooth="yes"/>
      <point x="408" y="294"/>
      <point x="470" y="238"/>
      <point x="470" y="152" type="curve" smooth="yes"/>
      <point x="470" y="110" type="line"/>
      <point x="490" y="110" type="line"/>
      <point x="490" y="152" type="line" smooth="yes"/>
      <point x="490" y="247"/>
      <point x="421" y="313"/>
      <point x="311" y="313" type="curve" smooth="yes"/>
      <point x="267" y="313"/>
      <point x="231" y="304"/>
      <point x="203" y="287" type="curve"/>
      <point x="159" y="316"/>
      <point x="134" y="356"/>
      <point x="134" y="402" type="curve" smooth="yes" name="hr01"/>
      <point x="134" y="456"/>
      <point x="168" y="487"/>
      <point x="233" y="487" type="curve" smooth="yes"/>
      <point x="439" y="487" type="line"/>
      <point x="439" y="679" type="line"/>
      <point x="587" y="679" type="line"/>
      <point x="587" y="698" type="line"/>
      <point x="-20" y="698" type="line"/>
      <point x="-20" y="679" type="line"/>
      <point x="418" y="679" type="line"/>
      <point x="418" y="507" type="line"/>
      <point x="230" y="507" type="line" smooth="yes"/>
      <point x="154" y="507"/>
      <point x="112" y="467"/>
      <point x="112" y="405" type="curve" smooth="yes"/>
      <point x="112" y="353"/>
      <point x="139" y="312"/>
      <point x="185" y="277" type="curve"/>
      <point x="185" y="276" type="line"/>
      <point x="141" y="242"/>
      <point x="121" y="187"/>
      <point x="121" y="122" type="curve" smooth="yes" name="hr02"/>
      <point x="121" y="-15"/>
      <point x="224" y="-81"/>
    </contour>
    <contour>
      <point x="390.0" y="-77.0" type="move" name="bottom_deva"/>
    </contour>
    <contour>
      <point x="307.0" y="696.0" type="move" name="center_deva"/>
    </contour>
    <contour>
      <point x="439.0" y="696.0" type="move" name="top_deva"/>
    </contour>
  </outline>
</glyph>
<glyph name="dvAvagraha" format="1">
  <advance width="581"/>
  <unicode hex="093D"/>
  <outline>
    <contour>
      <point x="306" y="53" type="curve" smooth="yes" name="hr00"/>
      <point x="423" y="53"/>
      <point x="489" y="113"/>
      <point x="489" y="216" type="curve" smooth="yes"/>
      <point x="489" y="305"/>
      <point x="434" y="358"/>
      <point x="326" y="412" type="curve" smooth="yes"/>
      <point x="284" y="433" type="line" smooth="yes"/>
      <point x="196" y="477"/>
      <point x="164" y="515"/>
      <point x="164" y="566" type="curve" smooth="yes"/>
      <point x="164" y="585" type="line" smooth="yes"/>
      <point x="164" y="640"/>
      <point x="206" y="679"/>
      <point x="286" y="679" type="curve" smooth="yes"/>
      <point x="473" y="679" type="line"/>
      <point x="473" y="698" type="line"/>
      <point x="290" y="698" type="line" smooth="yes"/>
      <point x="190" y="698"/>
      <point x="142" y="653"/>
      <point x="142" y="575" type="curve" smooth="yes"/>
      <point x="142" y="505"/>
      <point x="179" y="463"/>
      <point x="282" y="411" type="curve" smooth="yes"/>
      <point x="320" y="392" type="line" smooth="yes"/>
      <point x="417" y="344"/>
      <point x="467" y="287"/>
      <point x="467" y="224" type="curve" smooth="yes"/>
      <point x="467" y="208" type="line" smooth="yes"/>
      <point x="467" y="129"/>
      <point x="413" y="74"/>
      <point x="307" y="74" type="curve" smooth="yes"/>
      <point x="222" y="74"/>
      <point x="157" y="93"/>
      <point x="93" y="128" type="curve"/>
      <point x="85" y="109" type="line"/>
      <point x="159" y="72"/>
      <point x="222" y="53"/>
    </contour>
  </outline>
</glyph>
<glyph name="dvmUU" format="1">
  <advance width="0"/>
  <unicode hex="0942"/>
  <outline>
    <contour>
      <point x="-187" y="-228" type="curve" smooth="yes" name="hr00"/>
      <point x="-125" y="-228" type="line"/>
      <point x="-125" y="-210" type="line"/>
      <point x="-186" y="-210" type="line" smooth="yes"/>
      <point x="-258" y="-210"/>
      <point x="-294" y="-180"/>
      <point x="-294" y="-113" type="curve" smooth="yes"/>
      <point x="-294" y="-57"/>
      <point x="-265" y="-14"/>
      <point x="-181" y="-14" type="curve" smooth="yes"/>
      <point x="-144" y="-14" type="line" smooth="yes"/>
      <point x="-67" y="-14"/>
      <point x="-6" y="-68"/>
      <point x="59" y="-222" type="curve"/>
      <point x="75" y="-215" type="line"/>
      <point x="10" y="-54"/>
      <point x="-58" y="4"/>
      <point x="-148" y="4" type="curve" smooth="yes"/>
      <point x="-183" y="4" type="line" smooth="yes"/>
      <point x="-272" y="4"/>
      <point x="-314" y="-45"/>
      <point x="-314" y="-113" type="curve" smooth="yes"/>
      <point x="-314" y="-191"/>
      <point x="-265" y="-228"/>
    </contour>
    <contour>
      <point x="-145.0" y="0.0" type="move" name="_bottom_deva"/>
    </contour>
  </outline>
</glyph>
<glyph name="dvmvR" format="1">
  <advance width="0"/>
  <unicode hex="0943"/>
  <outline>
    <contour>
      <point x="-178" y="-236" type="curve" smooth="yes" name="hr00"/>
      <point x="-117" y="-236" type="line"/>
      <point x="-117" y="-219" type="line"/>
      <point x="-179" y="-219" type="line" smooth="yes"/>
      <point x="-262" y="-219"/>
      <point x="-299" y="-180"/>
      <point x="-299" y="-123" type="curve" smooth="yes"/>
      <point x="-299" y="-111" type="line" smooth="yes"/>
      <point x="-299" y="-51"/>
      <point x="-260" y="-14"/>
      <point x="-192" y="-14" type="curve" smooth="yes"/>
      <point x="-144" y="-14" type="line"/>
      <point x="-144" y="3" type="line"/>
      <point x="-193" y="3" type="line" smooth="yes"/>
      <point x="-271" y="3"/>
      <point x="-320" y="-40"/>
      <point x="-320" y="-115" type="curve" smooth="yes"/>
      <point x="-320" y="-191"/>
      <point x="-273" y="-236"/>
    </contour>
    <contour>
      <point x="-144.0" y="0.0" type="move" name="_bottom_deva"/>
    </contour>
  </outline>
</glyph>
<glyph name="dvVirama" format="1">
  <advance width="0"/>
  <unicode hex="094D"/>
  <outline>
    <contour>
      <point x="-14" y="-230" type="line" name="hr00"/>
      <point x="-2" y="-217" type="line"/>
      <point x="-124" y="-110" type="line" smooth="yes"/>
      <point x="-135" y="-100"/>
      <point x="-138" y="-98"/>
      <point x="-154" y="-98" type="curve"/>
      <point x="-215" y="-98" type="line"/>
      <point x="-215" y="-116" type="line"/>
      <point x="-144" y="-116" type="line"/>
    </contour>
    <contour>
      <point x="-144.0" y="0.0" type="move" name="_bottom_deva"/>
    </contour>
  </outline>
</glyph>
<glyph name="dvDDHxA" format="1">
  <advance width="607"/>
  <unicode hex="095D"/>
  <outline>
    <component base="dvDDHA"/>
    <component base="dvNukta" xOffset="205" yOffset="-89"/>
    <contour>
      <point x="335.0" y="-163.0" type="move" name="bottom_deva"/>
    </contour>
    <contour>
      <point x="355.0" y="696.0" type="move" name="center_deva"/>
    </contour>
    <contour>
      <point x="448.0" y="696.0" type="move" name="top_deva"/>
    </contour>
  </outline>
</glyph>
<glyph name="dvvRR" format="1">
  <advance width="864"/>
  <unicode hex="0960"/>
  <outline>
    <contour>
      <point x="137" y="105" type="line"/>
      <point x="366" y="248" type="line"/>
      <point x="437" y="296" type="line"/>
      <point x="438" y="296" type="line"/>
      <point x="436" y="166" type="line"/>
      <point x="436" y="0" type="line"/>
      <point x="457" y="0" type="line"/>
      <point x="457" y="166" type="line"/>
      <point x="456" y="309" type="line"/>
      <point x="618" y="414" type="line"/>
      <point x="687" y="459" type="line"/>
      <point x="688" y="458" type="line"/>
      <point x="683" y="444"/>
      <point x="677" y="421"/>
      <point x="677" y="395" type="curve" smooth="yes"/>
      <point x="677" y="337"/>
      <point x="705" y="292"/>
      <point x="755" y="274" type="curve"/>
      <point x="755" y="272" type="line"/>
      <point x="688" y="268"/>
      <point x="652" y="229"/>
      <point x="652" y="179" type="curve" smooth="yes"/>
      <point x="652" y="144"/>
      <point x="673" y="111"/>
      <point x="726" y="99" type="curve"/>
      <point x="726" y="97" type="line"/>
      <point x="688" y="89"/>
      <point x="655" y="63"/>
      <point x="655" y="17" type="curve" smooth="yes" name="hr01"/>
      <point x="655" y="-34"/>
      <point x="692" y="-66"/>
      <point x="765" y="-66" type="curve" smooth="yes"/>
      <point x="811" y="-66" type="line"/>
      <point x="811" y="-50" type="line"/>
      <point x="762" y="-50" type="line" smooth="yes"/>
      <point x="701" y="-50"/>
      <point x="674" y="-24"/>
      <point x="674" y="16" type="curve" smooth="yes"/>
      <point x="674" y="65"/>
      <point x="717" y="89"/>
      <point x="776" y="89" type="curve" smooth="yes"/>
      <point x="803" y="89" type="line"/>
      <point x="803" y="107" type="line"/>
      <point x="777" y="107" type="line" smooth="yes"/>
      <point x="701" y="107"/>
      <point x="671" y="140"/>
      <point x="671" y="178" type="curve" smooth="yes" name="hr02"/>
      <point x="671" y="225"/>
      <point x="702" y="260"/>
      <point x="795" y="260" type="curve" smooth="yes"/>
      <point x="811" y="260" type="line"/>
      <point x="811" y="279" type="line"/>
      <point x="804" y="279" type="line" smooth="yes"/>
      <point x="748" y="279"/>
      <point x="696" y="325"/>
      <point x="696" y="395" type="curve" smooth="yes"/>
      <point x="696" y="437"/>
      <point x="707" y="472"/>
      <point x="726" y="486" type="curve" smooth="yes"/>
      <point x="733" y="491" type="line"/>
      <point x="725" y="503" type="line"/>
      <point x="511" y="365" type="line"/>
      <point x="459" y="331" type="line"/>
      <point x="456" y="331" type="line"/>
      <point x="456" y="337" type="line"/>
      <point x="457" y="473" type="line"/>
      <point x="457" y="679" type="line"/>
      <point x="884" y="679" type="line"/>
      <point x="884" y="698" type="line"/>
      <point x="-20" y="698" type="line"/>
      <point x="-20" y="679" type="line"/>
      <point x="436" y="679" type="line"/>
      <point x="436" y="473" type="line"/>
      <point x="439" y="339" type="line"/>
      <point x="437" y="338" type="line"/>
      <point x="350" y="394" type="line"/>
      <point x="282" y="436" type="line" smooth="yes"/>
      <point x="248" y="457"/>
      <point x="229" y="465"/>
      <point x="202" y="465" type="curve" smooth="yes"/>
      <point x="180" y="465"/>
      <point x="158" y="457"/>
      <point x="115" y="430" type="curve" smooth="yes"/>
      <point x="46" y="386" type="line"/>
      <point x="58" y="369" type="line"/>
      <point x="125" y="413" type="line" smooth="yes"/>
      <point x="160" y="436"/>
      <point x="180" y="446"/>
      <point x="203" y="446" type="curve" smooth="yes"/>
      <point x="226" y="446"/>
      <point x="245" y="438"/>
      <point x="274" y="420" type="curve" smooth="yes"/>
      <point x="340" y="379" type="line"/>
      <point x="439" y="319" type="line"/>
      <point x="439" y="317" type="line"/>
      <point x="337" y="252" type="line"/>
      <point x="125" y="121" type="line"/>
    </contour>
    <contour>
      <point x="446.0" y="696.0" type="move" name="center_deva"/>
    </contour>
    <contour>
      <point x="457.0" y="696.0" type="move" name="top_deva"/>
    </contour>
  </outline>
</glyph>
<glyph name="dvmvL" format="1">
  <advance width="0"/>
  <unicode hex="0962"/>
  <outline>
    <contour>
      <point x="-8" y="-311" type="curve" smooth="yes" name="hr00"/>
      <point x="22" y="-311" type="line"/>
      <point x="22" y="-297" type="line"/>
      <point x="-6" y="-297" type="line" smooth="yes"/>
      <point x="-51" y="-297"/>
      <point x="-65" y="-280"/>
      <point x="-65" y="-260" type="curve" smooth="yes"/>
      <point x="-65" y="-241"/>
      <point x="-55" y="-228"/>
      <point x="-34" y="-212" type="curve" smooth="yes"/>
      <point x="4" y="-183"/>
      <point x="25" y="-161"/>
      <point x="25" y="-123" type="curve" smooth="yes"/>
      <point x="25" y="-73"/>
      <point x="-11" y="-42"/>
      <point x="-64" y="-42" type="curve" smooth="yes"/>
      <point x="-115" y="-42"/>
      <point x="-146" y="-76"/>
      <point x="-153" y="-113" type="curve"/>
      <point x="-155" y="-113" type="line"/>
      <point x="-163" y="-77"/>
      <point x="-189" y="-43"/>
      <point x="-244" y="-43" type="curve" smooth="yes"/>
      <point x="-294" y="-43"/>
      <point x="-333" y="-80"/>
      <point x="-333" y="-144" type="curve" smooth="yes"/>
      <point x="-333" y="-218"/>
      <point x="-288" y="-255"/>
      <point x="-213" y="-266" type="curve"/>
      <point x="-211" y="-252" type="line"/>
      <point x="-281" y="-242"/>
      <point x="-316" y="-206"/>
      <point x="-316" y="-152" type="curve" smooth="yes"/>
      <point x="-316" y="-143" type="line" smooth="yes"/>
      <point x="-316" y="-86"/>
      <point x="-282" y="-58"/>
      <point x="-243" y="-58" type="curve" smooth="yes"/>
      <point x="-193" y="-58"/>
      <point x="-162" y="-94"/>
      <point x="-162" y="-149" type="curve" smooth="yes"/>
      <point x="-162" y="-180" type="line"/>
      <point x="-145" y="-180" type="line"/>
      <point x="-145" y="-148" type="line" smooth="yes"/>
      <point x="-145" y="-91"/>
      <point x="-110" y="-57"/>
      <point x="-63" y="-57" type="curve" smooth="yes"/>
      <point x="-24" y="-57"/>
      <point x="10" y="-78"/>
      <point x="10" y="-123" type="curve" smooth="yes"/>
      <point x="10" y="-153"/>
      <point x="-5" y="-173"/>
      <point x="-35" y="-195" type="curve" smooth="yes"/>
      <point x="-63" y="-216"/>
      <point x="-80" y="-234"/>
      <point x="-80" y="-259" type="curve" smooth="yes"/>
      <point x="-80" y="-287"/>
      <point x="-59" y="-311"/>
    </contour>
    <contour>
      <point x="-144.0" y="0.0" type="move" name="_bottom_deva"/>
    </contour>
  </outline>
</glyph>
<glyph name="dvmvLL" format="1">
  <advance width="0"/>
  <unicode hex="0963"/>
  <outline>
    <contour>
      <point x="-6" y="-385" type="curve" smooth="yes"/>
      <point x="30" y="-385" type="line"/>
      <point x="30" y="-373" type="line"/>
      <point x="-6" y="-373" type="line" smooth="yes"/>
      <point x="-39" y="-373"/>
      <point x="-53" y="-361"/>
      <point x="-53" y="-339" type="curve" smooth="yes"/>
      <point x="-53" y="-318"/>
      <point x="-39" y="-304"/>
      <point x="-3" y="-304" type="curve" smooth="yes"/>
      <point x="22" y="-304" type="line"/>
      <point x="22" y="-292" type="line"/>
      <point x="-9" y="-292" type="line" smooth="yes"/>
      <point x="-49" y="-292"/>
      <point x="-64" y="-273"/>
      <point x="-64" y="-255" type="curve" smooth="yes" name="hr01"/>
      <point x="-64" y="-239"/>
      <point x="-55" y="-228"/>
      <point x="-34" y="-212" type="curve" smooth="yes"/>
      <point x="4" y="-183"/>
      <point x="25" y="-161"/>
      <point x="25" y="-123" type="curve" smooth="yes"/>
      <point x="25" y="-73"/>
      <point x="-11" y="-42"/>
      <point x="-64" y="-42" type="curve" smooth="yes"/>
      <point x="-115" y="-42"/>
      <point x="-146" y="-76"/>
      <point x="-153" y="-113" type="curve"/>
      <point x="-155" y="-113" type="line"/>
      <point x="-163" y="-77"/>
      <point x="-189" y="-43"/>
      <point x="-244" y="-43" type="curve" smooth="yes"/>
      <point x="-294" y="-43"/>
      <point x="-333" y="-80"/>
      <point x="-333" y="-144" type="curve" smooth="yes"/>
      <point x="-333" y="-218"/>
      <point x="-288" y="-255"/>
      <point x="-213" y="-266" type="curve"/>
      <point x="-211" y="-252" type="line"/>
      <point x="-281" y="-242"/>
      <point x="-316" y="-206"/>
      <point x="-316" y="-152" type="curve" smooth="yes"/>
      <point x="-316" y="-143" type="line" smooth="yes"/>
      <point x="-316" y="-86"/>
      <point x="-282" y="-58"/>
      <point x="-243" y="-58" type="curve" smooth="yes"/>
      <point x="-193" y="-58"/>
      <point x="-162" y="-94"/>
      <point x="-162" y="-149" type="curve" smooth="yes"/>
      <point x="-162" y="-180" type="line"/>
      <point x="-145" y="-180" type="line"/>
      <point x="-145" y="-148" type="line" smooth="yes"/>
      <point x="-145" y="-91"/>
      <point x="-110" y="-57"/>
      <point x="-63" y="-57" type="curve" smooth="yes"/>
      <point x="-24" y="-57"/>
      <point x="10" y="-78"/>
      <point x="10" y="-123" type="curve" smooth="yes"/>
      <point x="10" y="-153"/>
      <point x="-5" y="-172"/>
      <point x="-35" y="-195" type="curve" smooth="yes"/>
      <point x="-65" y="-218"/>
      <point x="-79" y="-232"/>
      <point x="-79" y="-255" type="curve" smooth="yes"/>
      <point x="-79" y="-274"/>
      <point x="-66" y="-291"/>
      <point x="-38" y="-299" type="curve"/>
      <point x="-38" y="-300" type="line"/>
      <point x="-56" y="-306"/>
      <point x="-67" y="-320"/>
      <point x="-67" y="-339" type="curve" smooth="yes" name="hr02"/>
      <point x="-67" y="-366"/>
      <point x="-46" y="-385"/>
    </contour>
    <contour>
      <point x="-144.0" y="0.0" type="move" name="_bottom_deva"/>
    </contour>
  </outline>
</glyph>
<glyph name="dvAbbreviationsign" format="1">
  <advance width="486"/>
  <unicode hex="0970"/>
  <outline>
    <contour>
      <point x="243" y="151" type="curve" smooth="yes" name="hr00"/>
      <point x="339" y="151"/>
      <point x="412" y="213"/>
      <point x="412" y="317" type="curve" smooth="yes"/>
      <point x="412" y="421"/>
      <point x="339" y="483"/>
      <point x="243" y="483" type="curve" smooth="yes"/>
      <point x="147" y="483"/>
      <point x="74" y="421"/>
      <point x="74" y="317" type="curve" smooth="yes"/>
      <point x="74" y="213"/>
      <point x="147" y="151"/>
    </contour>
    <contour>
      <point x="243" y="169" type="curve" smooth="yes"/>
      <point x="158" y="169"/>
      <point x="96" y="224"/>
      <point x="96" y="304" type="curve" smooth="yes"/>
      <point x="96" y="330" type="line" smooth="yes"/>
      <point x="96" y="410"/>
      <point x="158" y="465"/>
      <point x="243" y="465" type="curve" smooth="yes"/>
      <point x="328" y="465"/>
      <point x="390" y="410"/>
      <point x="390" y="330" type="curve" smooth="yes"/>
      <point x="390" y="304" type="line" smooth="yes"/>
      <point x="390" y="224"/>
      <point x="328" y="169"/>
    </contour>
  </outline>
</glyph>
<glyph name="zerowidthjoiner" format="1">
  <advance width="0"/>
  <unicode hex="200D"/>
  <outline>
    <contour>
      <point x="-9" y="-363" type="line" name="hr00"/>
      <point x="9" y="-363" type="line"/>
      <point x="9" y="716" type="line"/>
      <point x="85" y="644" type="line"/>
      <point x="97" y="655" type="line"/>
      <point x="12" y="736" type="line"/>
      <point x="97" y="817" type="line"/>
      <point x="85" y="828" type="line"/>
      <point x="0" y="747" type="line"/>
      <point x="-85" y="828" type="line"/>
      <point x="-97" y="817" type="line"/>
      <point x="-12" y="736" type="line"/>
      <point x="-97" y="655" type="line"/>
      <point x="-85" y="644" type="line"/>
      <point x="-9" y="716" type="line"/>
    </contour>
  </outline>
</glyph>
<glyph name="emdash" format="1">
  <advance width="780"/>
  <unicode hex="2014"/>
  <outline>
    <contour>
      <point x="744" y="296" type="line" name="hr00"/>
      <point x="744" y="314" type="line"/>
      <point x="36" y="314" type="line"/>
      <point x="36" y="296" type="line"/>
    </contour>
  </outline>
</glyph>
<glyph name="quotesinglbase" format="1">
  <advance width="240"/>
  <unicode hex="201A"/>
  <outline>
    <contour>
      <point x="122" y="66" type="curve" smooth="yes" name="hr00"/>
      <point x="102" y="66"/>
      <point x="94" y="55"/>
      <point x="94" y="40" type="curve" smooth="yes"/>
      <point x="94" y="31" type="line" smooth="yes"/>
      <point x="94" y="19"/>
      <point x="102" y="8"/>
      <point x="126" y="8" type="curve"/>
      <point x="122" y="-29"/>
      <point x="103" y="-84"/>
      <point x="52" y="-134" type="curve"/>
      <point x="71" y="-134" type="line"/>
      <point x="114" y="-94"/>
      <point x="148" y="-27"/>
      <point x="148" y="28" type="curve" smooth="yes"/>
      <point x="148" y="40" type="line" smooth="yes"/>
      <point x="148" y="55"/>
      <point x="140" y="66"/>
    </contour>
  </outline>
</glyph>
<glyph name="dvBH" format="1">
  <advance width="359"/>
  <outline>
    <contour>
      <point x="153" y="288" type="curve" smooth="yes" name="hr00"/>
      <point x="159" y="288"/>
      <point x="165" y="289"/>
      <point x="169" y="291" type="curve"/>
      <point x="169" y="335" type="line"/>
      <point x="494" y="335" type="line"/>
      <point x="494" y="354" type="line"/>
      <point x="169" y="354" type="line"/>
      <point x="169" y="675" type="line" smooth="yes"/>
      <point x="169" y="692"/>
      <point x="161" y="698"/>
      <point x="147" y="698" type="curve" smooth="yes"/>
      <point x="-20" y="698" type="line"/>
      <point x="-20" y="679" type="line"/>
      <point x="148" y="679" type="line"/>
      <point x="148" y="353" type="line"/>
      <point x="132" y="350"/>
      <point x="123" y="337"/>
      <point x="123" y="321" type="curve" smooth="yes"/>
      <point x="123" y="302"/>
      <point x="133" y="288"/>
    </contour>
  </outline>
</glyph>
<glyph name="dvBH_R_YA" format="1">
  <advance width="1077"/>
  <outline>
    <contour>
      <point x="247" y="-18" type="line" name="hr00"/>
      <point x="409" y="204" type="line"/>
      <point x="486" y="311" type="line"/>
      <point x="488" y="311" type="line"/>
      <point x="506" y="220"/>
      <point x="573" y="162"/>
      <point x="691" y="162" type="curve" smooth="yes"/>
      <point x="809" y="162"/>
      <point x="877" y="218"/>
      <point x="909" y="266" type="curve"/>
      <point x="912" y="266" type="line"/>
      <point x="912" y="0" type="line"/>
      <point x="933" y="0" type="line"/>
      <point x="933" y="679" type="line"/>
      <point x="1097" y="679" type="line"/>
      <point x="1097" y="698" type="line"/>
      <point x="403" y="698" type="line"/>
      <point x="403" y="679" type="line"/>
      <point x="654" y="679" type="line"/>
      <point x="654" y="540" type="line" smooth="yes"/>
      <point x="654" y="455"/>
      <point x="627" y="426"/>
      <point x="536" y="426" type="curve" smooth="yes"/>
      <point x="484" y="426" type="line"/>
      <point x="484" y="354" type="line"/>
      <point x="169" y="354" type="line"/>
      <point x="169" y="675" type="line" smooth="yes"/>
      <point x="169" y="692"/>
      <point x="161" y="698"/>
      <point x="147" y="698" type="curve" smooth="yes"/>
      <point x="-20" y="698" type="line"/>
      <point x="-20" y="679" type="line"/>
      <point x="148" y="679" type="line"/>
      <point x="148" y="353" type="line"/>
      <point x="132" y="350"/>
      <point x="123" y="337"/>
      <point x="123" y="321" type="curve" smooth="yes"/>
      <point x="123" y="302"/>
      <point x="133" y="288"/>
      <point x="153" y="288" type="curve" smooth="yes"/>
      <point x="159" y="288"/>
      <point x="165" y="289"/>
      <point x="169" y="291" type="curve"/>
      <point x="169" y="335" type="line"/>
      <point x="480" y="335" type="line"/>
      <point x="480" y="333" type="line"/>
      <point x="449" y="290" type="line"/>
      <point x="231" y="-7" type="line"/>
    </contour>
    <contour>
      <point x="691" y="181" type="curve" smooth="yes"/>
      <point x="569" y="181"/>
      <point x="505" y="248"/>
      <point x="505" y="356" type="curve" smooth="yes"/>
      <point x="505" y="407" type="line"/>
      <point x="539" y="407" type="line" smooth="yes"/>
      <point x="636" y="407"/>
      <point x="675" y="444"/>
      <point x="675" y="536" type="curve" smooth="yes"/>
      <point x="675" y="679" type="line"/>
      <point x="912" y="679" type="line"/>
      <point x="912" y="340" type="line" smooth="yes"/>
      <point x="912" y="262"/>
      <point x="825" y="181"/>
    </contour>
    <contour>
      <point x="933.0" y="0.0" type="move" name="bottom_deva"/>
    </contour>
    <contour>
      <point x="796.0" y="696.0" type="move" name="center_deva"/>
    </contour>
    <contour>
      <point x="933.0" y="696.0" type="move" name="top_deva"/>
    </contour>
  </outline>
</glyph>
<glyph name="dvBH_VA" format="1">
  <advance width="1015"/>
  <outline>
    <contour>
      <point x="428" y="679" type="line" name="hr00"/>
      <point x="850" y="679" type="line"/>
      <point x="850" y="402" type="line"/>
      <point x="847" y="402" type="line"/>
      <point x="817" y="442"/>
      <point x="758" y="490"/>
      <point x="657" y="490" type="curve" smooth="yes"/>
      <point x="561" y="490"/>
      <point x="495" y="435"/>
      <point x="480" y="354" type="curve"/>
      <point x="169" y="354" type="line"/>
      <point x="169" y="675" type="line" smooth="yes"/>
      <point x="169" y="692"/>
      <point x="161" y="698"/>
      <point x="147" y="698" type="curve" smooth="yes"/>
      <point x="-20" y="698" type="line"/>
      <point x="-20" y="679" type="line"/>
      <point x="148" y="679" type="line"/>
      <point x="148" y="353" type="line"/>
      <point x="132" y="350"/>
      <point x="123" y="337"/>
      <point x="123" y="321" type="curve" smooth="yes"/>
      <point x="123" y="302"/>
      <point x="133" y="288"/>
      <point x="153" y="288" type="curve" smooth="yes"/>
      <point x="159" y="288"/>
      <point x="165" y="289"/>
      <point x="169" y="291" type="curve"/>
      <point x="169" y="335" type="line"/>
      <point x="477" y="335" type="line"/>
      <point x="476" y="328"/>
      <point x="476" y="321"/>
      <point x="476" y="313" type="curve" smooth="yes"/>
      <point x="476" y="199"/>
      <point x="562" y="136"/>
      <point x="664" y="136" type="curve" smooth="yes"/>
      <point x="764" y="136"/>
      <point x="822" y="184"/>
      <point x="847" y="223" type="curve"/>
      <point x="850" y="223" type="line"/>
      <point x="850" y="0" type="line"/>
      <point x="871" y="0" type="line"/>
      <point x="871" y="679" type="line"/>
      <point x="1035" y="679" type="line"/>
      <point x="1035" y="698" type="line"/>
      <point x="428" y="698" type="line"/>
    </contour>
    <contour>
      <point x="665" y="155" type="curve" smooth="yes"/>
      <point x="566" y="155"/>
      <point x="498" y="218"/>
      <point x="498" y="301" type="curve" smooth="yes"/>
      <point x="498" y="325" type="line" smooth="yes"/>
      <point x="498" y="405"/>
      <point x="560" y="471"/>
      <point x="659" y="471" type="curve" smooth="yes"/>
      <point x="766" y="471"/>
      <point x="851" y="400"/>
      <point x="851" y="340" type="curve" smooth="yes"/>
      <point x="851" y="289" type="line" smooth="yes"/>
      <point x="851" y="222"/>
      <point x="771" y="155"/>
    </contour>
    <contour>
      <point x="871.0" y="0.0" type="move" name="bottom_deva"/>
    </contour>
    <contour>
      <point x="684.0" y="696.0" type="move" name="center_deva"/>
    </contour>
    <contour>
      <point x="871.0" y="696.0" type="move" name="top_deva"/>
    </contour>
  </outline>
</glyph>
<glyph name="dvB" format="1">
  <advance width="319"/>
  <outline>
    <contour>
      <point x="-20" y="679" type="line" name="hr00"/>
      <point x="388" y="679" type="line"/>
      <point x="388" y="698" type="line"/>
      <point x="-20" y="698" type="line"/>
    </contour>
    <contour>
      <point x="265" y="132" type="curve" smooth="yes"/>
      <point x="382" y="132"/>
      <point x="460" y="207"/>
      <point x="460" y="312" type="curve" smooth="yes"/>
      <point x="460" y="411"/>
      <point x="381" y="489"/>
      <point x="266" y="489" type="curve" smooth="yes"/>
      <point x="149" y="489"/>
      <point x="74" y="412"/>
      <point x="74" y="313" type="curve" smooth="yes"/>
      <point x="74" y="209"/>
      <point x="151" y="132"/>
    </contour>
    <contour>
      <point x="366" y="243" type="line"/>
      <point x="199" y="399" type="line"/>
      <point x="157" y="439" type="line"/>
      <point x="164" y="444"/>
      <point x="172" y="448"/>
      <point x="179" y="452" type="curve" smooth="yes"/>
      <point x="203" y="464"/>
      <point x="233" y="470"/>
      <point x="266" y="470" type="curve" smooth="yes"/>
      <point x="374" y="470"/>
      <point x="439" y="395"/>
      <point x="439" y="321" type="curve" smooth="yes"/>
      <point x="439" y="301" type="line" smooth="yes"/>
      <point x="439" y="264"/>
      <point x="425" y="231"/>
      <point x="405" y="206" type="curve"/>
    </contour>
    <contour>
      <point x="266" y="151" type="curve" smooth="yes"/>
      <point x="164" y="151"/>
      <point x="96" y="216"/>
      <point x="96" y="303" type="curve" smooth="yes"/>
      <point x="96" y="323" type="line" smooth="yes"/>
      <point x="96" y="368"/>
      <point x="116" y="404"/>
      <point x="143" y="428" type="curve"/>
      <point x="185" y="387" type="line"/>
      <point x="355" y="227" type="line"/>
      <point x="392" y="193" type="line"/>
      <point x="385" y="186"/>
      <point x="376" y="180"/>
      <point x="367" y="175" type="curve" smooth="yes"/>
      <point x="336" y="158"/>
      <point x="304" y="151"/>
    </contour>
  </outline>
</glyph>
<glyph name="dvB_BA" format="1">
  <advance width="986"/>
  <outline>
    <contour>
      <point x="-20" y="679" type="line" name="hr00"/>
      <point x="821" y="679" type="line"/>
      <point x="821" y="404" type="line"/>
      <point x="818" y="404" type="line"/>
      <point x="787" y="445"/>
      <point x="727" y="489"/>
      <point x="633" y="489" type="curve" smooth="yes"/>
      <point x="540" y="489"/>
      <point x="477" y="441"/>
      <point x="452" y="370" type="curve"/>
      <point x="449" y="370" type="line"/>
      <point x="423" y="442"/>
      <point x="356" y="489"/>
      <point x="266" y="489" type="curve" smooth="yes"/>
      <point x="149" y="489"/>
      <point x="74" y="412"/>
      <point x="74" y="313" type="curve" smooth="yes"/>
      <point x="74" y="209"/>
      <point x="151" y="132"/>
      <point x="265" y="132" type="curve" smooth="yes"/>
      <point x="359" y="132"/>
      <point x="425" y="179"/>
      <point x="450" y="254" type="curve"/>
      <point x="453" y="254" type="line"/>
      <point x="477" y="180"/>
      <point x="544" y="132"/>
      <point x="633" y="132" type="curve" smooth="yes"/>
      <point x="725" y="132"/>
      <point x="787" y="180"/>
      <point x="818" y="226" type="curve"/>
      <point x="821" y="226" type="line"/>
      <point x="821" y="0" type="line"/>
      <point x="842" y="0" type="line"/>
      <point x="842" y="679" type="line"/>
      <point x="1006" y="679" type="line"/>
      <point x="1006" y="698" type="line"/>
      <point x="-20" y="698" type="line"/>
    </contour>
    <contour>
      <point x="366" y="243" type="line"/>
      <point x="199" y="399" type="line"/>
      <point x="157" y="439" type="line"/>
      <point x="164" y="444"/>
      <point x="172" y="448"/>
      <point x="179" y="452" type="curve" smooth="yes"/>
      <point x="203" y="464"/>
      <point x="232" y="470"/>
      <point x="266" y="470" type="curve" smooth="yes"/>
      <point x="372" y="470"/>
      <point x="440" y="395"/>
      <point x="440" y="323" type="curve" smooth="yes"/>
      <point x="440" y="304" type="line" smooth="yes"/>
      <point x="440" y="266"/>
      <point x="426" y="232"/>
      <point x="405" y="206" type="curve"/>
    </contour>
    <contour>
      <point x="734" y="243" type="line"/>
      <point x="567" y="399" type="line"/>
      <point x="525" y="439" type="line"/>
      <point x="531" y="443"/>
      <point x="537" y="447"/>
      <point x="543" y="450" type="curve" smooth="yes"/>
      <point x="571" y="463"/>
      <point x="602" y="470"/>
      <point x="634" y="470" type="curve" smooth="yes"/>
      <point x="741" y="470"/>
      <point x="822" y="399"/>
      <point x="822" y="345" type="curve" smooth="yes"/>
      <point x="822" y="291" type="line" smooth="yes"/>
      <point x="822" y="262"/>
      <point x="803" y="229"/>
      <point x="776" y="203" type="curve"/>
    </contour>
    <contour>
      <point x="632" y="151" type="curve" smooth="yes"/>
      <point x="535" y="151"/>
      <point x="464" y="214"/>
      <point x="464" y="300" type="curve" smooth="yes"/>
      <point x="464" y="320" type="line" smooth="yes"/>
      <point x="464" y="368"/>
      <point x="485" y="404"/>
      <point x="511" y="428" type="curve"/>
      <point x="553" y="387" type="line"/>
      <point x="723" y="227" type="line"/>
      <point x="762" y="191" type="line"/>
      <point x="753" y="184"/>
      <point x="743" y="178"/>
      <point x="733" y="173" type="curve" smooth="yes"/>
      <point x="706" y="160"/>
      <point x="677" y="151"/>
    </contour>
    <contour>
      <point x="266" y="151" type="curve" smooth="yes"/>
      <point x="164" y="151"/>
      <point x="96" y="216"/>
      <point x="96" y="302" type="curve" smooth="yes"/>
      <point x="96" y="324" type="line" smooth="yes"/>
      <point x="96" y="369"/>
      <point x="116" y="404"/>
      <point x="143" y="428" type="curve"/>
      <point x="185" y="387" type="line"/>
      <point x="355" y="227" type="line"/>
      <point x="392" y="194" type="line"/>
      <point x="384" y="186"/>
      <point x="376" y="180"/>
      <point x="367" y="175" type="curve" smooth="yes"/>
      <point x="336" y="158"/>
      <point x="304" y="151"/>
    </contour>
    <contour>
      <point x="842.0" y="0.0" type="move" name="bottom_deva"/>
    </contour>
    <contour>
      <point x="658.0" y="696.0" type="move" name="center_deva"/>
    </contour>
    <contour>
      <point x="842.0" y="696.0" type="move" name="top_deva"/>
    </contour>
  </outline>
</glyph>
<glyph name="dvB_BH_RA" format="1">
  <advance width="935"/>
  <outline>
    <contour>
      <point x="265" y="132" type="curve" smooth="yes" name="hr00"/>
      <point x="374" y="132"/>
      <point x="449" y="197"/>
      <point x="459" y="290" type="curve"/>
      <point x="463" y="289"/>
      <point x="467" y="288"/>
      <point x="472" y="288" type="curve" smooth="yes"/>
      <point x="478" y="288"/>
      <point x="484" y="289"/>
      <point x="488" y="291" type="curve"/>
      <point x="488" y="335" type="line"/>
      <point x="770" y="335" type="line"/>
      <point x="770" y="273" type="line"/>
      <point x="478" y="-15" type="line"/>
      <point x="492" y="-28" type="line"/>
      <point x="687" y="165" type="line"/>
      <point x="769" y="248" type="line"/>
      <point x="770" y="248" type="line"/>
      <point x="770" y="0" type="line"/>
      <point x="791" y="0" type="line"/>
      <point x="791" y="679" type="line"/>
      <point x="955" y="679" type="line"/>
      <point x="955" y="698" type="line"/>
      <point x="770" y="698" type="line"/>
      <point x="770" y="354" type="line"/>
      <point x="488" y="354" type="line"/>
      <point x="488" y="675" type="line" smooth="yes"/>
      <point x="488" y="692"/>
      <point x="480" y="698"/>
      <point x="466" y="698" type="curve" smooth="yes"/>
      <point x="-20" y="698" type="line"/>
      <point x="-20" y="679" type="line"/>
      <point x="468" y="679" type="line"/>
      <point x="468" y="353" type="line"/>
      <point x="464" y="353"/>
      <point x="460" y="351"/>
      <point x="456" y="349" type="curve"/>
      <point x="439" y="430"/>
      <point x="366" y="489"/>
      <point x="266" y="489" type="curve" smooth="yes"/>
      <point x="149" y="489"/>
      <point x="74" y="412"/>
      <point x="74" y="313" type="curve" smooth="yes"/>
      <point x="74" y="209"/>
      <point x="151" y="132"/>
    </contour>
    <contour>
      <point x="366" y="243" type="line"/>
      <point x="199" y="399" type="line"/>
      <point x="157" y="439" type="line"/>
      <point x="164" y="444"/>
      <point x="172" y="448"/>
      <point x="179" y="452" type="curve" smooth="yes"/>
      <point x="203" y="464"/>
      <point x="232" y="470"/>
      <point x="266" y="470" type="curve" smooth="yes"/>
      <point x="372" y="470"/>
      <point x="440" y="395"/>
      <point x="440" y="323" type="curve" smooth="yes"/>
      <point x="440" y="304" type="line" smooth="yes"/>
      <point x="440" y="266"/>
      <point x="426" y="232"/>
      <point x="405" y="206" type="curve"/>
    </contour>
    <contour>
      <point x="266" y="151" type="curve" smooth="yes"/>
      <point x="164" y="151"/>
      <point x="96" y="216"/>
      <point x="96" y="302" type="curve" smooth="yes"/>
      <point x="96" y="324" type="line" smooth="yes"/>
      <point x="96" y="369"/>
      <point x="116" y="404"/>
      <point x="143" y="428" type="curve"/>
      <point x="185" y="387" type="line"/>
      <point x="355" y="227" type="line"/>
      <point x="392" y="194" type="line"/>
      <point x="384" y="186"/>
      <point x="376" y="180"/>
      <point x="367" y="175" type="curve" smooth="yes"/>
      <point x="336" y="158"/>
      <point x="304" y="151"/>
    </contour>
    <contour>
      <point x="791.0" y="0.0" type="move" name="bottom_deva"/>
    </contour>
    <contour>
      <point x="623.0" y="696.0" type="move" name="center_deva"/>
    </contour>
    <contour>
      <point x="791.0" y="696.0" type="move" name="top_deva"/>
    </contour>
  </outline>
</glyph>
<glyph name="dvB_DA" format="1">
  <advance width="923"/>
  <outline>
    <contour>
      <point x="-20" y="679" type="line"/>
      <point x="765" y="679" type="line"/>
      <point x="765" y="481" type="line"/>
      <point x="660" y="481" type="line" smooth="yes"/>
      <point x="552" y="481"/>
      <point x="481" y="436"/>
      <point x="455" y="365" type="curve"/>
      <point x="451" y="365" type="line"/>
      <point x="428" y="439"/>
      <point x="358" y="489"/>
      <point x="266" y="489" type="curve" smooth="yes" name="hr01"/>
      <point x="148" y="489"/>
      <point x="74" y="411"/>
      <point x="74" y="313" type="curve" smooth="yes"/>
      <point x="74" y="211"/>
      <point x="149" y="132"/>
      <point x="266" y="132" type="curve" smooth="yes"/>
      <point x="353" y="132"/>
      <point x="417" y="174"/>
      <point x="445" y="237" type="curve"/>
      <point x="448" y="237" type="line"/>
      <point x="465" y="150"/>
      <point x="540" y="83"/>
      <point x="662" y="83" type="curve" smooth="yes"/>
      <point x="710" y="83"/>
      <point x="749" y="91"/>
      <point x="779" y="104" type="curve"/>
      <point x="785" y="86" type="line"/>
      <point x="832" y="-52" type="line"/>
      <point x="849" y="-46" type="line"/>
      <point x="801" y="94" type="line"/>
      <point x="795" y="111" type="line"/>
      <point x="810" y="121"/>
      <point x="814" y="128"/>
      <point x="814" y="140" type="curve" smooth="yes"/>
      <point x="814" y="159"/>
      <point x="803" y="180"/>
      <point x="782" y="180" type="curve" smooth="yes"/>
      <point x="771" y="180"/>
      <point x="760" y="176"/>
      <point x="754" y="171" type="curve"/>
      <point x="772" y="121" type="line"/>
      <point x="749" y="111"/>
      <point x="709" y="102"/>
      <point x="662" y="102" type="curve" smooth="yes"/>
      <point x="525" y="102"/>
      <point x="464" y="184"/>
      <point x="464" y="274" type="curve" smooth="yes"/>
      <point x="464" y="295" type="line" smooth="yes"/>
      <point x="464" y="396"/>
      <point x="531" y="461"/>
      <point x="662" y="461" type="curve" smooth="yes" name="hr02"/>
      <point x="786" y="461" type="line"/>
      <point x="786" y="679" type="line"/>
      <point x="943" y="679" type="line"/>
      <point x="943" y="698" type="line"/>
      <point x="-20" y="698" type="line"/>
    </contour>
    <contour>
      <point x="366" y="243" type="line"/>
      <point x="199" y="399" type="line"/>
      <point x="157" y="439" type="line"/>
      <point x="164" y="444"/>
      <point x="172" y="448"/>
      <point x="179" y="452" type="curve" smooth="yes"/>
      <point x="203" y="464"/>
      <point x="232" y="470"/>
      <point x="266" y="470" type="curve" smooth="yes" name="hr03"/>
      <point x="372" y="470"/>
      <point x="440" y="395"/>
      <point x="440" y="323" type="curve" smooth="yes"/>
      <point x="440" y="304" type="line" smooth="yes"/>
      <point x="440" y="266"/>
      <point x="426" y="232"/>
      <point x="405" y="206" type="curve"/>
    </contour>
    <contour>
      <point x="266" y="151" type="curve" smooth="yes"/>
      <point x="164" y="151"/>
      <point x="96" y="216"/>
      <point x="96" y="302" type="curve" smooth="yes"/>
      <point x="96" y="324" type="line" smooth="yes"/>
      <point x="96" y="369"/>
      <point x="116" y="404"/>
      <point x="143" y="428" type="curve"/>
      <point x="185" y="387" type="line"/>
      <point x="355" y="227" type="line"/>
      <point x="392" y="193" type="line"/>
      <point x="384" y="186"/>
      <point x="376" y="180"/>
      <point x="367" y="175" type="curve" smooth="yes"/>
      <point x="336" y="158"/>
      <point x="304" y="151"/>
    </contour>
    <contour>
      <point x="849.0" y="-49.0" type="move" name="bottom_deva"/>
    </contour>
    <contour>
      <point x="659.0" y="696.0" type="move" name="center_deva"/>
    </contour>
    <contour>
      <point x="786.0" y="696.0" type="move" name="top_deva"/>
    </contour>
  </outline>
</glyph>
<glyph name="dvB_L_YA" format="1">
  <advance width="1581"/>
  <outline>
    <contour>
      <point x="-20" y="679" type="line"/>
      <point x="1158" y="679" type="line"/>
      <point x="1158" y="540" type="line" smooth="yes"/>
      <point x="1158" y="455"/>
      <point x="1131" y="426"/>
      <point x="1040" y="426" type="curve" smooth="yes"/>
      <point x="988" y="426" type="line"/>
      <point x="964" y="450"/>
      <point x="930" y="465"/>
      <point x="886" y="465" type="curve" smooth="yes"/>
      <point x="809" y="465"/>
      <point x="762" y="408"/>
      <point x="746" y="333" type="curve"/>
      <point x="744" y="333" type="line"/>
      <point x="729" y="409"/>
      <point x="676" y="465"/>
      <point x="591" y="465" type="curve" smooth="yes"/>
      <point x="528" y="465"/>
      <point x="475" y="422"/>
      <point x="456" y="359" type="curve"/>
      <point x="453" y="359" type="line"/>
      <point x="434" y="434"/>
      <point x="362" y="489"/>
      <point x="267" y="489" type="curve" smooth="yes"/>
      <point x="149" y="489"/>
      <point x="75" y="411"/>
      <point x="75" y="313" type="curve" smooth="yes"/>
      <point x="75" y="211"/>
      <point x="150" y="132"/>
      <point x="267" y="132" type="curve" smooth="yes"/>
      <point x="347" y="132"/>
      <point x="414" y="170"/>
      <point x="442" y="231" type="curve"/>
      <point x="445" y="231" type="line"/>
      <point x="453" y="100"/>
      <point x="517" y="28"/>
      <point x="655" y="14" type="curve"/>
      <point x="658" y="33" type="line"/>
      <point x="509" y="46"/>
      <point x="463" y="131"/>
      <point x="463" y="256" type="curve" smooth="yes"/>
      <point x="463" y="283" type="line" smooth="yes"/>
      <point x="463" y="381"/>
      <point x="517" y="445"/>
      <point x="592" y="445" type="curve" smooth="yes"/>
      <point x="676" y="445"/>
      <point x="735" y="379"/>
      <point x="735" y="273" type="curve" smooth="yes"/>
      <point x="735" y="186" type="line"/>
      <point x="756" y="186" type="line"/>
      <point x="756" y="271" type="line" smooth="yes"/>
      <point x="756" y="377"/>
      <point x="812" y="446"/>
      <point x="886" y="446" type="curve" smooth="yes" name="hr01"/>
      <point x="924" y="446"/>
      <point x="962" y="433"/>
      <point x="988" y="399" type="curve"/>
      <point x="988" y="359" type="line" smooth="yes"/>
      <point x="988" y="242"/>
      <point x="1057" y="162"/>
      <point x="1195" y="162" type="curve" smooth="yes"/>
      <point x="1313" y="162"/>
      <point x="1381" y="218"/>
      <point x="1413" y="266" type="curve"/>
      <point x="1416" y="266" type="line"/>
      <point x="1416" y="0" type="line"/>
      <point x="1437" y="0" type="line"/>
      <point x="1437" y="679" type="line"/>
      <point x="1601" y="679" type="line"/>
      <point x="1601" y="698" type="line"/>
      <point x="-20" y="698" type="line"/>
    </contour>
    <contour>
      <point x="1195" y="181" type="curve" smooth="yes"/>
      <point x="1073" y="181"/>
      <point x="1009" y="248"/>
      <point x="1009" y="356" type="curve" smooth="yes"/>
      <point x="1009" y="407" type="line"/>
      <point x="1043" y="407" type="line" smooth="yes"/>
      <point x="1140" y="407"/>
      <point x="1179" y="444"/>
      <point x="1179" y="536" type="curve" smooth="yes"/>
      <point x="1179" y="679" type="line"/>
      <point x="1416" y="679" type="line"/>
      <point x="1416" y="340" type="line" smooth="yes"/>
      <point x="1416" y="262"/>
      <point x="1329" y="181"/>
    </contour>
    <contour>
      <point x="367" y="243" type="line"/>
      <point x="200" y="399" type="line"/>
      <point x="158" y="439" type="line"/>
      <point x="165" y="444"/>
      <point x="172" y="448"/>
      <point x="179" y="452" type="curve" smooth="yes"/>
      <point x="203" y="464"/>
      <point x="232" y="470"/>
      <point x="266" y="470" type="curve" smooth="yes"/>
      <point x="372" y="470"/>
      <point x="440" y="395"/>
      <point x="440" y="323" type="curve" smooth="yes"/>
      <point x="440" y="304" type="line" smooth="yes"/>
      <point x="440" y="266"/>
      <point x="426" y="232"/>
      <point x="405" y="207" type="curve"/>
    </contour>
    <contour>
      <point x="266" y="151" type="curve" smooth="yes"/>
      <point x="164" y="151"/>
      <point x="96" y="216"/>
      <point x="96" y="302" type="curve" smooth="yes"/>
      <point x="96" y="324" type="line" smooth="yes"/>
      <point x="96" y="369"/>
      <point x="117" y="404"/>
      <point x="144" y="428" type="curve"/>
      <point x="186" y="387" type="line"/>
      <point x="356" y="227" type="line"/>
      <point x="393" y="194" type="line"/>
      <point x="385" y="186"/>
      <point x="376" y="180"/>
      <point x="367" y="175" type="curve" smooth="yes"/>
      <point x="336" y="158"/>
      <point x="304" y="151"/>
    </contour>
    <contour>
      <point x="1437.0" y="0.0" type="move" name="bottom_deva"/>
    </contour>
    <contour>
      <point x="1300.0" y="696.0" type="move" name="center_deva"/>
    </contour>
    <contour>
      <point x="1437.0" y="696.0" type="move" name="top_deva"/>
    </contour>
  </outline>
</glyph>
<glyph name="dvB_RA" format="1">
  <advance width="618"/>
  <outline>
    <contour>
      <point x="114" y="-27" type="line" name="hr00"/>
      <point x="390" y="165" type="line" smooth="yes"/>
      <point x="417" y="184"/>
      <point x="436" y="205"/>
      <point x="450" y="226" type="curve"/>
      <point x="453" y="226" type="line"/>
      <point x="453" y="0" type="line"/>
      <point x="474" y="0" type="line"/>
      <point x="474" y="679" type="line"/>
      <point x="638" y="679" type="line"/>
      <point x="638" y="698" type="line"/>
      <point x="-20" y="698" type="line"/>
      <point x="-20" y="679" type="line"/>
      <point x="453" y="679" type="line"/>
      <point x="453" y="404" type="line"/>
      <point x="450" y="404" type="line"/>
      <point x="419" y="445"/>
      <point x="359" y="489"/>
      <point x="265" y="489" type="curve" smooth="yes"/>
      <point x="148" y="489"/>
      <point x="74" y="412"/>
      <point x="74" y="312" type="curve" smooth="yes"/>
      <point x="74" y="200"/>
      <point x="159" y="133"/>
      <point x="263" y="133" type="curve" smooth="yes"/>
      <point x="280" y="133"/>
      <point x="306" y="136"/>
      <point x="324" y="142" type="curve"/>
      <point x="325" y="139" type="line"/>
      <point x="209" y="62" type="line"/>
      <point x="102" y="-12" type="line"/>
    </contour>
    <contour>
      <point x="366" y="243" type="line"/>
      <point x="199" y="399" type="line"/>
      <point x="157" y="439" type="line"/>
      <point x="163" y="443"/>
      <point x="168" y="446"/>
      <point x="174" y="449" type="curve" smooth="yes"/>
      <point x="203" y="463"/>
      <point x="234" y="470"/>
      <point x="266" y="470" type="curve" smooth="yes"/>
      <point x="373" y="470"/>
      <point x="454" y="399"/>
      <point x="454" y="345" type="curve" smooth="yes"/>
      <point x="454" y="291" type="line" smooth="yes"/>
      <point x="454" y="262"/>
      <point x="435" y="229"/>
      <point x="408" y="203" type="curve"/>
    </contour>
    <contour>
      <point x="264" y="151" type="curve" smooth="yes"/>
      <point x="167" y="151"/>
      <point x="96" y="214"/>
      <point x="96" y="300" type="curve" smooth="yes"/>
      <point x="96" y="321" type="line" smooth="yes"/>
      <point x="96" y="368"/>
      <point x="117" y="405"/>
      <point x="143" y="428" type="curve"/>
      <point x="185" y="387" type="line"/>
      <point x="355" y="227" type="line"/>
      <point x="394" y="191" type="line"/>
      <point x="385" y="184"/>
      <point x="375" y="178"/>
      <point x="365" y="173" type="curve" smooth="yes"/>
      <point x="338" y="160"/>
      <point x="309" y="151"/>
    </contour>
    <contour>
      <point x="474.0" y="0.0" type="move" name="bottom_deva"/>
    </contour>
    <contour>
      <point x="290.0" y="696.0" type="move" name="center_deva"/>
    </contour>
    <contour>
      <point x="474.0" y="696.0" type="move" name="top_deva"/>
    </contour>
  </outline>
</glyph>
<glyph name="dvB_R" format="1">
  <advance width="319"/>
  <outline>
    <contour>
      <point x="-20" y="679" type="line" name="hr00"/>
      <point x="388" y="679" type="line"/>
      <point x="388" y="698" type="line"/>
      <point x="-20" y="698" type="line"/>
    </contour>
    <contour>
      <point x="114" y="-27" type="line"/>
      <point x="363" y="146" type="line"/>
      <point x="385" y="163" type="line" smooth="yes"/>
      <point x="432" y="199"/>
      <point x="460" y="249"/>
      <point x="460" y="312" type="curve" smooth="yes"/>
      <point x="460" y="413"/>
      <point x="379" y="489"/>
      <point x="266" y="489" type="curve" smooth="yes"/>
      <point x="150" y="489"/>
      <point x="74" y="413"/>
      <point x="74" y="313" type="curve" smooth="yes"/>
      <point x="74" y="211"/>
      <point x="148" y="133"/>
      <point x="265" y="133" type="curve" smooth="yes"/>
      <point x="285" y="133"/>
      <point x="312" y="138"/>
      <point x="324" y="142" type="curve"/>
      <point x="325" y="139" type="line"/>
      <point x="260" y="96" type="line"/>
      <point x="102" y="-12" type="line"/>
    </contour>
    <contour>
      <point x="366" y="243" type="line"/>
      <point x="199" y="399" type="line"/>
      <point x="157" y="439" type="line"/>
      <point x="164" y="444"/>
      <point x="172" y="448"/>
      <point x="179" y="452" type="curve" smooth="yes"/>
      <point x="203" y="464"/>
      <point x="232" y="470"/>
      <point x="266" y="470" type="curve" smooth="yes"/>
      <point x="374" y="470"/>
      <point x="439" y="395"/>
      <point x="439" y="321" type="curve" smooth="yes"/>
      <point x="439" y="301" type="line" smooth="yes"/>
      <point x="439" y="264"/>
      <point x="425" y="231"/>
      <point x="405" y="206" type="curve"/>
    </contour>
    <contour>
      <point x="266" y="151" type="curve" smooth="yes"/>
      <point x="165" y="151"/>
      <point x="96" y="215"/>
      <point x="96" y="303" type="curve" smooth="yes"/>
      <point x="96" y="323" type="line" smooth="yes"/>
      <point x="96" y="368"/>
      <point x="116" y="403"/>
      <point x="143" y="428" type="curve"/>
      <point x="185" y="387" type="line"/>
      <point x="355" y="227" type="line"/>
      <point x="392" y="193" type="line"/>
      <point x="385" y="186"/>
      <point x="376" y="180"/>
      <point x="367" y="175" type="curve" smooth="yes"/>
      <point x="336" y="158"/>
      <point x="304" y="151"/>
    </contour>
  </outline>
</glyph>
<glyph name="dvB_SA" format="1">
  <advance width="1066"/>
  <outline>
    <contour>
      <point x="664" y="-2" type="line" name="hr00"/>
      <point x="680" y="10" type="line"/>
      <point x="533" y="239" type="line"/>
      <point x="470" y="335" type="line"/>
      <point x="470" y="337" type="line"/>
      <point x="901" y="337" type="line"/>
      <point x="901" y="0" type="line"/>
      <point x="922" y="0" type="line"/>
      <point x="922" y="679" type="line"/>
      <point x="1086" y="679" type="line"/>
      <point x="1086" y="698" type="line"/>
      <point x="-20" y="698" type="line"/>
      <point x="-20" y="679" type="line"/>
      <point x="618" y="679" type="line"/>
      <point x="618" y="511" type="line" smooth="yes"/>
      <point x="618" y="408"/>
      <point x="557" y="360"/>
      <point x="454" y="357" type="curve"/>
      <point x="434" y="433"/>
      <point x="363" y="489"/>
      <point x="266" y="489" type="curve" smooth="yes"/>
      <point x="150" y="489"/>
      <point x="74" y="413"/>
      <point x="74" y="313" type="curve" smooth="yes"/>
      <point x="74" y="211"/>
      <point x="149" y="132"/>
      <point x="266" y="132" type="curve" smooth="yes"/>
      <point x="379" y="132"/>
      <point x="459" y="203"/>
      <point x="459" y="312" type="curve"/>
      <point x="461" y="313" type="line"/>
    </contour>
    <contour>
      <point x="539" y="356" type="line"/>
      <point x="596" y="375"/>
      <point x="639" y="420"/>
      <point x="639" y="516" type="curve" smooth="yes"/>
      <point x="639" y="679" type="line"/>
      <point x="901" y="679" type="line"/>
      <point x="901" y="356" type="line"/>
      <point x="661" y="356" type="line"/>
      <point x="539" y="355" type="line"/>
    </contour>
    <contour>
      <point x="366" y="243" type="line"/>
      <point x="199" y="399" type="line"/>
      <point x="157" y="439" type="line"/>
      <point x="164" y="444"/>
      <point x="172" y="448"/>
      <point x="179" y="452" type="curve" smooth="yes"/>
      <point x="203" y="464"/>
      <point x="232" y="470"/>
      <point x="266" y="470" type="curve" smooth="yes"/>
      <point x="372" y="470"/>
      <point x="440" y="395"/>
      <point x="440" y="323" type="curve" smooth="yes"/>
      <point x="440" y="304" type="line" smooth="yes"/>
      <point x="440" y="266"/>
      <point x="426" y="232"/>
      <point x="405" y="206" type="curve"/>
    </contour>
    <contour>
      <point x="266" y="151" type="curve" smooth="yes"/>
      <point x="164" y="151"/>
      <point x="96" y="216"/>
      <point x="96" y="302" type="curve" smooth="yes"/>
      <point x="96" y="324" type="line" smooth="yes"/>
      <point x="96" y="369"/>
      <point x="116" y="404"/>
      <point x="143" y="428" type="curve"/>
      <point x="185" y="387" type="line"/>
      <point x="355" y="227" type="line"/>
      <point x="392" y="193" type="line"/>
      <point x="384" y="186"/>
      <point x="376" y="180"/>
      <point x="367" y="175" type="curve" smooth="yes"/>
      <point x="336" y="158"/>
      <point x="304" y="151"/>
    </contour>
    <contour>
      <point x="922.0" y="0.0" type="move" name="bottom_deva"/>
    </contour>
    <contour>
      <point x="775.0" y="696.0" type="move" name="center_deva"/>
    </contour>
    <contour>
      <point x="922.0" y="696.0" type="move" name="top_deva"/>
    </contour>
  </outline>
</glyph>
<glyph name="dvB_SHA" format="1">
  <advance width="1122"/>
  <outline>
    <contour>
      <point x="957" y="0" type="line"/>
      <point x="978" y="0" type="line"/>
      <point x="978" y="679" type="line"/>
      <point x="1142" y="679" type="line"/>
      <point x="1142" y="698" type="line"/>
      <point x="957" y="698" type="line"/>
    </contour>
    <contour>
      <point x="-20" y="679" type="line"/>
      <point x="388" y="679" type="line"/>
      <point x="388" y="698" type="line"/>
      <point x="-20" y="698" type="line"/>
    </contour>
    <contour>
      <point x="751" y="3" type="line"/>
      <point x="765" y="17" type="line"/>
      <point x="516" y="264" type="line"/>
      <point x="477" y="303" type="line"/>
      <point x="478" y="304" type="line"/>
      <point x="549" y="304" type="line" smooth="yes"/>
      <point x="718" y="304"/>
      <point x="798" y="378"/>
      <point x="798" y="515" type="curve" smooth="yes"/>
      <point x="798" y="631"/>
      <point x="728" y="694"/>
      <point x="634" y="694" type="curve" smooth="yes" name="hr01"/>
      <point x="554" y="694"/>
      <point x="497" y="653"/>
      <point x="464" y="561" type="curve"/>
      <point x="485" y="553" type="line"/>
      <point x="515" y="642"/>
      <point x="567" y="674"/>
      <point x="636" y="674" type="curve" smooth="yes"/>
      <point x="716" y="674"/>
      <point x="776" y="617"/>
      <point x="776" y="526" type="curve" smooth="yes"/>
      <point x="776" y="503" type="line" smooth="yes"/>
      <point x="776" y="396"/>
      <point x="712" y="323"/>
      <point x="547" y="323" type="curve" smooth="yes"/>
      <point x="460" y="323" type="line"/>
      <point x="454" y="417"/>
      <point x="377" y="489"/>
      <point x="266" y="489" type="curve" smooth="yes"/>
      <point x="149" y="489"/>
      <point x="74" y="412"/>
      <point x="74" y="313" type="curve" smooth="yes"/>
      <point x="74" y="209"/>
      <point x="151" y="132"/>
      <point x="265" y="132" type="curve" smooth="yes"/>
      <point x="375" y="132"/>
      <point x="451" y="198"/>
      <point x="459" y="293" type="curve"/>
      <point x="461" y="293" type="line"/>
    </contour>
    <contour>
      <point x="366" y="243" type="line"/>
      <point x="199" y="399" type="line"/>
      <point x="157" y="439" type="line"/>
      <point x="164" y="444"/>
      <point x="172" y="448"/>
      <point x="179" y="452" type="curve" smooth="yes"/>
      <point x="203" y="464"/>
      <point x="232" y="470"/>
      <point x="266" y="470" type="curve" smooth="yes"/>
      <point x="372" y="470"/>
      <point x="440" y="395"/>
      <point x="440" y="323" type="curve" smooth="yes"/>
      <point x="440" y="304" type="line" smooth="yes"/>
      <point x="440" y="266"/>
      <point x="426" y="232"/>
      <point x="405" y="206" type="curve"/>
    </contour>
    <contour>
      <point x="266" y="151" type="curve" smooth="yes"/>
      <point x="164" y="151"/>
      <point x="96" y="216"/>
      <point x="96" y="302" type="curve" smooth="yes"/>
      <point x="96" y="324" type="line" smooth="yes"/>
      <point x="96" y="369"/>
      <point x="116" y="404"/>
      <point x="143" y="428" type="curve"/>
      <point x="185" y="387" type="line"/>
      <point x="355" y="227" type="line"/>
      <point x="392" y="194" type="line"/>
      <point x="384" y="186"/>
      <point x="376" y="180"/>
      <point x="367" y="175" type="curve" smooth="yes"/>
      <point x="336" y="158"/>
      <point x="304" y="151"/>
    </contour>
    <contour>
      <point x="978.0" y="0.0" type="move" name="bottom_deva"/>
    </contour>
    <contour>
      <point x="828.0" y="696.0" type="move" name="center_deva"/>
    </contour>
    <contour>
      <point x="978.0" y="696.0" type="move" name="top_deva"/>
    </contour>
  </outline>
</glyph>
<glyph name="dvB_VA" format="1">
  <advance width="980"/>
  <outline>
    <contour>
      <point x="-20" y="679" type="line"/>
      <point x="815" y="679" type="line"/>
      <point x="815" y="402" type="line"/>
      <point x="812" y="402" type="line"/>
      <point x="782" y="442"/>
      <point x="723" y="490"/>
      <point x="622" y="490" type="curve" smooth="yes"/>
      <point x="536" y="490"/>
      <point x="471" y="442"/>
      <point x="451" y="375" type="curve"/>
      <point x="448" y="375" type="line"/>
      <point x="422" y="444"/>
      <point x="353" y="489"/>
      <point x="266" y="489" type="curve" smooth="yes" name="hr01"/>
      <point x="147" y="489"/>
      <point x="74" y="410"/>
      <point x="74" y="313" type="curve" smooth="yes"/>
      <point x="74" y="211"/>
      <point x="149" y="132"/>
      <point x="266" y="132" type="curve" smooth="yes"/>
      <point x="357" y="132"/>
      <point x="425" y="178"/>
      <point x="450" y="250" type="curve"/>
      <point x="453" y="250" type="line"/>
      <point x="479" y="178"/>
      <point x="547" y="136"/>
      <point x="629" y="136" type="curve" smooth="yes" name="hr02"/>
      <point x="729" y="136"/>
      <point x="787" y="184"/>
      <point x="812" y="223" type="curve"/>
      <point x="815" y="223" type="line"/>
      <point x="815" y="0" type="line"/>
      <point x="836" y="0" type="line"/>
      <point x="836" y="679" type="line"/>
      <point x="1000" y="679" type="line"/>
      <point x="1000" y="698" type="line"/>
      <point x="-20" y="698" type="line"/>
    </contour>
    <contour>
      <point x="630" y="155" type="curve" smooth="yes"/>
      <point x="531" y="155"/>
      <point x="463" y="218"/>
      <point x="463" y="301" type="curve" smooth="yes"/>
      <point x="463" y="325" type="line" smooth="yes"/>
      <point x="463" y="405"/>
      <point x="525" y="471"/>
      <point x="624" y="471" type="curve" smooth="yes"/>
      <point x="731" y="471"/>
      <point x="816" y="400"/>
      <point x="816" y="340" type="curve" smooth="yes"/>
      <point x="816" y="289" type="line" smooth="yes"/>
      <point x="816" y="222"/>
      <point x="736" y="155"/>
    </contour>
    <contour>
      <point x="366" y="243" type="line"/>
      <point x="199" y="399" type="line"/>
      <point x="157" y="439" type="line"/>
      <point x="164" y="444"/>
      <point x="172" y="448"/>
      <point x="179" y="452" type="curve" smooth="yes"/>
      <point x="203" y="464"/>
      <point x="232" y="470"/>
      <point x="266" y="470" type="curve" smooth="yes" name="hr03"/>
      <point x="372" y="470"/>
      <point x="440" y="395"/>
      <point x="440" y="323" type="curve" smooth="yes"/>
      <point x="440" y="304" type="line" smooth="yes"/>
      <point x="440" y="266"/>
      <point x="426" y="232"/>
      <point x="405" y="206" type="curve"/>
    </contour>
    <contour>
      <point x="266" y="151" type="curve" smooth="yes"/>
      <point x="164" y="151"/>
      <point x="96" y="216"/>
      <point x="96" y="302" type="curve" smooth="yes"/>
      <point x="96" y="324" type="line" smooth="yes"/>
      <point x="96" y="369"/>
      <point x="116" y="404"/>
      <point x="143" y="428" type="curve"/>
      <point x="185" y="387" type="line"/>
      <point x="355" y="227" type="line"/>
      <point x="392" y="193" type="line"/>
      <point x="384" y="186"/>
      <point x="376" y="180"/>
      <point x="367" y="175" type="curve" smooth="yes"/>
      <point x="336" y="158"/>
      <point x="304" y="151"/>
    </contour>
    <contour>
      <point x="836.0" y="0.0" type="move" name="bottom_deva"/>
    </contour>
    <contour>
      <point x="649.0" y="696.0" type="move" name="center_deva"/>
    </contour>
    <contour>
      <point x="836.0" y="696.0" type="move" name="top_deva"/>
    </contour>
  </outline>
</glyph>
<glyph name="dvC_MA" format="1">
  <advance width="1026"/>
  <outline>
    <contour>
      <point x="333" y="148" type="curve" smooth="yes" name="hr00"/>
      <point x="437" y="148"/>
      <point x="512" y="212"/>
      <point x="545" y="289" type="curve"/>
      <point x="550" y="288"/>
      <point x="551" y="288"/>
      <point x="554" y="288" type="curve" smooth="yes"/>
      <point x="559" y="288"/>
      <point x="564" y="289"/>
      <point x="568" y="291" type="curve"/>
      <point x="568" y="335" type="line"/>
      <point x="861" y="335" type="line"/>
      <point x="861" y="0" type="line"/>
      <point x="882" y="0" type="line"/>
      <point x="882" y="679" type="line"/>
      <point x="1046" y="679" type="line"/>
      <point x="1046" y="698" type="line"/>
      <point x="-20" y="698" type="line"/>
      <point x="-20" y="679" type="line"/>
      <point x="547" y="679" type="line"/>
      <point x="547" y="353" type="line"/>
      <point x="531" y="351"/>
      <point x="522" y="339"/>
      <point x="522" y="321" type="curve" smooth="yes"/>
      <point x="522" y="311"/>
      <point x="524" y="303"/>
      <point x="529" y="297" type="curve"/>
      <point x="499" y="227"/>
      <point x="428" y="167"/>
      <point x="333" y="167" type="curve" smooth="yes"/>
      <point x="251" y="167"/>
      <point x="182" y="215"/>
      <point x="182" y="308" type="curve" smooth="yes"/>
      <point x="182" y="389"/>
      <point x="244" y="455"/>
      <point x="328" y="455" type="curve" smooth="yes"/>
      <point x="347" y="455" type="line"/>
      <point x="347" y="472" type="line"/>
      <point x="60" y="472" type="line"/>
      <point x="60" y="453" type="line"/>
      <point x="183" y="453" type="line"/>
      <point x="249" y="454" type="line"/>
      <point x="249" y="452" type="line"/>
      <point x="193" y="425"/>
      <point x="160" y="375"/>
      <point x="160" y="305" type="curve" smooth="yes"/>
      <point x="160" y="214"/>
      <point x="231" y="148"/>
    </contour>
    <contour>
      <point x="861" y="679" type="line"/>
      <point x="861" y="354" type="line"/>
      <point x="568" y="354" type="line"/>
      <point x="568" y="679" type="line"/>
    </contour>
    <contour>
      <point x="882.0" y="0.0" type="move" name="bottom_deva"/>
    </contour>
    <contour>
      <point x="713.0" y="696.0" type="move" name="center_deva"/>
    </contour>
    <contour>
      <point x="882.0" y="696.0" type="move" name="top_deva"/>
    </contour>
  </outline>
</glyph>
<glyph name="dvC_RA" format="1">
  <advance width="696"/>
  <outline>
    <contour>
      <point x="168" y="-27" type="line" name="hr00"/>
      <point x="448" y="156" type="line" smooth="yes"/>
      <point x="488" y="182"/>
      <point x="514" y="213"/>
      <point x="528" y="244" type="curve"/>
      <point x="531" y="244" type="line"/>
      <point x="531" y="0" type="line"/>
      <point x="552" y="0" type="line"/>
      <point x="552" y="679" type="line"/>
      <point x="716" y="679" type="line"/>
      <point x="716" y="698" type="line"/>
      <point x="-20" y="698" type="line"/>
      <point x="-20" y="679" type="line"/>
      <point x="531" y="679" type="line"/>
      <point x="531" y="329" type="line" smooth="yes"/>
      <point x="531" y="223"/>
      <point x="438" y="147"/>
      <point x="333" y="147" type="curve" smooth="yes"/>
      <point x="252" y="147"/>
      <point x="182" y="194"/>
      <point x="182" y="288" type="curve" smooth="yes"/>
      <point x="182" y="367"/>
      <point x="243" y="435"/>
      <point x="328" y="435" type="curve" smooth="yes"/>
      <point x="347" y="435" type="line"/>
      <point x="347" y="452" type="line"/>
      <point x="60" y="452" type="line"/>
      <point x="60" y="433" type="line"/>
      <point x="165" y="433" type="line"/>
      <point x="249" y="434" type="line"/>
      <point x="249" y="432" type="line"/>
      <point x="197" y="408"/>
      <point x="160" y="358"/>
      <point x="160" y="287" type="curve" smooth="yes"/>
      <point x="160" y="189"/>
      <point x="234" y="129"/>
      <point x="332" y="129" type="curve" smooth="yes"/>
      <point x="349" y="129"/>
      <point x="366" y="131"/>
      <point x="380" y="135" type="curve"/>
      <point x="381" y="132" type="line"/>
      <point x="340" y="107" type="line"/>
      <point x="157" y="-11" type="line"/>
    </contour>
    <contour>
      <point x="552.0" y="0.0" type="move" name="bottom_deva"/>
    </contour>
    <contour>
      <point x="377.0" y="696.0" type="move" name="center_deva"/>
    </contour>
    <contour>
      <point x="552.0" y="696.0" type="move" name="top_deva"/>
    </contour>
  </outline>
</glyph>
<glyph name="dvC_R" format="1">
  <advance width="405"/>
  <outline>
    <contour>
      <point x="-20" y="679" type="line" name="hr00"/>
      <point x="466" y="679" type="line"/>
      <point x="466" y="698" type="line"/>
      <point x="-20" y="698" type="line"/>
    </contour>
    <contour>
      <point x="168" y="-27" type="line"/>
      <point x="445" y="154" type="line" smooth="yes"/>
      <point x="495" y="187"/>
      <point x="531" y="231"/>
      <point x="550" y="280" type="curve"/>
      <point x="536" y="295" type="line"/>
      <point x="510" y="217"/>
      <point x="437" y="147"/>
      <point x="333" y="147" type="curve" smooth="yes"/>
      <point x="248" y="147"/>
      <point x="182" y="198"/>
      <point x="182" y="288" type="curve" smooth="yes"/>
      <point x="182" y="367"/>
      <point x="244" y="435"/>
      <point x="327" y="435" type="curve" smooth="yes"/>
      <point x="347" y="435" type="line"/>
      <point x="347" y="452" type="line"/>
      <point x="60" y="452" type="line"/>
      <point x="60" y="433" type="line"/>
      <point x="181" y="433" type="line"/>
      <point x="249" y="434" type="line"/>
      <point x="249" y="432" type="line"/>
      <point x="195" y="406"/>
      <point x="160" y="357"/>
      <point x="160" y="285" type="curve" smooth="yes"/>
      <point x="160" y="193"/>
      <point x="230" y="129"/>
      <point x="333" y="129" type="curve" smooth="yes"/>
      <point x="351" y="129"/>
      <point x="366" y="131"/>
      <point x="380" y="135" type="curve"/>
      <point x="381" y="132" type="line"/>
      <point x="321" y="95" type="line"/>
      <point x="157" y="-11" type="line"/>
    </contour>
  </outline>
</glyph>
<glyph name="dvDA_mvR" format="1">
  <advance width="549"/>
  <outline>
    <contour>
      <point x="291" y="18" type="curve" smooth="yes"/>
      <point x="384" y="18"/>
      <point x="442" y="51"/>
      <point x="483" y="89" type="curve"/>
      <point x="472" y="103" type="line"/>
      <point x="431" y="67"/>
      <point x="373" y="36"/>
      <point x="291" y="36" type="curve" smooth="yes"/>
      <point x="172" y="36"/>
      <point x="127" y="93"/>
      <point x="127" y="153" type="curve" smooth="yes"/>
      <point x="127" y="169" type="line" smooth="yes"/>
      <point x="127" y="234"/>
      <point x="182" y="293"/>
      <point x="289" y="293" type="curve" smooth="yes"/>
      <point x="397" y="293" type="line"/>
      <point x="397" y="311" type="line"/>
      <point x="260" y="311" type="line" smooth="yes"/>
      <point x="177" y="311"/>
      <point x="133" y="353"/>
      <point x="133" y="407" type="curve" smooth="yes" name="hr01"/>
      <point x="133" y="420" type="line" smooth="yes"/>
      <point x="133" y="468"/>
      <point x="171" y="509"/>
      <point x="252" y="509" type="curve" smooth="yes"/>
      <point x="418" y="509" type="line"/>
      <point x="418" y="679" type="line"/>
      <point x="569" y="679" type="line"/>
      <point x="569" y="698" type="line"/>
      <point x="-20" y="698" type="line"/>
      <point x="-20" y="679" type="line"/>
      <point x="397" y="679" type="line"/>
      <point x="397" y="528" type="line"/>
      <point x="253" y="528" type="line" smooth="yes"/>
      <point x="160" y="528"/>
      <point x="113" y="482"/>
      <point x="113" y="414" type="curve" smooth="yes"/>
      <point x="113" y="358"/>
      <point x="145" y="313"/>
      <point x="214" y="299" type="curve"/>
      <point x="214" y="298" type="line"/>
      <point x="156" y="282"/>
      <point x="106" y="237"/>
      <point x="106" y="162" type="curve" smooth="yes" name="hr02"/>
      <point x="106" y="80"/>
      <point x="161" y="18"/>
    </contour>
    <contour>
      <point x="320.0" y="696.0" type="move" name="center_deva"/>
    </contour>
    <contour>
      <point x="418.0" y="696.0" type="move" name="top_deva"/>
    </contour>
  </outline>
</glyph>
<glyph name="dvDDH_DDHA" format="1">
  <advance width="589"/>
  <outline>
    <contour>
      <point x="349" y="127" type="curve" smooth="yes"/>
      <point x="371" y="127"/>
      <point x="390" y="129"/>
      <point x="407" y="132" type="curve"/>
      <point x="407" y="16" type="line"/>
      <point x="319" y="16" type="line" smooth="yes"/>
      <point x="187" y="16"/>
      <point x="131" y="-45"/>
      <point x="131" y="-138" type="curve" smooth="yes"/>
      <point x="131" y="-233"/>
      <point x="203" y="-299"/>
      <point x="345" y="-299" type="curve" smooth="yes"/>
      <point x="455" y="-299"/>
      <point x="497" y="-257"/>
      <point x="497" y="-199" type="curve" smooth="yes"/>
      <point x="497" y="-147"/>
      <point x="462" y="-112"/>
      <point x="393" y="-112" type="curve" smooth="yes"/>
      <point x="321" y="-112"/>
      <point x="287" y="-155"/>
      <point x="287" y="-217" type="curve" smooth="yes"/>
      <point x="287" y="-279" type="line"/>
      <point x="199" y="-265"/>
      <point x="151" y="-212"/>
      <point x="151" y="-145" type="curve" smooth="yes"/>
      <point x="151" y="-129" type="line" smooth="yes"/>
      <point x="151" y="-60"/>
      <point x="199" y="-2"/>
      <point x="314" y="-2" type="curve" smooth="yes"/>
      <point x="428" y="-2" type="line"/>
      <point x="428" y="137" type="line"/>
      <point x="492" y="155"/>
      <point x="517" y="196"/>
      <point x="517" y="245" type="curve" smooth="yes"/>
      <point x="517" y="302"/>
      <point x="477" y="343"/>
      <point x="403" y="343" type="curve" smooth="yes"/>
      <point x="323" y="343"/>
      <point x="283" y="295"/>
      <point x="283" y="227" type="curve" smooth="yes" name="hr01"/>
      <point x="283" y="149" type="line"/>
      <point x="187" y="166"/>
      <point x="126" y="227"/>
      <point x="126" y="307" type="curve" smooth="yes"/>
      <point x="126" y="330" type="line" smooth="yes"/>
      <point x="126" y="419"/>
      <point x="188" y="488"/>
      <point x="341" y="488" type="curve" smooth="yes"/>
      <point x="460" y="488" type="line"/>
      <point x="460" y="679" type="line"/>
      <point x="609" y="679" type="line"/>
      <point x="609" y="698" type="line"/>
      <point x="-20" y="698" type="line"/>
      <point x="-20" y="679" type="line"/>
      <point x="439" y="679" type="line"/>
      <point x="439" y="507" type="line"/>
      <point x="341" y="507" type="line" smooth="yes"/>
      <point x="172" y="507"/>
      <point x="104" y="432"/>
      <point x="104" y="318" type="curve" smooth="yes"/>
      <point x="104" y="202"/>
      <point x="193" y="127"/>
    </contour>
    <contour>
      <point x="350" y="144" type="curve" smooth="yes"/>
      <point x="330" y="144"/>
      <point x="321" y="145"/>
      <point x="303" y="147" type="curve"/>
      <point x="303" y="227" type="line" smooth="yes"/>
      <point x="303" y="282"/>
      <point x="333" y="325"/>
      <point x="403" y="325" type="curve" smooth="yes"/>
      <point x="470" y="325"/>
      <point x="497" y="289"/>
      <point x="497" y="245" type="curve" smooth="yes"/>
      <point x="497" y="188"/>
      <point x="460" y="144"/>
    </contour>
    <contour>
      <point x="353" y="-283" type="curve" smooth="yes"/>
      <point x="332" y="-283"/>
      <point x="316" y="-282"/>
      <point x="305" y="-281" type="curve" name="hr02"/>
      <point x="305" y="-217" type="line" smooth="yes"/>
      <point x="305" y="-169"/>
      <point x="328" y="-130"/>
      <point x="395" y="-130" type="curve" smooth="yes"/>
      <point x="454" y="-130"/>
      <point x="479" y="-158"/>
      <point x="479" y="-199" type="curve" smooth="yes"/>
      <point x="479" y="-249"/>
      <point x="440" y="-283"/>
    </contour>
    <contour>
      <point x="351.0" y="-298.0" type="move" name="bottom_deva"/>
    </contour>
    <contour>
      <point x="360.0" y="696.0" type="move" name="center_deva"/>
    </contour>
    <contour>
      <point x="460.0" y="696.0" type="move" name="top_deva"/>
    </contour>
  </outline>
</glyph>
<glyph name="dvDDH_YA" format="1">
  <advance width="1207"/>
  <outline>
    <contour>
      <point x="368" y="60" type="curve" smooth="yes" name="hr00"/>
      <point x="477" y="60"/>
      <point x="535" y="102"/>
      <point x="535" y="181" type="curve" smooth="yes"/>
      <point x="535" y="249"/>
      <point x="488" y="290"/>
      <point x="419" y="290" type="curve" smooth="yes"/>
      <point x="343" y="290"/>
      <point x="304" y="244"/>
      <point x="304" y="169" type="curve" smooth="yes"/>
      <point x="304" y="82" type="line"/>
      <point x="187" y="97"/>
      <point x="126" y="173"/>
      <point x="126" y="260" type="curve" smooth="yes"/>
      <point x="126" y="295" type="line" smooth="yes"/>
      <point x="126" y="393"/>
      <point x="192" y="464"/>
      <point x="341" y="464" type="curve" smooth="yes"/>
      <point x="826" y="464" type="line"/>
      <point x="826" y="416" type="line" smooth="yes"/>
      <point x="826" y="361"/>
      <point x="807" y="335"/>
      <point x="734" y="335" type="curve" smooth="yes"/>
      <point x="658" y="335" type="line"/>
      <point x="658" y="286" type="line" smooth="yes"/>
      <point x="658" y="174"/>
      <point x="726" y="110"/>
      <point x="844" y="110" type="curve" smooth="yes"/>
      <point x="929" y="110"/>
      <point x="998" y="140"/>
      <point x="1039" y="201" type="curve"/>
      <point x="1042" y="201" type="line"/>
      <point x="1042" y="0" type="line"/>
      <point x="1063" y="0" type="line"/>
      <point x="1063" y="679" type="line"/>
      <point x="1227" y="679" type="line"/>
      <point x="1227" y="698" type="line"/>
      <point x="-20" y="698" type="line"/>
      <point x="-20" y="679" type="line"/>
      <point x="429" y="679" type="line"/>
      <point x="429" y="483" type="line"/>
      <point x="343" y="483" type="line" smooth="yes"/>
      <point x="175" y="483"/>
      <point x="103" y="407"/>
      <point x="103" y="279" type="curve" smooth="yes"/>
      <point x="103" y="146"/>
      <point x="189" y="60"/>
    </contour>
    <contour>
      <point x="846" y="129" type="curve" smooth="yes"/>
      <point x="734" y="129"/>
      <point x="679" y="187"/>
      <point x="679" y="281" type="curve" smooth="yes"/>
      <point x="679" y="316" type="line"/>
      <point x="743" y="316" type="line" smooth="yes"/>
      <point x="816" y="316"/>
      <point x="847" y="349"/>
      <point x="847" y="416" type="curve" smooth="yes"/>
      <point x="847" y="457" type="line" smooth="yes"/>
      <point x="847" y="475"/>
      <point x="838" y="483"/>
      <point x="821" y="483" type="curve" smooth="yes"/>
      <point x="450" y="483" type="line"/>
      <point x="450" y="679" type="line"/>
      <point x="1042" y="679" type="line"/>
      <point x="1042" y="279" type="line" smooth="yes"/>
      <point x="1042" y="183"/>
      <point x="943" y="129"/>
    </contour>
    <contour>
      <point x="371" y="78" type="curve" smooth="yes"/>
      <point x="349" y="78"/>
      <point x="333" y="79"/>
      <point x="324" y="80" type="curve"/>
      <point x="324" y="169" type="line" smooth="yes"/>
      <point x="324" y="226"/>
      <point x="349" y="271"/>
      <point x="421" y="271" type="curve" smooth="yes"/>
      <point x="484" y="271"/>
      <point x="515" y="229"/>
      <point x="515" y="182" type="curve" smooth="yes"/>
      <point x="515" y="114"/>
      <point x="467" y="78"/>
    </contour>
    <contour>
      <point x="1063.0" y="0.0" type="move" name="bottom_deva"/>
    </contour>
    <contour>
      <point x="869.0" y="696.0" type="move" name="center_deva"/>
    </contour>
    <contour>
      <point x="1063.0" y="696.0" type="move" name="top_deva"/>
    </contour>
  </outline>
</glyph>
<glyph name="dvDD" format="1">
  <advance width="556"/>
  <outline>
    <component base="dvDDA"/>
    <component base="dvVirama" xOffset="459" yOffset="37"/>
    <contour>
      <point x="315.0" y="37.0" type="move" name="_bottom_deva"/>
    </contour>
    <contour>
      <point x="315.0" y="37.0" type="move" name="bottom_deva"/>
    </contour>
    <contour>
      <point x="333.0" y="696.0" type="move" name="center_deva"/>
    </contour>
    <contour>
      <point x="423.0" y="696.0" type="move" name="top_deva"/>
    </contour>
  </outline>
</glyph>
<glyph name="dvDD_DDA" format="1">
  <advance width="576"/>
  <outline>
    <contour>
      <point x="329" y="123" type="curve" smooth="yes"/>
      <point x="359" y="123"/>
      <point x="385" y="126"/>
      <point x="406" y="133" type="curve"/>
      <point x="406" y="10" type="line"/>
      <point x="280" y="10" type="line" smooth="yes"/>
      <point x="209" y="10"/>
      <point x="177" y="-22"/>
      <point x="177" y="-68" type="curve" smooth="yes"/>
      <point x="177" y="-118"/>
      <point x="209" y="-151"/>
      <point x="294" y="-151" type="curve" smooth="yes"/>
      <point x="344" y="-151" type="line" smooth="yes"/>
      <point x="424" y="-151"/>
      <point x="455" y="-176"/>
      <point x="455" y="-224" type="curve" smooth="yes"/>
      <point x="455" y="-277"/>
      <point x="413" y="-306"/>
      <point x="333" y="-306" type="curve" smooth="yes"/>
      <point x="259" y="-306"/>
      <point x="190" y="-284"/>
      <point x="126" y="-233" type="curve"/>
      <point x="117" y="-249" type="line"/>
      <point x="185" y="-301"/>
      <point x="252" y="-324"/>
      <point x="334" y="-324" type="curve" smooth="yes"/>
      <point x="432" y="-324"/>
      <point x="474" y="-283"/>
      <point x="474" y="-224" type="curve" smooth="yes"/>
      <point x="474" y="-168"/>
      <point x="440" y="-133"/>
      <point x="345" y="-133" type="curve" smooth="yes"/>
      <point x="286" y="-133" type="line" smooth="yes"/>
      <point x="218" y="-133"/>
      <point x="196" y="-107"/>
      <point x="196" y="-70" type="curve" smooth="yes"/>
      <point x="196" y="-32"/>
      <point x="218" y="-8"/>
      <point x="282" y="-8" type="curve" smooth="yes"/>
      <point x="426" y="-8" type="line"/>
      <point x="426" y="140" type="line"/>
      <point x="474" y="160"/>
      <point x="495" y="197"/>
      <point x="495" y="241" type="curve" smooth="yes" name="hr01"/>
      <point x="495" y="312"/>
      <point x="444" y="346"/>
      <point x="350" y="346" type="curve" smooth="yes"/>
      <point x="270" y="346" type="line" smooth="yes"/>
      <point x="198" y="346"/>
      <point x="173" y="380"/>
      <point x="173" y="417" type="curve" smooth="yes"/>
      <point x="173" y="460"/>
      <point x="200" y="488"/>
      <point x="272" y="488" type="curve" smooth="yes"/>
      <point x="442" y="488" type="line"/>
      <point x="442" y="679" type="line"/>
      <point x="596" y="679" type="line"/>
      <point x="596" y="698" type="line"/>
      <point x="-20" y="698" type="line"/>
      <point x="-20" y="679" type="line"/>
      <point x="421" y="679" type="line"/>
      <point x="421" y="507" type="line"/>
      <point x="270" y="507" type="line" smooth="yes"/>
      <point x="188" y="507"/>
      <point x="152" y="469"/>
      <point x="152" y="418" type="curve" smooth="yes"/>
      <point x="152" y="368"/>
      <point x="187" y="327"/>
      <point x="278" y="327" type="curve" smooth="yes"/>
      <point x="349" y="327" type="line" smooth="yes"/>
      <point x="432" y="327"/>
      <point x="474" y="301"/>
      <point x="474" y="240" type="curve" smooth="yes"/>
      <point x="474" y="180"/>
      <point x="427" y="142"/>
      <point x="327" y="142" type="curve" smooth="yes"/>
      <point x="240" y="142"/>
      <point x="171" y="166"/>
      <point x="102" y="231" type="curve"/>
      <point x="90" y="216" type="line"/>
      <point x="163" y="149"/>
      <point x="235" y="123"/>
    </contour>
    <contour>
      <point x="342.0" y="-324.0" type="move" name="bottom_deva"/>
    </contour>
    <contour>
      <point x="357.0" y="696.0" type="move" name="center_deva"/>
    </contour>
    <contour>
      <point x="442.0" y="696.0" type="move" name="top_deva"/>
    </contour>
  </outline>
</glyph>
<glyph name="dvDD_SA" format="1">
  <advance width="575"/>
  <outline>
    <contour>
      <point x="224" y="-276" type="line"/>
      <point x="239" y="-266" type="line"/>
      <point x="137" y="-118" type="line"/>
      <point x="105" y="-72" type="line"/>
      <point x="105" y="-70" type="line"/>
      <point x="422" y="-70" type="line"/>
      <point x="422" y="-274" type="line"/>
      <point x="441" y="-274" type="line"/>
      <point x="441" y="148" type="line"/>
      <point x="478" y="169"/>
      <point x="494" y="203"/>
      <point x="494" y="241" type="curve" smooth="yes"/>
      <point x="494" y="312"/>
      <point x="443" y="346"/>
      <point x="359" y="346" type="curve" smooth="yes"/>
      <point x="270" y="346" type="line" smooth="yes"/>
      <point x="198" y="346"/>
      <point x="173" y="380"/>
      <point x="173" y="417" type="curve" smooth="yes"/>
      <point x="173" y="460"/>
      <point x="200" y="488"/>
      <point x="272" y="488" type="curve" smooth="yes"/>
      <point x="442" y="488" type="line" name="hr01"/>
      <point x="442" y="679" type="line"/>
      <point x="595" y="679" type="line"/>
      <point x="595" y="698" type="line"/>
      <point x="-20" y="698" type="line"/>
      <point x="-20" y="679" type="line"/>
      <point x="421" y="679" type="line"/>
      <point x="421" y="507" type="line"/>
      <point x="270" y="507" type="line" smooth="yes"/>
      <point x="188" y="507"/>
      <point x="152" y="469"/>
      <point x="152" y="418" type="curve" smooth="yes"/>
      <point x="152" y="368"/>
      <point x="187" y="327"/>
      <point x="278" y="327" type="curve" smooth="yes"/>
      <point x="358" y="327" type="line" smooth="yes"/>
      <point x="431" y="327"/>
      <point x="473" y="301"/>
      <point x="473" y="240" type="curve" smooth="yes"/>
      <point x="473" y="180"/>
      <point x="426" y="142"/>
      <point x="326" y="142" type="curve" smooth="yes"/>
      <point x="239" y="142"/>
      <point x="170" y="166"/>
      <point x="101" y="231" type="curve"/>
      <point x="89" y="216" type="line"/>
      <point x="123" y="184"/>
      <point x="158" y="162"/>
      <point x="194" y="147" type="curve"/>
      <point x="194" y="53" type="line" smooth="yes"/>
      <point x="194" y="-13"/>
      <point x="152" y="-54"/>
      <point x="81" y="-54" type="curve" smooth="yes"/>
      <point x="80" y="-54" type="line"/>
      <point x="80" y="-67" type="line"/>
    </contour>
    <contour>
      <point x="153" y="-53" type="line"/>
      <point x="188" y="-34"/>
      <point x="214" y="-3"/>
      <point x="214" y="60" type="curve" smooth="yes"/>
      <point x="214" y="139" type="line"/>
      <point x="215" y="140" type="line"/>
      <point x="248" y="129"/>
      <point x="286" y="123"/>
      <point x="328" y="123" type="curve" smooth="yes"/>
      <point x="367" y="123"/>
      <point x="397" y="130"/>
      <point x="421" y="139" type="curve"/>
      <point x="422" y="138" type="line" name="hr02"/>
      <point x="422" y="-53" type="line"/>
      <point x="248" y="-53" type="line"/>
      <point x="153" y="-54" type="line"/>
    </contour>
    <contour>
      <point x="442.0" y="-273.0" type="move" name="bottom_deva"/>
    </contour>
    <contour>
      <point x="342.0" y="696.0" type="move" name="center_deva"/>
    </contour>
    <contour>
      <point x="442.0" y="696.0" type="move" name="top_deva"/>
    </contour>
  </outline>
</glyph>
<glyph name="dvDH_NA" format="1">
  <advance width="685"/>
  <outline>
    <contour>
      <point x="212" y="-53" type="curve" smooth="yes" name="hr00"/>
      <point x="223" y="-53"/>
      <point x="231" y="-47"/>
      <point x="234" y="-38" type="curve"/>
      <point x="206" y="1" type="line"/>
      <point x="452" y="178" type="line" smooth="yes"/>
      <point x="482" y="200"/>
      <point x="502" y="226"/>
      <point x="517" y="252" type="curve"/>
      <point x="520" y="252" type="line"/>
      <point x="520" y="0" type="line"/>
      <point x="541" y="0" type="line"/>
      <point x="541" y="679" type="line"/>
      <point x="705" y="679" type="line"/>
      <point x="705" y="698" type="line"/>
      <point x="520" y="698" type="line"/>
      <point x="520" y="335" type="line" smooth="yes"/>
      <point x="520" y="244"/>
      <point x="438" y="151"/>
      <point x="292" y="151" type="curve" smooth="yes"/>
      <point x="184" y="151"/>
      <point x="136" y="209"/>
      <point x="136" y="280" type="curve" smooth="yes"/>
      <point x="136" y="353"/>
      <point x="183" y="414"/>
      <point x="296" y="414" type="curve" smooth="yes"/>
      <point x="357" y="414" type="line"/>
      <point x="357" y="433" type="line"/>
      <point x="297" y="433" type="line" smooth="yes"/>
      <point x="167" y="433"/>
      <point x="111" y="490"/>
      <point x="111" y="566" type="curve" smooth="yes"/>
      <point x="111" y="636"/>
      <point x="157" y="679"/>
      <point x="231" y="679" type="curve" smooth="yes"/>
      <point x="267" y="679"/>
      <point x="293" y="670"/>
      <point x="318" y="656" type="curve"/>
      <point x="327" y="673" type="line"/>
      <point x="302" y="687"/>
      <point x="270" y="698"/>
      <point x="229" y="698" type="curve" smooth="yes"/>
      <point x="142" y="698"/>
      <point x="90" y="643"/>
      <point x="90" y="567" type="curve" smooth="yes"/>
      <point x="90" y="491"/>
      <point x="146" y="433"/>
      <point x="229" y="424" type="curve"/>
      <point x="229" y="421" type="line"/>
      <point x="157" y="407"/>
      <point x="114" y="355"/>
      <point x="114" y="279" type="curve" smooth="yes"/>
      <point x="114" y="197"/>
      <point x="172" y="132"/>
      <point x="292" y="132" type="curve" smooth="yes"/>
      <point x="321" y="132"/>
      <point x="352" y="138"/>
      <point x="373" y="144" type="curve"/>
      <point x="374" y="141" type="line"/>
      <point x="301" y="92" type="line"/>
      <point x="196" y="19" type="line" smooth="yes"/>
      <point x="179" y="7"/>
      <point x="174" y="-1"/>
      <point x="174" y="-12" type="curve" smooth="yes"/>
      <point x="174" y="-32"/>
      <point x="191" y="-53"/>
    </contour>
    <contour>
      <point x="541.0" y="0.0" type="move" name="bottom_deva"/>
    </contour>
    <contour>
      <point x="373.0" y="696.0" type="move" name="center_deva"/>
    </contour>
    <contour>
      <point x="541.0" y="696.0" type="move" name="top_deva"/>
    </contour>
  </outline>
</glyph>
<glyph name="dvD_MA" format="1">
  <advance width="719"/>
  <outline>
    <contour>
      <point x="319" y="100" type="curve" smooth="yes" name="hr00"/>
      <point x="326" y="100"/>
      <point x="331" y="101"/>
      <point x="336" y="103" type="curve"/>
      <point x="336" y="157" type="line"/>
      <point x="554" y="157" type="line"/>
      <point x="554" y="0" type="line"/>
      <point x="575" y="0" type="line"/>
      <point x="575" y="679" type="line"/>
      <point x="739" y="679" type="line"/>
      <point x="739" y="698" type="line"/>
      <point x="-20" y="698" type="line"/>
      <point x="-20" y="679" type="line"/>
      <point x="282" y="679" type="line"/>
      <point x="282" y="524" type="line"/>
      <point x="177" y="524" type="line" smooth="yes"/>
      <point x="91" y="524"/>
      <point x="48" y="482"/>
      <point x="48" y="418" type="curve" smooth="yes"/>
      <point x="48" y="354"/>
      <point x="85" y="308"/>
      <point x="182" y="308" type="curve" smooth="yes"/>
      <point x="204" y="308" type="line" smooth="yes"/>
      <point x="283" y="308"/>
      <point x="317" y="269"/>
      <point x="317" y="206" type="curve" smooth="yes"/>
      <point x="317" y="175" type="line"/>
      <point x="299" y="173"/>
      <point x="290" y="159"/>
      <point x="290" y="138" type="curve" smooth="yes"/>
      <point x="290" y="114"/>
      <point x="301" y="100"/>
    </contour>
    <contour>
      <point x="303" y="679" type="line"/>
      <point x="554" y="679" type="line"/>
      <point x="554" y="176" type="line"/>
      <point x="336" y="176" type="line"/>
      <point x="336" y="205" type="line" smooth="yes"/>
      <point x="336" y="281"/>
      <point x="292" y="327"/>
      <point x="203" y="327" type="curve" smooth="yes"/>
      <point x="174" y="327" type="line" smooth="yes"/>
      <point x="96" y="327"/>
      <point x="69" y="364"/>
      <point x="69" y="412" type="curve" smooth="yes"/>
      <point x="69" y="425" type="line" smooth="yes"/>
      <point x="69" y="470"/>
      <point x="102" y="505"/>
      <point x="176" y="505" type="curve" smooth="yes"/>
      <point x="303" y="505" type="line"/>
    </contour>
    <contour>
      <point x="575.0" y="0.0" type="move" name="bottom_deva"/>
    </contour>
    <contour>
      <point x="428.0" y="696.0" type="move" name="center_deva"/>
    </contour>
    <contour>
      <point x="575.0" y="696.0" type="move" name="top_deva"/>
    </contour>
  </outline>
</glyph>
<glyph name="dvD_R" format="1">
  <advance width="577"/>
  <outline>
    <contour>
      <point x="197" y="-87" type="line" name="hr00"/>
      <point x="411" y="84" type="line"/>
      <point x="432" y="102" type="line"/>
      <point x="434" y="102" type="line"/>
      <point x="439" y="86" type="line"/>
      <point x="493" y="-73" type="line"/>
      <point x="510" y="-67" type="line"/>
      <point x="455" y="94" type="line"/>
      <point x="449" y="111" type="line"/>
      <point x="464" y="121"/>
      <point x="468" y="128"/>
      <point x="468" y="140" type="curve" smooth="yes"/>
      <point x="468" y="159"/>
      <point x="457" y="180"/>
      <point x="436" y="180" type="curve" smooth="yes"/>
      <point x="425" y="180"/>
      <point x="414" y="176"/>
      <point x="408" y="171" type="curve"/>
      <point x="426" y="121" type="line"/>
      <point x="403" y="111"/>
      <point x="362" y="102"/>
      <point x="316" y="102" type="curve" smooth="yes"/>
      <point x="179" y="102"/>
      <point x="118" y="184"/>
      <point x="118" y="274" type="curve" smooth="yes"/>
      <point x="118" y="295" type="line" smooth="yes"/>
      <point x="118" y="396"/>
      <point x="185" y="461"/>
      <point x="316" y="461" type="curve" smooth="yes"/>
      <point x="440" y="461" type="line"/>
      <point x="440" y="679" type="line"/>
      <point x="597" y="679" type="line"/>
      <point x="597" y="698" type="line"/>
      <point x="-20" y="698" type="line"/>
      <point x="-20" y="679" type="line"/>
      <point x="419" y="679" type="line"/>
      <point x="419" y="481" type="line"/>
      <point x="314" y="481" type="line" smooth="yes"/>
      <point x="174" y="481"/>
      <point x="95" y="412"/>
      <point x="95" y="287" type="curve" smooth="yes"/>
      <point x="95" y="169"/>
      <point x="168" y="84"/>
      <point x="316" y="84" type="curve" smooth="yes"/>
      <point x="345" y="84"/>
      <point x="373" y="88"/>
      <point x="395" y="94" type="curve"/>
      <point x="396" y="92" type="line"/>
      <point x="347" y="55" type="line"/>
      <point x="184" y="-72" type="line"/>
    </contour>
    <contour>
      <point x="496" y="-258" type="line"/>
      <point x="508" y="-245" type="line"/>
      <point x="386" y="-138" type="line" smooth="yes"/>
      <point x="375" y="-128"/>
      <point x="372" y="-126"/>
      <point x="356" y="-126" type="curve" smooth="yes"/>
      <point x="295" y="-126" type="line"/>
      <point x="295" y="-144" type="line"/>
      <point x="366" y="-144" type="line"/>
    </contour>
    <contour>
      <point x="510.0" y="-70.0" type="move" name="bottom_deva"/>
    </contour>
    <contour>
      <point x="313.0" y="696.0" type="move" name="center_deva"/>
    </contour>
    <contour>
      <point x="440.0" y="696.0" type="move" name="top_deva"/>
    </contour>
  </outline>
</glyph>
<glyph name="dvD_YA" format="1">
  <advance width="714"/>
  <outline>
    <contour>
      <point x="549" y="0" type="line"/>
      <point x="570" y="0" type="line"/>
      <point x="570" y="679" type="line"/>
      <point x="734" y="679" type="line"/>
      <point x="734" y="698" type="line"/>
      <point x="-20" y="698" type="line"/>
      <point x="-20" y="679" type="line"/>
      <point x="323" y="679" type="line"/>
      <point x="323" y="542" type="line"/>
      <point x="251" y="542" type="line" smooth="yes"/>
      <point x="150" y="542"/>
      <point x="106" y="498"/>
      <point x="106" y="429" type="curve" smooth="yes"/>
      <point x="106" y="377"/>
      <point x="136" y="332"/>
      <point x="206" y="317" type="curve"/>
      <point x="206" y="313" type="line"/>
      <point x="151" y="298"/>
      <point x="110" y="256"/>
      <point x="110" y="190" type="curve" smooth="yes" name="hr01"/>
      <point x="110" y="111"/>
      <point x="164" y="49"/>
      <point x="291" y="49" type="curve" smooth="yes"/>
      <point x="414" y="49"/>
      <point x="505" y="110"/>
      <point x="547" y="186" type="curve"/>
      <point x="549" y="186" type="line"/>
    </contour>
    <contour>
      <point x="344" y="679" type="line"/>
      <point x="549" y="679" type="line"/>
      <point x="549" y="266" type="line" smooth="yes"/>
      <point x="549" y="153"/>
      <point x="419" y="67"/>
      <point x="291" y="67" type="curve" smooth="yes"/>
      <point x="175" y="67"/>
      <point x="132" y="126"/>
      <point x="132" y="181" type="curve" smooth="yes"/>
      <point x="132" y="197" type="line" smooth="yes"/>
      <point x="132" y="252"/>
      <point x="175" y="309"/>
      <point x="303" y="309" type="curve" smooth="yes"/>
      <point x="344" y="309" type="line"/>
      <point x="344" y="328" type="line"/>
      <point x="258" y="328" type="line" smooth="yes"/>
      <point x="170" y="328"/>
      <point x="127" y="373"/>
      <point x="127" y="423" type="curve" smooth="yes" name="hr02"/>
      <point x="127" y="436" type="line" smooth="yes"/>
      <point x="127" y="485"/>
      <point x="162" y="523"/>
      <point x="250" y="523" type="curve" smooth="yes"/>
      <point x="344" y="523" type="line"/>
    </contour>
    <contour>
      <point x="570.0" y="0.0" type="move" name="bottom_deva"/>
    </contour>
    <contour>
      <point x="455.0" y="688.0" type="move" name="center_deva"/>
    </contour>
    <contour>
      <point x="570.0" y="696.0" type="move" name="top_deva"/>
    </contour>
  </outline>
</glyph>
<glyph name="dvGH_YA" format="1">
  <advance width="1127"/>
  <outline>
    <contour>
      <point x="962" y="0" type="line"/>
      <point x="983" y="0" type="line"/>
      <point x="983" y="679" type="line"/>
      <point x="1147" y="679" type="line"/>
      <point x="1147" y="698" type="line"/>
      <point x="-20" y="698" type="line"/>
      <point x="-20" y="679" type="line"/>
      <point x="201" y="679" type="line"/>
      <point x="201" y="676" type="line"/>
      <point x="155" y="658"/>
      <point x="126" y="621"/>
      <point x="126" y="563" type="curve" smooth="yes"/>
      <point x="126" y="494"/>
      <point x="176" y="449"/>
      <point x="244" y="437" type="curve"/>
      <point x="244" y="434" type="line"/>
      <point x="182" y="420"/>
      <point x="130" y="373"/>
      <point x="130" y="291" type="curve" smooth="yes" name="hr01"/>
      <point x="130" y="204"/>
      <point x="195" y="138"/>
      <point x="313" y="138" type="curve" smooth="yes"/>
      <point x="426" y="138"/>
      <point x="504" y="191"/>
      <point x="548" y="276" type="curve"/>
      <point x="550" y="276" type="line"/>
      <point x="574" y="206"/>
      <point x="638" y="162"/>
      <point x="741" y="162" type="curve" smooth="yes"/>
      <point x="859" y="162"/>
      <point x="927" y="218"/>
      <point x="959" y="266" type="curve"/>
      <point x="962" y="266" type="line"/>
    </contour>
    <contour>
      <point x="315" y="157" type="curve" smooth="yes"/>
      <point x="201" y="157"/>
      <point x="152" y="216"/>
      <point x="152" y="291" type="curve" smooth="yes"/>
      <point x="152" y="376"/>
      <point x="211" y="426"/>
      <point x="317" y="426" type="curve" smooth="yes"/>
      <point x="383" y="426" type="line"/>
      <point x="383" y="445" type="line"/>
      <point x="314" y="445" type="line" smooth="yes"/>
      <point x="194" y="445"/>
      <point x="148" y="498"/>
      <point x="148" y="563" type="curve" smooth="yes" name="hr02"/>
      <point x="148" y="633"/>
      <point x="201" y="679"/>
      <point x="290" y="679" type="curve" smooth="yes"/>
      <point x="704" y="679" type="line"/>
      <point x="704" y="540" type="line" smooth="yes"/>
      <point x="704" y="455"/>
      <point x="677" y="426"/>
      <point x="586" y="426" type="curve" smooth="yes"/>
      <point x="534" y="426" type="line"/>
      <point x="534" y="363" type="line" smooth="yes"/>
      <point x="534" y="343"/>
      <point x="536" y="327"/>
      <point x="540" y="304" type="curve"/>
      <point x="499" y="215"/>
      <point x="423" y="157"/>
    </contour>
    <contour>
      <point x="741" y="181" type="curve" smooth="yes"/>
      <point x="619" y="181"/>
      <point x="555" y="248"/>
      <point x="555" y="356" type="curve" smooth="yes"/>
      <point x="555" y="407" type="line" name="hr03"/>
      <point x="589" y="407" type="line" smooth="yes"/>
      <point x="686" y="407"/>
      <point x="725" y="444"/>
      <point x="725" y="536" type="curve" smooth="yes"/>
      <point x="725" y="679" type="line"/>
      <point x="962" y="679" type="line"/>
      <point x="962" y="340" type="line" smooth="yes"/>
      <point x="962" y="262"/>
      <point x="875" y="181"/>
    </contour>
    <contour>
      <point x="983.0" y="0.0" type="move" name="bottom_deva"/>
    </contour>
    <contour>
      <point x="846.0" y="696.0" type="move" name="center_deva"/>
    </contour>
    <contour>
      <point x="983.0" y="696.0" type="move" name="top_deva"/>
    </contour>
  </outline>
</glyph>
<glyph name="dvG" format="1">
  <advance width="281"/>
  <outline>
    <contour>
      <point x="158" y="307" type="curve" smooth="yes" name="hr00"/>
      <point x="163" y="307"/>
      <point x="170" y="308"/>
      <point x="173" y="309" type="curve"/>
      <point x="173" y="679" type="line"/>
      <point x="351" y="679" type="line"/>
      <point x="351" y="698" type="line"/>
      <point x="-20" y="698" type="line"/>
      <point x="-20" y="679" type="line"/>
      <point x="152" y="679" type="line"/>
      <point x="152" y="374" type="line"/>
      <point x="136" y="374"/>
      <point x="124" y="362"/>
      <point x="124" y="341" type="curve" smooth="yes"/>
      <point x="124" y="321"/>
      <point x="136" y="307"/>
    </contour>
  </outline>
</glyph>
<glyph name="dvG_BA" format="1">
  <advance width="939"/>
  <outline>
    <contour>
      <point x="158" y="307" type="curve" smooth="yes" name="hr00"/>
      <point x="163" y="307"/>
      <point x="170" y="308"/>
      <point x="173" y="309" type="curve"/>
      <point x="173" y="679" type="line"/>
      <point x="774" y="679" type="line"/>
      <point x="774" y="404" type="line"/>
      <point x="771" y="404" type="line"/>
      <point x="740" y="445"/>
      <point x="680" y="489"/>
      <point x="586" y="489" type="curve" smooth="yes"/>
      <point x="470" y="489"/>
      <point x="395" y="413"/>
      <point x="395" y="312" type="curve" smooth="yes"/>
      <point x="395" y="200"/>
      <point x="481" y="132"/>
      <point x="586" y="132" type="curve" smooth="yes"/>
      <point x="678" y="132"/>
      <point x="740" y="180"/>
      <point x="771" y="226" type="curve"/>
      <point x="774" y="226" type="line"/>
      <point x="774" y="0" type="line"/>
      <point x="795" y="0" type="line"/>
      <point x="795" y="679" type="line"/>
      <point x="959" y="679" type="line"/>
      <point x="959" y="698" type="line"/>
      <point x="-20" y="698" type="line"/>
      <point x="-20" y="679" type="line"/>
      <point x="152" y="679" type="line"/>
      <point x="152" y="374" type="line"/>
      <point x="136" y="374"/>
      <point x="124" y="362"/>
      <point x="124" y="341" type="curve" smooth="yes"/>
      <point x="124" y="321"/>
      <point x="136" y="307"/>
    </contour>
    <contour>
      <point x="687" y="243" type="line"/>
      <point x="520" y="399" type="line"/>
      <point x="478" y="439" type="line"/>
      <point x="484" y="443"/>
      <point x="490" y="447"/>
      <point x="496" y="450" type="curve" smooth="yes"/>
      <point x="524" y="463"/>
      <point x="555" y="470"/>
      <point x="587" y="470" type="curve" smooth="yes"/>
      <point x="694" y="470"/>
      <point x="775" y="399"/>
      <point x="775" y="345" type="curve" smooth="yes"/>
      <point x="775" y="291" type="line" smooth="yes"/>
      <point x="775" y="262"/>
      <point x="756" y="229"/>
      <point x="729" y="203" type="curve"/>
    </contour>
    <contour>
      <point x="585" y="151" type="curve" smooth="yes"/>
      <point x="488" y="151"/>
      <point x="417" y="214"/>
      <point x="417" y="300" type="curve" smooth="yes"/>
      <point x="417" y="320" type="line" smooth="yes"/>
      <point x="417" y="368"/>
      <point x="438" y="404"/>
      <point x="464" y="428" type="curve"/>
      <point x="506" y="387" type="line"/>
      <point x="676" y="227" type="line"/>
      <point x="715" y="191" type="line"/>
      <point x="706" y="184"/>
      <point x="696" y="178"/>
      <point x="686" y="173" type="curve" smooth="yes"/>
      <point x="659" y="160"/>
      <point x="630" y="151"/>
    </contour>
    <contour>
      <point x="795.0" y="0.0" type="move" name="bottom_deva"/>
    </contour>
    <contour>
      <point x="611.0" y="696.0" type="move" name="center_deva"/>
    </contour>
    <contour>
      <point x="795.0" y="696.0" type="move" name="top_deva"/>
    </contour>
  </outline>
</glyph>
<glyph name="dvG_BHA" format="1">
  <advance width="925"/>
  <outline>
    <contour>
      <point x="158" y="307" type="curve" smooth="yes" name="hr00"/>
      <point x="163" y="307"/>
      <point x="170" y="308"/>
      <point x="173" y="309" type="curve"/>
      <point x="173" y="679" type="line"/>
      <point x="457" y="679" type="line"/>
      <point x="457" y="353" type="line"/>
      <point x="441" y="350"/>
      <point x="432" y="337"/>
      <point x="432" y="321" type="curve" smooth="yes"/>
      <point x="432" y="302"/>
      <point x="442" y="288"/>
      <point x="462" y="288" type="curve" smooth="yes"/>
      <point x="468" y="288"/>
      <point x="474" y="289"/>
      <point x="478" y="291" type="curve"/>
      <point x="478" y="335" type="line"/>
      <point x="760" y="335" type="line"/>
      <point x="760" y="0" type="line"/>
      <point x="781" y="0" type="line"/>
      <point x="781" y="679" type="line"/>
      <point x="945" y="679" type="line"/>
      <point x="945" y="698" type="line"/>
      <point x="760" y="698" type="line"/>
      <point x="760" y="354" type="line"/>
      <point x="478" y="354" type="line"/>
      <point x="478" y="675" type="line" smooth="yes"/>
      <point x="478" y="692"/>
      <point x="470" y="698"/>
      <point x="456" y="698" type="curve" smooth="yes"/>
      <point x="-20" y="698" type="line"/>
      <point x="-20" y="679" type="line"/>
      <point x="152" y="679" type="line"/>
      <point x="152" y="374" type="line"/>
      <point x="136" y="374"/>
      <point x="124" y="362"/>
      <point x="124" y="341" type="curve" smooth="yes"/>
      <point x="124" y="321"/>
      <point x="136" y="307"/>
    </contour>
    <contour>
      <point x="781.0" y="0.0" type="move" name="bottom_deva"/>
    </contour>
    <contour>
      <point x="613.0" y="696.0" type="move" name="center_deva"/>
    </contour>
    <contour>
      <point x="781.0" y="696.0" type="move" name="top_deva"/>
    </contour>
  </outline>
</glyph>
<glyph name="dvG_DA" format="1">
  <advance width="884"/>
  <outline>
    <contour>
      <point x="158" y="307" type="curve" smooth="yes" name="hr00"/>
      <point x="163" y="307"/>
      <point x="170" y="308"/>
      <point x="173" y="309" type="curve"/>
      <point x="173" y="679" type="line"/>
      <point x="726" y="679" type="line"/>
      <point x="726" y="481" type="line"/>
      <point x="621" y="481" type="line" smooth="yes"/>
      <point x="481" y="481"/>
      <point x="402" y="412"/>
      <point x="402" y="287" type="curve" smooth="yes"/>
      <point x="402" y="169"/>
      <point x="475" y="83"/>
      <point x="623" y="83" type="curve" smooth="yes"/>
      <point x="671" y="83"/>
      <point x="710" y="91"/>
      <point x="740" y="104" type="curve"/>
      <point x="746" y="86" type="line"/>
      <point x="793" y="-52" type="line"/>
      <point x="810" y="-46" type="line"/>
      <point x="762" y="94" type="line"/>
      <point x="756" y="111" type="line"/>
      <point x="770" y="120"/>
      <point x="775" y="127"/>
      <point x="775" y="140" type="curve" smooth="yes"/>
      <point x="775" y="159"/>
      <point x="764" y="180"/>
      <point x="743" y="180" type="curve" smooth="yes"/>
      <point x="732" y="180"/>
      <point x="721" y="176"/>
      <point x="715" y="171" type="curve"/>
      <point x="733" y="121" type="line"/>
      <point x="710" y="111"/>
      <point x="670" y="102"/>
      <point x="623" y="102" type="curve" smooth="yes"/>
      <point x="486" y="102"/>
      <point x="425" y="184"/>
      <point x="425" y="274" type="curve" smooth="yes"/>
      <point x="425" y="295" type="line" smooth="yes"/>
      <point x="425" y="396"/>
      <point x="492" y="461"/>
      <point x="623" y="461" type="curve" smooth="yes"/>
      <point x="747" y="461" type="line"/>
      <point x="747" y="679" type="line"/>
      <point x="904" y="679" type="line"/>
      <point x="904" y="698" type="line"/>
      <point x="-20" y="698" type="line"/>
      <point x="-20" y="679" type="line"/>
      <point x="152" y="679" type="line"/>
      <point x="152" y="374" type="line"/>
      <point x="136" y="374"/>
      <point x="124" y="362"/>
      <point x="124" y="341" type="curve" smooth="yes"/>
      <point x="124" y="321"/>
      <point x="136" y="307"/>
    </contour>
    <contour>
      <point x="810.0" y="-49.0" type="move" name="bottom_deva"/>
    </contour>
    <contour>
      <point x="620.0" y="696.0" type="move" name="center_deva"/>
    </contour>
    <contour>
      <point x="747.0" y="696.0" type="move" name="top_deva"/>
    </contour>
  </outline>
</glyph>
<glyph name="dvG_DHA" format="1">
  <advance width="1022"/>
  <outline>
    <contour>
      <point x="857" y="0" type="line" name="hr00"/>
      <point x="878" y="0" type="line"/>
      <point x="878" y="679" type="line"/>
      <point x="1042" y="679" type="line"/>
      <point x="1042" y="698" type="line"/>
      <point x="857" y="698" type="line"/>
      <point x="857" y="335" type="line" smooth="yes"/>
      <point x="857" y="244"/>
      <point x="775" y="151"/>
      <point x="629" y="151" type="curve" smooth="yes"/>
      <point x="521" y="151"/>
      <point x="473" y="209"/>
      <point x="473" y="280" type="curve" smooth="yes"/>
      <point x="473" y="353"/>
      <point x="520" y="414"/>
      <point x="633" y="414" type="curve" smooth="yes"/>
      <point x="694" y="414" type="line"/>
      <point x="694" y="433" type="line"/>
      <point x="634" y="433" type="line" smooth="yes"/>
      <point x="504" y="433"/>
      <point x="448" y="490"/>
      <point x="448" y="566" type="curve" smooth="yes"/>
      <point x="448" y="636"/>
      <point x="494" y="679"/>
      <point x="568" y="679" type="curve" smooth="yes"/>
      <point x="604" y="679"/>
      <point x="630" y="670"/>
      <point x="655" y="656" type="curve"/>
      <point x="664" y="673" type="line"/>
      <point x="639" y="687"/>
      <point x="607" y="698"/>
      <point x="566" y="698" type="curve" smooth="yes"/>
      <point x="479" y="698"/>
      <point x="427" y="643"/>
      <point x="427" y="567" type="curve" smooth="yes"/>
      <point x="427" y="491"/>
      <point x="483" y="433"/>
      <point x="566" y="424" type="curve"/>
      <point x="566" y="421" type="line"/>
      <point x="494" y="407"/>
      <point x="451" y="355"/>
      <point x="451" y="279" type="curve" smooth="yes"/>
      <point x="451" y="197"/>
      <point x="509" y="132"/>
      <point x="629" y="132" type="curve" smooth="yes"/>
      <point x="758" y="132"/>
      <point x="821" y="193"/>
      <point x="854" y="252" type="curve"/>
      <point x="857" y="252" type="line"/>
    </contour>
    <contour>
      <point x="158" y="307" type="curve" smooth="yes"/>
      <point x="163" y="307"/>
      <point x="170" y="308"/>
      <point x="173" y="309" type="curve"/>
      <point x="173" y="679" type="line"/>
      <point x="371" y="679" type="line"/>
      <point x="371" y="698" type="line"/>
      <point x="-20" y="698" type="line"/>
      <point x="-20" y="679" type="line"/>
      <point x="152" y="679" type="line"/>
      <point x="152" y="374" type="line"/>
      <point x="136" y="374"/>
      <point x="124" y="362"/>
      <point x="124" y="341" type="curve" smooth="yes"/>
      <point x="124" y="321"/>
      <point x="136" y="307"/>
    </contour>
    <contour>
      <point x="878.0" y="0.0" type="move" name="bottom_deva"/>
    </contour>
    <contour>
      <point x="710.0" y="696.0" type="move" name="center_deva"/>
    </contour>
    <contour>
      <point x="878.0" y="696.0" type="move" name="top_deva"/>
    </contour>
  </outline>
</glyph>
<glyph name="dvG_DH_YA" format="1">
  <advance width="1405"/>
  <outline>
    <contour>
      <point x="1240" y="0" type="line"/>
      <point x="1261" y="0" type="line"/>
      <point x="1261" y="679" type="line"/>
      <point x="1425" y="679" type="line"/>
      <point x="1425" y="698" type="line"/>
      <point x="790" y="698" type="line"/>
      <point x="790" y="679" type="line"/>
      <point x="992" y="679" type="line"/>
      <point x="992" y="541" type="line" smooth="yes"/>
      <point x="992" y="455"/>
      <point x="964" y="426"/>
      <point x="874" y="426" type="curve" smooth="yes"/>
      <point x="822" y="426" type="line"/>
      <point x="822" y="359" type="line" smooth="yes"/>
      <point x="822" y="332"/>
      <point x="826" y="307"/>
      <point x="833" y="285" type="curve"/>
      <point x="799" y="206"/>
      <point x="729" y="151"/>
      <point x="611" y="151" type="curve" smooth="yes"/>
      <point x="503" y="151"/>
      <point x="455" y="209"/>
      <point x="455" y="280" type="curve" smooth="yes"/>
      <point x="455" y="353"/>
      <point x="502" y="414"/>
      <point x="615" y="414" type="curve" smooth="yes" name="hr01"/>
      <point x="676" y="414" type="line"/>
      <point x="676" y="433" type="line"/>
      <point x="616" y="433" type="line" smooth="yes"/>
      <point x="489" y="433"/>
      <point x="430" y="488"/>
      <point x="430" y="566" type="curve" smooth="yes"/>
      <point x="430" y="633"/>
      <point x="473" y="679"/>
      <point x="550" y="679" type="curve" smooth="yes"/>
      <point x="585" y="679"/>
      <point x="613" y="670"/>
      <point x="637" y="656" type="curve"/>
      <point x="646" y="673" type="line"/>
      <point x="622" y="687"/>
      <point x="588" y="698"/>
      <point x="548" y="698" type="curve" smooth="yes"/>
      <point x="460" y="698"/>
      <point x="409" y="642"/>
      <point x="409" y="566" type="curve" smooth="yes"/>
      <point x="409" y="491"/>
      <point x="465" y="433"/>
      <point x="548" y="424" type="curve"/>
      <point x="548" y="421" type="line"/>
      <point x="476" y="407"/>
      <point x="433" y="355"/>
      <point x="433" y="279" type="curve" smooth="yes"/>
      <point x="433" y="197"/>
      <point x="492" y="132"/>
      <point x="611" y="132" type="curve" smooth="yes"/>
      <point x="724" y="132"/>
      <point x="800" y="178"/>
      <point x="842" y="257" type="curve"/>
      <point x="845" y="257" type="line"/>
      <point x="874" y="198"/>
      <point x="936" y="162"/>
      <point x="1029" y="162" type="curve" smooth="yes"/>
      <point x="1146" y="162"/>
      <point x="1208" y="215"/>
      <point x="1237" y="264" type="curve"/>
      <point x="1240" y="264" type="line"/>
    </contour>
    <contour>
      <point x="158" y="307" type="curve" smooth="yes"/>
      <point x="163" y="307"/>
      <point x="170" y="308"/>
      <point x="173" y="309" type="curve"/>
      <point x="173" y="679" type="line"/>
      <point x="371" y="679" type="line"/>
      <point x="371" y="698" type="line"/>
      <point x="-20" y="698" type="line"/>
      <point x="-20" y="679" type="line"/>
      <point x="152" y="679" type="line"/>
      <point x="152" y="374" type="line"/>
      <point x="136" y="374"/>
      <point x="124" y="362"/>
      <point x="124" y="341" type="curve" smooth="yes"/>
      <point x="124" y="321"/>
      <point x="136" y="307"/>
    </contour>
    <contour>
      <point x="1029" y="181" type="curve" smooth="yes"/>
      <point x="907" y="181"/>
      <point x="843" y="248"/>
      <point x="843" y="356" type="curve" smooth="yes"/>
      <point x="843" y="407" type="line" name="hr02"/>
      <point x="877" y="407" type="line" smooth="yes"/>
      <point x="974" y="407"/>
      <point x="1013" y="444"/>
      <point x="1013" y="536" type="curve" smooth="yes"/>
      <point x="1013" y="679" type="line"/>
      <point x="1240" y="679" type="line"/>
      <point x="1240" y="340" type="line" smooth="yes"/>
      <point x="1240" y="263"/>
      <point x="1164" y="181"/>
    </contour>
    <contour>
      <point x="1261.0" y="0.0" type="move" name="bottom_deva"/>
    </contour>
    <contour>
      <point x="1134.0" y="696.0" type="move" name="center_deva"/>
    </contour>
    <contour>
      <point x="1261.0" y="696.0" type="move" name="top_deva"/>
    </contour>
  </outline>
</glyph>
<glyph name="dvG_GA" format="1">
  <advance width="910"/>
  <outline>
    <contour>
      <point x="158" y="307" type="curve" smooth="yes" name="hr00"/>
      <point x="163" y="307"/>
      <point x="170" y="308"/>
      <point x="173" y="309" type="curve"/>
      <point x="173" y="679" type="line"/>
      <point x="450" y="679" type="line"/>
      <point x="450" y="374" type="line"/>
      <point x="434" y="374"/>
      <point x="422" y="362"/>
      <point x="422" y="341" type="curve" smooth="yes"/>
      <point x="422" y="321"/>
      <point x="434" y="307"/>
      <point x="456" y="307" type="curve" smooth="yes"/>
      <point x="461" y="307"/>
      <point x="468" y="308"/>
      <point x="471" y="309" type="curve"/>
      <point x="471" y="679" type="line"/>
      <point x="745" y="679" type="line"/>
      <point x="745" y="0" type="line"/>
      <point x="766" y="0" type="line"/>
      <point x="766" y="679" type="line"/>
      <point x="930" y="679" type="line"/>
      <point x="930" y="698" type="line"/>
      <point x="-20" y="698" type="line"/>
      <point x="-20" y="679" type="line"/>
      <point x="152" y="679" type="line"/>
      <point x="152" y="374" type="line"/>
      <point x="136" y="374"/>
      <point x="124" y="362"/>
      <point x="124" y="341" type="curve" smooth="yes"/>
      <point x="124" y="321"/>
      <point x="136" y="307"/>
    </contour>
    <contour>
      <point x="766.0" y="0.0" type="move" name="bottom_deva"/>
    </contour>
    <contour>
      <point x="611.0" y="696.0" type="move" name="center_deva"/>
    </contour>
    <contour>
      <point x="766.0" y="696.0" type="move" name="top_deva"/>
    </contour>
  </outline>
</glyph>
<glyph name="dvG_LA" format="1">
  <advance width="1150"/>
  <outline>
    <contour>
      <point x="158" y="307" type="curve" smooth="yes" name="hr00"/>
      <point x="163" y="307"/>
      <point x="170" y="308"/>
      <point x="173" y="309" type="curve"/>
      <point x="173" y="679" type="line"/>
      <point x="985" y="679" type="line"/>
      <point x="985" y="450" type="line"/>
      <point x="986" y="385" type="line"/>
      <point x="984" y="385" type="line"/>
      <point x="965" y="422"/>
      <point x="924" y="465"/>
      <point x="853" y="465" type="curve" smooth="yes"/>
      <point x="776" y="465"/>
      <point x="729" y="408"/>
      <point x="713" y="333" type="curve"/>
      <point x="711" y="333" type="line"/>
      <point x="696" y="409"/>
      <point x="643" y="465"/>
      <point x="558" y="465" type="curve" smooth="yes"/>
      <point x="470" y="465"/>
      <point x="408" y="395"/>
      <point x="408" y="271" type="curve" smooth="yes"/>
      <point x="408" y="112"/>
      <point x="470" y="29"/>
      <point x="622" y="14" type="curve"/>
      <point x="625" y="33" type="line"/>
      <point x="476" y="46"/>
      <point x="430" y="131"/>
      <point x="430" y="256" type="curve" smooth="yes"/>
      <point x="430" y="283" type="line" smooth="yes"/>
      <point x="430" y="381"/>
      <point x="484" y="445"/>
      <point x="559" y="445" type="curve" smooth="yes"/>
      <point x="643" y="445"/>
      <point x="702" y="379"/>
      <point x="702" y="273" type="curve" smooth="yes"/>
      <point x="702" y="186" type="line"/>
      <point x="723" y="186" type="line"/>
      <point x="723" y="271" type="line" smooth="yes"/>
      <point x="723" y="377"/>
      <point x="779" y="445"/>
      <point x="853" y="445" type="curve" smooth="yes"/>
      <point x="942" y="445"/>
      <point x="985" y="371"/>
      <point x="985" y="321" type="curve" smooth="yes"/>
      <point x="985" y="0" type="line"/>
      <point x="1006" y="0" type="line"/>
      <point x="1006" y="679" type="line"/>
      <point x="1170" y="679" type="line"/>
      <point x="1170" y="698" type="line"/>
      <point x="-20" y="698" type="line"/>
      <point x="-20" y="679" type="line"/>
      <point x="152" y="679" type="line"/>
      <point x="152" y="374" type="line"/>
      <point x="136" y="374"/>
      <point x="124" y="362"/>
      <point x="124" y="341" type="curve" smooth="yes"/>
      <point x="124" y="321"/>
      <point x="136" y="307"/>
    </contour>
    <contour>
      <point x="1006.0" y="0.0" type="move" name="bottom_deva"/>
    </contour>
    <contour>
      <point x="713.0" y="696.0" type="move" name="center_deva"/>
    </contour>
    <contour>
      <point x="1006.0" y="696.0" type="move" name="top_deva"/>
    </contour>
  </outline>
</glyph>
<glyph name="dvG_MA" format="1">
  <advance width="944"/>
  <outline>
    <contour>
      <point x="158" y="307" type="curve" smooth="yes" name="hr00"/>
      <point x="163" y="307"/>
      <point x="170" y="308"/>
      <point x="173" y="309" type="curve"/>
      <point x="173" y="679" type="line"/>
      <point x="465" y="679" type="line"/>
      <point x="465" y="353" type="line"/>
      <point x="449" y="351"/>
      <point x="440" y="339"/>
      <point x="440" y="321" type="curve" smooth="yes"/>
      <point x="440" y="302"/>
      <point x="449" y="288"/>
      <point x="470" y="288" type="curve" smooth="yes"/>
      <point x="476" y="288"/>
      <point x="482" y="289"/>
      <point x="486" y="291" type="curve"/>
      <point x="486" y="335" type="line"/>
      <point x="779" y="335" type="line"/>
      <point x="779" y="0" type="line"/>
      <point x="800" y="0" type="line"/>
      <point x="800" y="679" type="line"/>
      <point x="964" y="679" type="line"/>
      <point x="964" y="698" type="line"/>
      <point x="-20" y="698" type="line"/>
      <point x="-20" y="679" type="line"/>
      <point x="152" y="679" type="line"/>
      <point x="152" y="374" type="line"/>
      <point x="136" y="374"/>
      <point x="124" y="362"/>
      <point x="124" y="341" type="curve" smooth="yes"/>
      <point x="124" y="321"/>
      <point x="136" y="307"/>
    </contour>
    <contour>
      <point x="779" y="679" type="line"/>
      <point x="779" y="354" type="line"/>
      <point x="486" y="354" type="line"/>
      <point x="486" y="679" type="line"/>
    </contour>
    <contour>
      <point x="800.0" y="0.0" type="move" name="bottom_deva"/>
    </contour>
    <contour>
      <point x="631.0" y="696.0" type="move" name="center_deva"/>
    </contour>
    <contour>
      <point x="800.0" y="696.0" type="move" name="top_deva"/>
    </contour>
  </outline>
</glyph>
<glyph name="dvG_NNA" format="1">
  <advance width="1093"/>
  <outline>
    <contour>
      <point x="158" y="307" type="curve" smooth="yes" name="hr00"/>
      <point x="163" y="307"/>
      <point x="170" y="308"/>
      <point x="173" y="309" type="curve"/>
      <point x="173" y="679" type="line"/>
      <point x="435" y="679" type="line"/>
      <point x="435" y="401" type="line" smooth="yes"/>
      <point x="435" y="296"/>
      <point x="484" y="243"/>
      <point x="575" y="243" type="curve" smooth="yes"/>
      <point x="670" y="243"/>
      <point x="716" y="298"/>
      <point x="716" y="401" type="curve" smooth="yes"/>
      <point x="716" y="679" type="line"/>
      <point x="928" y="679" type="line"/>
      <point x="928" y="0" type="line"/>
      <point x="949" y="0" type="line"/>
      <point x="949" y="679" type="line"/>
      <point x="1113" y="679" type="line"/>
      <point x="1113" y="698" type="line"/>
      <point x="-20" y="698" type="line"/>
      <point x="-20" y="679" type="line"/>
      <point x="152" y="679" type="line"/>
      <point x="152" y="374" type="line"/>
      <point x="136" y="374"/>
      <point x="124" y="362"/>
      <point x="124" y="341" type="curve" smooth="yes"/>
      <point x="124" y="321"/>
      <point x="136" y="307"/>
    </contour>
    <contour>
      <point x="456" y="394" type="curve" smooth="yes"/>
      <point x="456" y="679" type="line"/>
      <point x="695" y="679" type="line"/>
      <point x="695" y="394" type="line" smooth="yes"/>
      <point x="695" y="310"/>
      <point x="657" y="262"/>
      <point x="575" y="262" type="curve" smooth="yes"/>
      <point x="495" y="262"/>
      <point x="456" y="308"/>
    </contour>
    <contour>
      <point x="949.0" y="0.0" type="move" name="bottom_deva"/>
    </contour>
    <contour>
      <point x="740.0" y="696.0" type="move" name="center_deva"/>
    </contour>
    <contour>
      <point x="949.0" y="696.0" type="move" name="top_deva"/>
    </contour>
  </outline>
</glyph>
<glyph name="dvG_N" format="1">
  <advance width="313"/>
  <outline>
    <contour>
      <point x="158" y="307" type="curve" smooth="yes" name="hr00"/>
      <point x="163" y="307"/>
      <point x="170" y="308"/>
      <point x="173" y="309" type="curve"/>
      <point x="173" y="679" type="line"/>
      <point x="351" y="679" type="line"/>
      <point x="351" y="698" type="line"/>
      <point x="-20" y="698" type="line"/>
      <point x="-20" y="679" type="line"/>
      <point x="152" y="679" type="line"/>
      <point x="152" y="374" type="line"/>
      <point x="136" y="374"/>
      <point x="124" y="362"/>
      <point x="124" y="341" type="curve" smooth="yes"/>
      <point x="124" y="321"/>
      <point x="136" y="307"/>
    </contour>
    <contour>
      <point x="224" y="-33" type="curve" smooth="yes"/>
      <point x="236" y="-33"/>
      <point x="244" y="-27"/>
      <point x="246" y="-17" type="curve"/>
      <point x="217" y="20" type="line"/>
      <point x="456" y="222" type="line"/>
      <point x="445" y="236" type="line"/>
      <point x="200" y="34" type="line" smooth="yes"/>
      <point x="190" y="26"/>
      <point x="185" y="18"/>
      <point x="185" y="7" type="curve" smooth="yes"/>
      <point x="185" y="-12"/>
      <point x="204" y="-33"/>
    </contour>
  </outline>
</glyph>
<glyph name="dvG_N_YA" format="1">
  <advance width="996"/>
  <outline>
    <contour>
      <point x="286" y="-33" type="curve" smooth="yes" name="hr00"/>
      <point x="298" y="-33"/>
      <point x="306" y="-27"/>
      <point x="308" y="-17" type="curve"/>
      <point x="279" y="20" type="line"/>
      <point x="484" y="193" type="line"/>
      <point x="517" y="173"/>
      <point x="558" y="162"/>
      <point x="610" y="162" type="curve" smooth="yes"/>
      <point x="728" y="162"/>
      <point x="796" y="218"/>
      <point x="828" y="266" type="curve"/>
      <point x="831" y="266" type="line"/>
      <point x="831" y="0" type="line"/>
      <point x="852" y="0" type="line"/>
      <point x="852" y="679" type="line"/>
      <point x="1016" y="679" type="line"/>
      <point x="1016" y="698" type="line"/>
      <point x="-20" y="698" type="line"/>
      <point x="-20" y="679" type="line"/>
      <point x="152" y="679" type="line"/>
      <point x="152" y="374" type="line"/>
      <point x="136" y="374"/>
      <point x="124" y="362"/>
      <point x="124" y="341" type="curve" smooth="yes"/>
      <point x="124" y="321"/>
      <point x="136" y="307"/>
      <point x="158" y="307" type="curve" smooth="yes"/>
      <point x="163" y="307"/>
      <point x="170" y="308"/>
      <point x="173" y="309" type="curve"/>
      <point x="173" y="679" type="line"/>
      <point x="573" y="679" type="line"/>
      <point x="573" y="540" type="line" smooth="yes"/>
      <point x="573" y="455"/>
      <point x="546" y="426"/>
      <point x="455" y="426" type="curve" smooth="yes"/>
      <point x="403" y="426" type="line"/>
      <point x="403" y="359" type="line" smooth="yes"/>
      <point x="403" y="293"/>
      <point x="425" y="239"/>
      <point x="469" y="204" type="curve"/>
      <point x="262" y="34" type="line" smooth="yes"/>
      <point x="252" y="26"/>
      <point x="247" y="18"/>
      <point x="247" y="7" type="curve" smooth="yes"/>
      <point x="247" y="-12"/>
      <point x="266" y="-33"/>
    </contour>
    <contour>
      <point x="610" y="181" type="curve" smooth="yes"/>
      <point x="488" y="181"/>
      <point x="424" y="248"/>
      <point x="424" y="356" type="curve" smooth="yes"/>
      <point x="424" y="407" type="line"/>
      <point x="458" y="407" type="line" smooth="yes"/>
      <point x="555" y="407"/>
      <point x="594" y="444"/>
      <point x="594" y="536" type="curve" smooth="yes"/>
      <point x="594" y="679" type="line"/>
      <point x="831" y="679" type="line"/>
      <point x="831" y="340" type="line" smooth="yes"/>
      <point x="831" y="262"/>
      <point x="744" y="181"/>
    </contour>
    <contour>
      <point x="852.0" y="0.0" type="move" name="bottom_deva"/>
    </contour>
    <contour>
      <point x="715.0" y="696.0" type="move" name="center_deva"/>
    </contour>
    <contour>
      <point x="852.0" y="696.0" type="move" name="top_deva"/>
    </contour>
  </outline>
</glyph>
<glyph name="dvG_R_YA" format="1">
  <advance width="1000"/>
  <outline>
    <contour>
      <point x="211" y="-30" type="line" name="hr00"/>
      <point x="405" y="163" type="line"/>
      <point x="459" y="217" type="line"/>
      <point x="493" y="182"/>
      <point x="545" y="162"/>
      <point x="614" y="162" type="curve" smooth="yes"/>
      <point x="732" y="162"/>
      <point x="800" y="218"/>
      <point x="832" y="266" type="curve"/>
      <point x="835" y="266" type="line"/>
      <point x="835" y="0" type="line"/>
      <point x="856" y="0" type="line"/>
      <point x="856" y="679" type="line"/>
      <point x="1020" y="679" type="line"/>
      <point x="1020" y="698" type="line"/>
      <point x="-20" y="698" type="line"/>
      <point x="-20" y="679" type="line"/>
      <point x="152" y="679" type="line"/>
      <point x="152" y="374" type="line"/>
      <point x="136" y="374"/>
      <point x="124" y="362"/>
      <point x="124" y="341" type="curve" smooth="yes"/>
      <point x="124" y="321"/>
      <point x="136" y="307"/>
      <point x="158" y="307" type="curve" smooth="yes"/>
      <point x="163" y="307"/>
      <point x="170" y="308"/>
      <point x="173" y="309" type="curve"/>
      <point x="173" y="679" type="line"/>
      <point x="577" y="679" type="line"/>
      <point x="577" y="540" type="line" smooth="yes"/>
      <point x="577" y="455"/>
      <point x="550" y="426"/>
      <point x="459" y="426" type="curve" smooth="yes"/>
      <point x="407" y="426" type="line"/>
      <point x="407" y="359" type="line" smooth="yes"/>
      <point x="407" y="308"/>
      <point x="420" y="264"/>
      <point x="446" y="231" type="curve"/>
      <point x="196" y="-15" type="line"/>
    </contour>
    <contour>
      <point x="614" y="181" type="curve" smooth="yes"/>
      <point x="492" y="181"/>
      <point x="428" y="248"/>
      <point x="428" y="356" type="curve" smooth="yes"/>
      <point x="428" y="407" type="line"/>
      <point x="462" y="407" type="line" smooth="yes"/>
      <point x="559" y="407"/>
      <point x="598" y="444"/>
      <point x="598" y="536" type="curve" smooth="yes"/>
      <point x="598" y="679" type="line"/>
      <point x="835" y="679" type="line"/>
      <point x="835" y="340" type="line" smooth="yes"/>
      <point x="835" y="262"/>
      <point x="748" y="181"/>
    </contour>
    <contour>
      <point x="856.0" y="0.0" type="move" name="bottom_deva"/>
    </contour>
    <contour>
      <point x="719.0" y="696.0" type="move" name="center_deva"/>
    </contour>
    <contour>
      <point x="856.0" y="696.0" type="move" name="top_deva"/>
    </contour>
  </outline>
</glyph>
<glyph name="dvHA_mU" format="1">
  <advance width="567"/>
  <outline>
    <contour>
      <point x="112" y="405" type="curve" smooth="yes"/>
      <point x="112" y="353"/>
      <point x="139" y="312"/>
      <point x="185" y="277" type="curve"/>
      <point x="185" y="275" type="line"/>
      <point x="141" y="241"/>
      <point x="121" y="185"/>
      <point x="121" y="120" type="curve" smooth="yes" name="hr01"/>
      <point x="121" y="-8"/>
      <point x="217" y="-62"/>
      <point x="348" y="-74" type="curve" smooth="yes"/>
      <point x="438" y="-82"/>
      <point x="470" y="-117"/>
      <point x="470" y="-176" type="curve" smooth="yes"/>
      <point x="470" y="-240"/>
      <point x="429" y="-272"/>
      <point x="358" y="-272" type="curve" smooth="yes"/>
      <point x="340" y="-272" type="line" smooth="yes"/>
      <point x="267" y="-272"/>
      <point x="222" y="-255"/>
      <point x="124" y="-161" type="curve"/>
      <point x="112" y="-174" type="line" name="hr02"/>
      <point x="217" y="-274"/>
      <point x="262" y="-290"/>
      <point x="350" y="-290" type="curve" smooth="yes"/>
      <point x="439" y="-290"/>
      <point x="489" y="-253"/>
      <point x="489" y="-176" type="curve" smooth="yes"/>
      <point x="489" y="-108"/>
      <point x="451" y="-65"/>
      <point x="353" y="-57" type="curve" smooth="yes"/>
      <point x="225" y="-47"/>
      <point x="143" y="10"/>
      <point x="143" y="107" type="curve" smooth="yes" name="hr03"/>
      <point x="143" y="137" type="line" smooth="yes"/>
      <point x="143" y="219"/>
      <point x="194" y="292"/>
      <point x="311" y="292" type="curve" smooth="yes"/>
      <point x="405" y="292"/>
      <point x="470" y="232"/>
      <point x="470" y="152" type="curve" smooth="yes"/>
      <point x="470" y="110" type="line"/>
      <point x="490" y="110" type="line"/>
      <point x="490" y="152" type="line" smooth="yes"/>
      <point x="490" y="241"/>
      <point x="420" y="311"/>
      <point x="310" y="311" type="curve" smooth="yes"/>
      <point x="266" y="311"/>
      <point x="231" y="302"/>
      <point x="203" y="287" type="curve"/>
      <point x="159" y="316"/>
      <point x="133" y="356"/>
      <point x="133" y="402" type="curve" smooth="yes" name="hr04"/>
      <point x="133" y="456"/>
      <point x="167" y="487"/>
      <point x="232" y="487" type="curve" smooth="yes"/>
      <point x="441" y="487" type="line"/>
      <point x="441" y="679" type="line"/>
      <point x="587" y="679" type="line"/>
      <point x="587" y="698" type="line"/>
      <point x="-20" y="698" type="line"/>
      <point x="-20" y="679" type="line"/>
      <point x="420" y="679" type="line"/>
      <point x="420" y="506" type="line"/>
      <point x="230" y="506" type="line" smooth="yes"/>
      <point x="154" y="506"/>
      <point x="112" y="467"/>
    </contour>
    <contour>
      <point x="317.0" y="696.0" type="move" name="center_deva"/>
    </contour>
    <contour>
      <point x="441.0" y="696.0" type="move" name="top_deva"/>
    </contour>
  </outline>
</glyph>
<glyph name="dvH_MA" format="1">
  <advance width="888"/>
  <outline>
    <contour>
      <point x="387" y="-77" type="curve" smooth="yes" name="hr00"/>
      <point x="434" y="-77" type="line"/>
      <point x="434" y="-59" type="line"/>
      <point x="388" y="-59" type="line" smooth="yes"/>
      <point x="205" y="-59"/>
      <point x="152" y="28"/>
      <point x="152" y="111" type="curve" smooth="yes"/>
      <point x="152" y="140" type="line" smooth="yes"/>
      <point x="152" y="232"/>
      <point x="219" y="292"/>
      <point x="316" y="292" type="curve" smooth="yes"/>
      <point x="404" y="292"/>
      <point x="453" y="252"/>
      <point x="462" y="179" type="curve"/>
      <point x="462" y="177" type="line"/>
      <point x="447" y="174"/>
      <point x="437" y="162"/>
      <point x="437" y="139" type="curve" smooth="yes"/>
      <point x="437" y="116"/>
      <point x="447" y="100"/>
      <point x="467" y="100" type="curve" smooth="yes"/>
      <point x="472" y="100"/>
      <point x="478" y="101"/>
      <point x="483" y="103" type="curve"/>
      <point x="483" y="159" type="line"/>
      <point x="723" y="159" type="line"/>
      <point x="723" y="-60" type="line"/>
      <point x="744" y="-60" type="line"/>
      <point x="744" y="679" type="line"/>
      <point x="908" y="679" type="line"/>
      <point x="908" y="698" type="line"/>
      <point x="-20" y="698" type="line"/>
      <point x="-20" y="679" type="line"/>
      <point x="429" y="679" type="line"/>
      <point x="429" y="507" type="line"/>
      <point x="244" y="507" type="line" smooth="yes"/>
      <point x="165" y="507"/>
      <point x="121" y="468"/>
      <point x="121" y="406" type="curve" smooth="yes"/>
      <point x="121" y="350"/>
      <point x="149" y="312"/>
      <point x="195" y="277" type="curve"/>
      <point x="195" y="275" type="line"/>
      <point x="152" y="243"/>
      <point x="130" y="190"/>
      <point x="130" y="128" type="curve" smooth="yes"/>
      <point x="130" y="5"/>
      <point x="207" y="-77"/>
    </contour>
    <contour>
      <point x="723" y="679" type="line"/>
      <point x="723" y="178" type="line"/>
      <point x="482" y="178" type="line"/>
      <point x="472" y="261"/>
      <point x="421" y="311"/>
      <point x="317" y="311" type="curve" smooth="yes"/>
      <point x="275" y="311"/>
      <point x="240" y="302"/>
      <point x="212" y="286" type="curve"/>
      <point x="171" y="317"/>
      <point x="142" y="350"/>
      <point x="142" y="403" type="curve" smooth="yes"/>
      <point x="142" y="457"/>
      <point x="177" y="488"/>
      <point x="245" y="488" type="curve" smooth="yes"/>
      <point x="450" y="488" type="line"/>
      <point x="450" y="679" type="line"/>
    </contour>
    <contour>
      <point x="744.0" y="-60.0" type="move" name="bottom_deva"/>
    </contour>
    <contour>
      <point x="571.0" y="696.0" type="move" name="center_deva"/>
    </contour>
    <contour>
      <point x="744.0" y="696.0" type="move" name="top_deva"/>
    </contour>
  </outline>
</glyph>
<glyph name="dvH_M" format="1">
  <advance width="633"/>
  <outline>
    <contour>
      <point x="388" y="-81" type="curve" smooth="yes"/>
      <point x="435" y="-81" type="line"/>
      <point x="435" y="-63" type="line"/>
      <point x="389" y="-63" type="line" smooth="yes"/>
      <point x="206" y="-63"/>
      <point x="153" y="26"/>
      <point x="153" y="111" type="curve" smooth="yes"/>
      <point x="153" y="140" type="line" smooth="yes"/>
      <point x="153" y="232"/>
      <point x="220" y="292"/>
      <point x="317" y="292" type="curve" smooth="yes"/>
      <point x="405" y="292"/>
      <point x="454" y="252"/>
      <point x="463" y="180" type="curve"/>
      <point x="463" y="177" type="line"/>
      <point x="448" y="174"/>
      <point x="438" y="162"/>
      <point x="438" y="139" type="curve" smooth="yes"/>
      <point x="438" y="116"/>
      <point x="448" y="100"/>
      <point x="468" y="100" type="curve" smooth="yes"/>
      <point x="473" y="100"/>
      <point x="479" y="101"/>
      <point x="484" y="103" type="curve"/>
      <point x="484" y="159" type="line"/>
      <point x="774" y="159" type="line"/>
      <point x="774" y="178" type="line"/>
      <point x="483" y="178" type="line"/>
      <point x="473" y="261"/>
      <point x="422" y="311"/>
      <point x="318" y="311" type="curve" smooth="yes"/>
      <point x="276" y="311"/>
      <point x="241" y="302"/>
      <point x="213" y="286" type="curve"/>
      <point x="172" y="317"/>
      <point x="143" y="350"/>
      <point x="143" y="403" type="curve" smooth="yes" name="hr01"/>
      <point x="143" y="457"/>
      <point x="178" y="488"/>
      <point x="246" y="488" type="curve" smooth="yes"/>
      <point x="451" y="488" type="line"/>
      <point x="451" y="679" type="line"/>
      <point x="642" y="679" type="line"/>
      <point x="642" y="698" type="line"/>
      <point x="-20" y="698" type="line"/>
      <point x="-20" y="679" type="line"/>
      <point x="430" y="679" type="line"/>
      <point x="430" y="507" type="line"/>
      <point x="245" y="507" type="line" smooth="yes"/>
      <point x="166" y="507"/>
      <point x="122" y="468"/>
      <point x="122" y="406" type="curve" smooth="yes"/>
      <point x="122" y="350"/>
      <point x="150" y="312"/>
      <point x="196" y="277" type="curve"/>
      <point x="196" y="275" type="line"/>
      <point x="153" y="243"/>
      <point x="131" y="190"/>
      <point x="131" y="128" type="curve" smooth="yes" name="hr02"/>
      <point x="131" y="3"/>
      <point x="208" y="-81"/>
    </contour>
  </outline>
</glyph>
<glyph name="dvH_M_YA" format="1">
  <advance width="1250"/>
  <outline>
    <contour>
      <point x="386" y="-81" type="curve" smooth="yes" name="hr00"/>
      <point x="433" y="-81" type="line"/>
      <point x="433" y="-63" type="line"/>
      <point x="387" y="-63" type="line" smooth="yes"/>
      <point x="204" y="-63"/>
      <point x="151" y="26"/>
      <point x="151" y="111" type="curve" smooth="yes"/>
      <point x="151" y="140" type="line" smooth="yes"/>
      <point x="151" y="232"/>
      <point x="218" y="292"/>
      <point x="315" y="292" type="curve" smooth="yes"/>
      <point x="408" y="292"/>
      <point x="453" y="248"/>
      <point x="462" y="178" type="curve"/>
      <point x="462" y="176" type="line"/>
      <point x="447" y="173"/>
      <point x="436" y="160"/>
      <point x="436" y="139" type="curve" smooth="yes"/>
      <point x="436" y="116"/>
      <point x="446" y="100"/>
      <point x="466" y="100" type="curve" smooth="yes"/>
      <point x="471" y="100"/>
      <point x="477" y="101"/>
      <point x="482" y="103" type="curve"/>
      <point x="482" y="159" type="line"/>
      <point x="874" y="159" type="line" smooth="yes"/>
      <point x="991" y="159"/>
      <point x="1053" y="212"/>
      <point x="1082" y="261" type="curve"/>
      <point x="1085" y="261" type="line"/>
      <point x="1085" y="0" type="line"/>
      <point x="1106" y="0" type="line"/>
      <point x="1106" y="679" type="line"/>
      <point x="1270" y="679" type="line"/>
      <point x="1270" y="698" type="line"/>
      <point x="-20" y="698" type="line"/>
      <point x="-20" y="679" type="line"/>
      <point x="428" y="679" type="line"/>
      <point x="428" y="507" type="line"/>
      <point x="243" y="507" type="line" smooth="yes"/>
      <point x="164" y="507"/>
      <point x="120" y="468"/>
      <point x="120" y="406" type="curve" smooth="yes"/>
      <point x="120" y="350"/>
      <point x="148" y="312"/>
      <point x="194" y="277" type="curve"/>
      <point x="194" y="275" type="line"/>
      <point x="151" y="243"/>
      <point x="129" y="190"/>
      <point x="129" y="128" type="curve" smooth="yes"/>
      <point x="129" y="3"/>
      <point x="206" y="-81"/>
    </contour>
    <contour>
      <point x="837" y="679" type="line"/>
      <point x="837" y="528" type="line" smooth="yes"/>
      <point x="837" y="442"/>
      <point x="809" y="413"/>
      <point x="719" y="413" type="curve" smooth="yes"/>
      <point x="667" y="413" type="line"/>
      <point x="667" y="356" type="line" smooth="yes"/>
      <point x="667" y="271"/>
      <point x="706" y="208"/>
      <point x="778" y="178" type="curve"/>
      <point x="777" y="175" type="line"/>
      <point x="687" y="177" type="line"/>
      <point x="481" y="177" type="line"/>
      <point x="472" y="260"/>
      <point x="420" y="311"/>
      <point x="316" y="311" type="curve" smooth="yes"/>
      <point x="274" y="311"/>
      <point x="239" y="302"/>
      <point x="211" y="286" type="curve"/>
      <point x="170" y="317"/>
      <point x="141" y="350"/>
      <point x="141" y="403" type="curve" smooth="yes"/>
      <point x="141" y="457"/>
      <point x="176" y="488"/>
      <point x="244" y="488" type="curve" smooth="yes"/>
      <point x="449" y="488" type="line"/>
      <point x="449" y="679" type="line"/>
    </contour>
    <contour>
      <point x="874" y="178" type="curve" smooth="yes"/>
      <point x="752" y="178"/>
      <point x="688" y="245"/>
      <point x="688" y="353" type="curve" smooth="yes"/>
      <point x="688" y="394" type="line"/>
      <point x="722" y="394" type="line" smooth="yes"/>
      <point x="819" y="394"/>
      <point x="858" y="431"/>
      <point x="858" y="523" type="curve" smooth="yes"/>
      <point x="858" y="679" type="line"/>
      <point x="1085" y="679" type="line"/>
      <point x="1085" y="337" type="line" smooth="yes"/>
      <point x="1085" y="260"/>
      <point x="1009" y="178"/>
    </contour>
    <contour>
      <point x="1106.0" y="0.0" type="move" name="bottom_deva"/>
    </contour>
    <contour>
      <point x="969.0" y="696.0" type="move" name="center_deva"/>
    </contour>
    <contour>
      <point x="1106.0" y="696.0" type="move" name="top_deva"/>
    </contour>
  </outline>
</glyph>
<glyph name="dvH_NNA" format="1">
  <advance width="628"/>
  <outline>
    <contour>
      <point x="367" y="-102" type="curve" smooth="yes"/>
      <point x="432" y="-102" type="line"/>
      <point x="432" y="-84" type="line"/>
      <point x="368" y="-84" type="line" smooth="yes"/>
      <point x="176" y="-84"/>
      <point x="123" y="17"/>
      <point x="123" y="114" type="curve" smooth="yes"/>
      <point x="123" y="136" type="line" smooth="yes"/>
      <point x="123" y="223"/>
      <point x="167" y="287"/>
      <point x="257" y="312" type="curve"/>
      <point x="259" y="310" type="line"/>
      <point x="259" y="161" type="line" smooth="yes"/>
      <point x="259" y="97"/>
      <point x="291" y="72"/>
      <point x="340" y="72" type="curve" smooth="yes"/>
      <point x="391" y="72"/>
      <point x="421" y="100"/>
      <point x="421" y="161" type="curve" smooth="yes"/>
      <point x="421" y="309" type="line"/>
      <point x="423" y="311" type="line"/>
      <point x="508" y="287"/>
      <point x="544" y="226"/>
      <point x="544" y="147" type="curve" smooth="yes"/>
      <point x="544" y="73" type="line"/>
      <point x="564" y="73" type="line"/>
      <point x="564" y="147" type="line" smooth="yes"/>
      <point x="564" y="257"/>
      <point x="497" y="340"/>
      <point x="338" y="340" type="curve" smooth="yes"/>
      <point x="270" y="340"/>
      <point x="218" y="325"/>
      <point x="180" y="299" type="curve"/>
      <point x="145" y="332"/>
      <point x="123" y="365"/>
      <point x="123" y="412" type="curve" smooth="yes"/>
      <point x="123" y="466"/>
      <point x="154" y="497"/>
      <point x="222" y="497" type="curve" smooth="yes"/>
      <point x="464" y="497" type="line"/>
      <point x="464" y="679" type="line"/>
      <point x="648" y="679" type="line"/>
      <point x="648" y="698" type="line"/>
      <point x="-20" y="698" type="line"/>
      <point x="-20" y="679" type="line"/>
      <point x="443" y="679" type="line"/>
      <point x="443" y="516" type="line"/>
      <point x="221" y="516" type="line" smooth="yes"/>
      <point x="142" y="516"/>
      <point x="102" y="477"/>
      <point x="102" y="415" type="curve" smooth="yes"/>
      <point x="102" y="366"/>
      <point x="126" y="325"/>
      <point x="164" y="289" type="curve"/>
      <point x="165" y="287" type="line"/>
      <point x="121" y="248"/>
      <point x="101" y="192"/>
      <point x="101" y="126" type="curve" smooth="yes" name="hr01"/>
      <point x="101" y="-3"/>
      <point x="172" y="-102"/>
    </contour>
    <contour>
      <point x="340" y="90" type="curve" smooth="yes"/>
      <point x="300" y="90"/>
      <point x="279" y="110"/>
      <point x="279" y="153" type="curve" smooth="yes"/>
      <point x="279" y="316" type="line"/>
      <point x="297" y="319"/>
      <point x="317" y="321"/>
      <point x="339" y="321" type="curve" smooth="yes"/>
      <point x="362" y="321"/>
      <point x="382" y="319"/>
      <point x="401" y="316" type="curve"/>
      <point x="401" y="154" type="line" smooth="yes"/>
      <point x="401" y="112"/>
      <point x="381" y="90"/>
    </contour>
    <contour>
      <point x="364.0" y="-98.0" type="move" name="bottom_deva"/>
    </contour>
    <contour>
      <point x="325.0" y="696.0" type="move" name="center_deva"/>
    </contour>
    <contour>
      <point x="464.0" y="696.0" type="move" name="top_deva"/>
    </contour>
  </outline>
</glyph>
<glyph name="dvJH_MA" format="1">
  <advance width="1121"/>
  <outline>
    <contour>
      <point x="209" y="-105" type="line"/>
      <point x="226" y="-99" type="line"/>
      <point x="181" y="32" type="line"/>
      <point x="175" y="50" type="line"/>
      <point x="176" y="51" type="line"/>
      <point x="199" y="46"/>
      <point x="227" y="42"/>
      <point x="258" y="42" type="curve" smooth="yes"/>
      <point x="374" y="42"/>
      <point x="428" y="90"/>
      <point x="428" y="178" type="curve" smooth="yes"/>
      <point x="428" y="213"/>
      <point x="417" y="243"/>
      <point x="395" y="264" type="curve"/>
      <point x="395" y="265" type="line"/>
      <point x="619" y="267" type="line"/>
      <point x="623" y="255"/>
      <point x="632" y="248"/>
      <point x="647" y="248" type="curve" smooth="yes"/>
      <point x="653" y="248"/>
      <point x="659" y="249"/>
      <point x="663" y="251" type="curve"/>
      <point x="663" y="295" type="line"/>
      <point x="956" y="295" type="line"/>
      <point x="956" y="0" type="line"/>
      <point x="977" y="0" type="line"/>
      <point x="977" y="679" type="line"/>
      <point x="1141" y="679" type="line"/>
      <point x="1141" y="698" type="line"/>
      <point x="-20" y="698" type="line"/>
      <point x="-20" y="679" type="line"/>
      <point x="356" y="679" type="line"/>
      <point x="356" y="502" type="line"/>
      <point x="218" y="502" type="line" smooth="yes"/>
      <point x="138" y="502"/>
      <point x="92" y="458"/>
      <point x="92" y="394" type="curve" smooth="yes"/>
      <point x="92" y="328"/>
      <point x="137" y="282"/>
      <point x="232" y="282" type="curve" smooth="yes" name="hr01"/>
      <point x="286" y="282" type="line" smooth="yes"/>
      <point x="368" y="282"/>
      <point x="406" y="241"/>
      <point x="406" y="187" type="curve" smooth="yes"/>
      <point x="406" y="168" type="line" smooth="yes"/>
      <point x="406" y="102"/>
      <point x="359" y="60"/>
      <point x="259" y="60" type="curve" smooth="yes"/>
      <point x="223" y="60"/>
      <point x="194" y="64"/>
      <point x="168" y="72" type="curve"/>
      <point x="148" y="124" type="line"/>
      <point x="143" y="125"/>
      <point x="140" y="125"/>
      <point x="136" y="125" type="curve" smooth="yes"/>
      <point x="120" y="125"/>
      <point x="109" y="116"/>
      <point x="109" y="98" type="curve" smooth="yes"/>
      <point x="109" y="75"/>
      <point x="126" y="61"/>
      <point x="155" y="54" type="curve"/>
      <point x="164" y="27" type="line"/>
    </contour>
    <contour>
      <point x="377" y="679" type="line"/>
      <point x="642" y="679" type="line"/>
      <point x="642" y="313" type="line"/>
      <point x="626" y="311"/>
      <point x="618" y="300"/>
      <point x="617" y="284" type="curve" name="hr02"/>
      <point x="374" y="281" type="line"/>
      <point x="352" y="294"/>
      <point x="323" y="301"/>
      <point x="288" y="301" type="curve" smooth="yes" name="hr03"/>
      <point x="227" y="301" type="line" smooth="yes"/>
      <point x="151" y="301"/>
      <point x="114" y="337"/>
      <point x="114" y="387" type="curve" smooth="yes"/>
      <point x="114" y="400" type="line" smooth="yes"/>
      <point x="114" y="448"/>
      <point x="151" y="482"/>
      <point x="222" y="482" type="curve" smooth="yes"/>
      <point x="377" y="482" type="line"/>
    </contour>
    <contour>
      <point x="956" y="679" type="line"/>
      <point x="956" y="314" type="line" name="hr04"/>
      <point x="663" y="314" type="line"/>
      <point x="663" y="679" type="line"/>
    </contour>
    <contour>
      <point x="977.0" y="0.0" type="move" name="bottom_deva"/>
    </contour>
    <contour>
      <point x="808.0" y="696.0" type="move" name="center_deva"/>
    </contour>
    <contour>
      <point x="977.0" y="696.0" type="move" name="top_deva"/>
    </contour>
  </outline>
</glyph>
<glyph name="dvJH_YA" format="1">
  <advance width="1190"/>
  <outline>
    <contour>
      <point x="209" y="-105" type="line" name="hr00"/>
      <point x="226" y="-99" type="line"/>
      <point x="181" y="32" type="line"/>
      <point x="175" y="50" type="line"/>
      <point x="176" y="51" type="line"/>
      <point x="199" y="46"/>
      <point x="227" y="42"/>
      <point x="258" y="42" type="curve" smooth="yes"/>
      <point x="374" y="42"/>
      <point x="428" y="90"/>
      <point x="428" y="178" type="curve" smooth="yes"/>
      <point x="428" y="205"/>
      <point x="421" y="225"/>
      <point x="411" y="242" type="curve"/>
      <point x="412" y="243" type="line"/>
      <point x="628" y="243" type="line"/>
      <point x="660" y="192"/>
      <point x="719" y="162"/>
      <point x="804" y="162" type="curve" smooth="yes"/>
      <point x="922" y="162"/>
      <point x="990" y="218"/>
      <point x="1022" y="266" type="curve"/>
      <point x="1025" y="266" type="line"/>
      <point x="1025" y="0" type="line"/>
      <point x="1046" y="0" type="line"/>
      <point x="1046" y="679" type="line"/>
      <point x="1210" y="679" type="line"/>
      <point x="1210" y="698" type="line"/>
      <point x="-20" y="698" type="line"/>
      <point x="-20" y="679" type="line"/>
      <point x="356" y="679" type="line"/>
      <point x="356" y="502" type="line"/>
      <point x="218" y="502" type="line" smooth="yes"/>
      <point x="138" y="502"/>
      <point x="92" y="458"/>
      <point x="92" y="394" type="curve" smooth="yes"/>
      <point x="92" y="328"/>
      <point x="137" y="282"/>
      <point x="232" y="282" type="curve" smooth="yes"/>
      <point x="286" y="282" type="line" smooth="yes"/>
      <point x="368" y="282"/>
      <point x="406" y="238"/>
      <point x="406" y="185" type="curve" smooth="yes"/>
      <point x="406" y="168" type="line" smooth="yes"/>
      <point x="406" y="102"/>
      <point x="359" y="60"/>
      <point x="259" y="60" type="curve" smooth="yes"/>
      <point x="223" y="60"/>
      <point x="194" y="64"/>
      <point x="168" y="72" type="curve"/>
      <point x="148" y="124" type="line"/>
      <point x="143" y="125"/>
      <point x="140" y="125"/>
      <point x="136" y="125" type="curve" smooth="yes"/>
      <point x="120" y="125"/>
      <point x="109" y="116"/>
      <point x="109" y="98" type="curve" smooth="yes"/>
      <point x="109" y="75"/>
      <point x="126" y="61"/>
      <point x="155" y="54" type="curve"/>
      <point x="164" y="27" type="line"/>
    </contour>
    <contour>
      <point x="377" y="679" type="line"/>
      <point x="767" y="679" type="line"/>
      <point x="767" y="540" type="line" smooth="yes"/>
      <point x="767" y="455"/>
      <point x="740" y="426"/>
      <point x="649" y="426" type="curve" smooth="yes"/>
      <point x="597" y="426" type="line"/>
      <point x="597" y="359" type="line" smooth="yes"/>
      <point x="597" y="322"/>
      <point x="604" y="290"/>
      <point x="617" y="262" type="curve"/>
      <point x="616" y="261" type="line"/>
      <point x="399" y="261" type="line"/>
      <point x="375" y="286"/>
      <point x="339" y="301"/>
      <point x="288" y="301" type="curve" smooth="yes"/>
      <point x="227" y="301" type="line" smooth="yes"/>
      <point x="151" y="301"/>
      <point x="114" y="337"/>
      <point x="114" y="387" type="curve" smooth="yes"/>
      <point x="114" y="400" type="line" smooth="yes"/>
      <point x="114" y="448"/>
      <point x="151" y="482"/>
      <point x="222" y="482" type="curve" smooth="yes"/>
      <point x="377" y="482" type="line"/>
    </contour>
    <contour>
      <point x="804" y="181" type="curve" smooth="yes"/>
      <point x="682" y="181"/>
      <point x="618" y="248"/>
      <point x="618" y="356" type="curve" smooth="yes"/>
      <point x="618" y="407" type="line"/>
      <point x="652" y="407" type="line" smooth="yes"/>
      <point x="749" y="407"/>
      <point x="788" y="444"/>
      <point x="788" y="536" type="curve" smooth="yes"/>
      <point x="788" y="679" type="line"/>
      <point x="1025" y="679" type="line"/>
      <point x="1025" y="340" type="line" smooth="yes"/>
      <point x="1025" y="262"/>
      <point x="938" y="181"/>
    </contour>
    <contour>
      <point x="1046.0" y="0.0" type="move" name="bottom_deva"/>
    </contour>
    <contour>
      <point x="297.0" y="696.0" type="move" name="center_deva"/>
    </contour>
    <contour>
      <point x="377.0" y="696.0" type="move" name="top_deva"/>
    </contour>
  </outline>
</glyph>
<glyph name="dvJx_NA" format="1">
  <advance width="831"/>
  <outline>
    <component base="dvJ_NA"/>
    <component base="dvNukta" xOffset="-31" yOffset="72"/>
    <contour>
      <point x="687.0" y="0.0" type="move" name="bottom_deva"/>
    </contour>
    <contour>
      <point x="486.0" y="696.0" type="move" name="center_deva"/>
    </contour>
    <contour>
      <point x="687.0" y="696.0" type="move" name="top_deva"/>
    </contour>
  </outline>
</glyph>
<glyph name="dvKH_NA" format="1">
  <advance width="914"/>
  <outline>
    <contour>
      <point x="322" y="-88" type="curve" smooth="yes" name="hr00"/>
      <point x="335" y="-88"/>
      <point x="342" y="-80"/>
      <point x="344" y="-73" type="curve"/>
      <point x="316" y="-33" type="line"/>
      <point x="702" y="230" type="line" smooth="yes"/>
      <point x="717" y="240"/>
      <point x="737" y="260"/>
      <point x="746" y="273" type="curve"/>
      <point x="749" y="273" type="line"/>
      <point x="749" y="0" type="line"/>
      <point x="770" y="0" type="line"/>
      <point x="770" y="679" type="line"/>
      <point x="934" y="679" type="line"/>
      <point x="934" y="698" type="line"/>
      <point x="-20" y="698" type="line"/>
      <point x="-20" y="679" type="line"/>
      <point x="269" y="679" type="line"/>
      <point x="269" y="503" type="line" smooth="yes"/>
      <point x="269" y="402"/>
      <point x="230" y="352"/>
      <point x="108" y="352" type="curve" smooth="yes"/>
      <point x="82" y="352" type="line"/>
      <point x="82" y="332" type="line"/>
      <point x="168" y="194" type="line" smooth="yes"/>
      <point x="227" y="100"/>
      <point x="277" y="64"/>
      <point x="423" y="64" type="curve"/>
      <point x="423" y="62" type="line"/>
      <point x="305" y="-17" type="line" smooth="yes"/>
      <point x="288" y="-28"/>
      <point x="284" y="-37"/>
      <point x="284" y="-49" type="curve" smooth="yes"/>
      <point x="284" y="-67"/>
      <point x="301" y="-88"/>
    </contour>
    <contour>
      <point x="424" y="80" type="line" smooth="yes"/>
      <point x="286" y="80"/>
      <point x="241" y="114"/>
      <point x="184" y="205" type="curve" smooth="yes"/>
      <point x="105" y="331" type="line"/>
      <point x="105" y="333" type="line"/>
      <point x="239" y="333"/>
      <point x="290" y="386"/>
      <point x="290" y="507" type="curve" smooth="yes"/>
      <point x="290" y="679" type="line"/>
      <point x="749" y="679" type="line"/>
      <point x="749" y="417" type="line"/>
      <point x="746" y="417" type="line"/>
      <point x="724" y="447"/>
      <point x="679" y="488"/>
      <point x="593" y="488" type="curve" smooth="yes"/>
      <point x="500" y="488"/>
      <point x="440" y="430"/>
      <point x="440" y="348" type="curve" smooth="yes"/>
      <point x="440" y="261"/>
      <point x="505" y="207"/>
      <point x="595" y="207" type="curve" smooth="yes"/>
      <point x="614" y="207"/>
      <point x="633" y="209"/>
      <point x="650" y="214" type="curve"/>
      <point x="650" y="212" type="line"/>
      <point x="591" y="174" type="line"/>
      <point x="451" y="80" type="line"/>
    </contour>
    <contour>
      <point x="595" y="224" type="curve" smooth="yes"/>
      <point x="509" y="224"/>
      <point x="460" y="277"/>
      <point x="460" y="343" type="curve" smooth="yes"/>
      <point x="460" y="355" type="line" smooth="yes"/>
      <point x="460" y="415"/>
      <point x="511" y="470"/>
      <point x="594" y="470" type="curve" smooth="yes"/>
      <point x="681" y="470"/>
      <point x="749" y="416"/>
      <point x="749" y="362" type="curve" smooth="yes"/>
      <point x="749" y="332" type="line" smooth="yes"/>
      <point x="749" y="277"/>
      <point x="693" y="224"/>
    </contour>
    <contour>
      <point x="770.0" y="0.0" type="move" name="bottom_deva"/>
    </contour>
    <contour>
      <point x="532.0" y="696.0" type="move" name="center_deva"/>
    </contour>
    <contour>
      <point x="770.0" y="696.0" type="move" name="top_deva"/>
    </contour>
  </outline>
</glyph>
<glyph name="dvKH_RA" format="1">
  <advance width="914"/>
  <outline>
    <contour>
      <point x="244" y="-82" type="line" name="hr00"/>
      <point x="691" y="222" type="line" smooth="yes"/>
      <point x="717" y="240"/>
      <point x="732" y="253"/>
      <point x="747" y="273" type="curve"/>
      <point x="749" y="273" type="line"/>
      <point x="749" y="0" type="line"/>
      <point x="770" y="0" type="line"/>
      <point x="770" y="679" type="line"/>
      <point x="934" y="679" type="line"/>
      <point x="934" y="698" type="line"/>
      <point x="-20" y="698" type="line"/>
      <point x="-20" y="679" type="line"/>
      <point x="269" y="679" type="line"/>
      <point x="269" y="503" type="line" smooth="yes"/>
      <point x="269" y="402"/>
      <point x="230" y="352"/>
      <point x="108" y="352" type="curve" smooth="yes"/>
      <point x="82" y="352" type="line"/>
      <point x="82" y="332" type="line"/>
      <point x="168" y="194" type="line" smooth="yes"/>
      <point x="229" y="97"/>
      <point x="282" y="63"/>
      <point x="423" y="63" type="curve"/>
      <point x="423" y="61" type="line"/>
      <point x="232" y="-65" type="line"/>
    </contour>
    <contour>
      <point x="427" y="80" type="line" smooth="yes"/>
      <point x="296" y="80"/>
      <point x="247" y="104"/>
      <point x="184" y="205" type="curve" smooth="yes"/>
      <point x="105" y="331" type="line"/>
      <point x="105" y="333" type="line"/>
      <point x="239" y="333"/>
      <point x="290" y="386"/>
      <point x="290" y="507" type="curve" smooth="yes"/>
      <point x="290" y="679" type="line"/>
      <point x="749" y="679" type="line"/>
      <point x="749" y="417" type="line"/>
      <point x="746" y="417" type="line"/>
      <point x="723" y="448"/>
      <point x="678" y="488"/>
      <point x="594" y="488" type="curve" smooth="yes"/>
      <point x="501" y="488"/>
      <point x="440" y="431"/>
      <point x="440" y="348" type="curve" smooth="yes"/>
      <point x="440" y="264"/>
      <point x="502" y="207"/>
      <point x="595" y="207" type="curve" smooth="yes"/>
      <point x="616" y="207"/>
      <point x="633" y="209"/>
      <point x="649" y="214" type="curve"/>
      <point x="650" y="212" type="line"/>
      <point x="589" y="173" type="line"/>
      <point x="449" y="80" type="line"/>
    </contour>
    <contour>
      <point x="597" y="224" type="curve" smooth="yes"/>
      <point x="510" y="224"/>
      <point x="460" y="275"/>
      <point x="460" y="344" type="curve" smooth="yes"/>
      <point x="460" y="355" type="line" smooth="yes"/>
      <point x="460" y="415"/>
      <point x="511" y="470"/>
      <point x="594" y="470" type="curve" smooth="yes"/>
      <point x="692" y="470"/>
      <point x="749" y="407"/>
      <point x="749" y="365" type="curve" smooth="yes"/>
      <point x="749" y="332" type="line" smooth="yes"/>
      <point x="749" y="273"/>
      <point x="687" y="224"/>
    </contour>
    <contour>
      <point x="770.0" y="0.0" type="move" name="bottom_deva"/>
    </contour>
    <contour>
      <point x="533.0" y="696.0" type="move" name="center_deva"/>
    </contour>
    <contour>
      <point x="770.0" y="696.0" type="move" name="top_deva"/>
    </contour>
  </outline>
</glyph>
<glyph name="dvKHx_NA" format="1">
  <advance width="914"/>
  <outline>
    <component base="dvKH_NA"/>
    <component base="dvNukta" xOffset="4" yOffset="25"/>
    <contour>
      <point x="770.0" y="0.0" type="move" name="bottom_deva"/>
    </contour>
    <contour>
      <point x="532.0" y="696.0" type="move" name="center_deva"/>
    </contour>
    <contour>
      <point x="770.0" y="696.0" type="move" name="top_deva"/>
    </contour>
  </outline>
</glyph>
<glyph name="dvKHx_VA" format="1">
  <advance width="1288"/>
  <outline>
    <component base="dvKH_VA"/>
    <component base="dvNukta" yOffset="1"/>
    <contour>
      <point x="1144.0" y="0.0" type="move" name="bottom_deva"/>
    </contour>
    <contour>
      <point x="957.0" y="696.0" type="move" name="center_deva"/>
    </contour>
    <contour>
      <point x="1144.0" y="696.0" type="move" name="top_deva"/>
    </contour>
  </outline>
</glyph>
<glyph name="dvK_CA" format="1">
  <advance width="1275"/>
  <outline>
    <contour>
      <point x="423" y="0" type="line"/>
      <point x="444" y="0" type="line"/>
      <point x="444" y="257" type="line" smooth="yes"/>
      <point x="444" y="367"/>
      <point x="524" y="433"/>
      <point x="636" y="433" type="curve" smooth="yes"/>
      <point x="744" y="433" type="line"/>
      <point x="828" y="434" type="line"/>
      <point x="828" y="432" type="line"/>
      <point x="777" y="409"/>
      <point x="739" y="358"/>
      <point x="739" y="287" type="curve" smooth="yes"/>
      <point x="739" y="189"/>
      <point x="815" y="128"/>
      <point x="912" y="128" type="curve" smooth="yes"/>
      <point x="1015" y="128"/>
      <point x="1082" y="190"/>
      <point x="1107" y="244" type="curve"/>
      <point x="1110" y="244" type="line"/>
      <point x="1110" y="0" type="line"/>
      <point x="1131" y="0" type="line"/>
      <point x="1131" y="679" type="line"/>
      <point x="1295" y="679" type="line"/>
      <point x="1295" y="698" type="line"/>
      <point x="-20" y="698" type="line"/>
      <point x="-20" y="679" type="line"/>
      <point x="423" y="679" type="line"/>
      <point x="423" y="389" type="line"/>
      <point x="420" y="389" type="line"/>
      <point x="393" y="440"/>
      <point x="339" y="484"/>
      <point x="252" y="484" type="curve" smooth="yes"/>
      <point x="148" y="484"/>
      <point x="78" y="413"/>
      <point x="78" y="310" type="curve" smooth="yes"/>
      <point x="78" y="203"/>
      <point x="154" y="134"/>
      <point x="257" y="134" type="curve" smooth="yes" name="hr01"/>
      <point x="337" y="134"/>
      <point x="395" y="177"/>
      <point x="420" y="229" type="curve"/>
      <point x="423" y="229" type="line"/>
    </contour>
    <contour>
      <point x="1110" y="329" type="line" smooth="yes"/>
      <point x="1110" y="223"/>
      <point x="1017" y="147"/>
      <point x="912" y="147" type="curve" smooth="yes" name="hr02"/>
      <point x="831" y="147"/>
      <point x="761" y="194"/>
      <point x="761" y="288" type="curve" smooth="yes"/>
      <point x="761" y="364"/>
      <point x="813" y="429"/>
      <point x="898" y="435" type="curve"/>
      <point x="926" y="435" type="line"/>
      <point x="926" y="452" type="line"/>
      <point x="641" y="452" type="line" smooth="yes"/>
      <point x="537" y="452"/>
      <point x="483" y="413"/>
      <point x="447" y="351" type="curve"/>
      <point x="444" y="351" type="line"/>
      <point x="444" y="679" type="line"/>
      <point x="1110" y="679" type="line"/>
    </contour>
    <contour>
      <point x="258" y="153" type="curve" smooth="yes" name="hr03"/>
      <point x="162" y="153"/>
      <point x="101" y="219"/>
      <point x="101" y="298" type="curve" smooth="yes"/>
      <point x="101" y="319" type="line" smooth="yes"/>
      <point x="101" y="397"/>
      <point x="158" y="465"/>
      <point x="255" y="465" type="curve" smooth="yes"/>
      <point x="361" y="465"/>
      <point x="422" y="387"/>
      <point x="422" y="315" type="curve" smooth="yes"/>
      <point x="422" y="300" type="line" smooth="yes"/>
      <point x="422" y="225"/>
      <point x="355" y="153"/>
    </contour>
    <contour>
      <point x="1131.0" y="0.0" type="move" name="bottom_deva"/>
    </contour>
    <contour>
      <point x="956.0" y="696.0" type="move" name="center_deva"/>
    </contour>
    <contour>
      <point x="1131.0" y="696.0" type="move" name="top_deva"/>
    </contour>
  </outline>
</glyph>
